<svg width="13" height="11" viewBox="0 0 13 11" fill="none" xmlns="http://www.w3.org/2000/svg">
<g id="arrow-pointing-to-right">
<path id="Path 49851" d="M12.6219 5.10297L9.0139 0.92897C8.96593 0.868941 8.90508 0.820477 8.83583 0.78717C8.76659 0.753864 8.69074 0.736572 8.6139 0.736572C8.53706 0.736572 8.46121 0.753864 8.39196 0.78717C8.32272 0.820477 8.26186 0.868941 8.2139 0.92897C8.10712 1.05887 8.04875 1.22182 8.04875 1.38997C8.04875 1.55813 8.10712 1.72107 8.2139 1.85097L10.8609 4.91197H1.2249C1.07107 4.93766 0.931333 5.01707 0.830542 5.13609C0.729752 5.25511 0.674438 5.40601 0.674438 5.56197C0.674438 5.71793 0.729752 5.86884 0.830542 5.98785C0.931333 6.10687 1.07107 6.18628 1.2249 6.21197H10.8609L8.2149 9.27197C8.10812 9.40188 8.04975 9.56482 8.04975 9.73297C8.04975 9.90113 8.10812 10.0641 8.2149 10.194C8.26286 10.254 8.32372 10.3025 8.39296 10.3358C8.46221 10.3691 8.53806 10.3864 8.6149 10.3864C8.69174 10.3864 8.76759 10.3691 8.83683 10.3358C8.90608 10.3025 8.96694 10.254 9.0149 10.194L12.6219 6.02197C12.7279 5.8923 12.7858 5.72996 12.7858 5.56247C12.7858 5.39498 12.7279 5.23264 12.6219 5.10297Z" fill="#FB5252"/>
</g>
</svg>
