<svg width="70" height="71" viewBox="0 0 70 71" fill="none" xmlns="http://www.w3.org/2000/svg">
<g id="icon">
<g id="Group" filter="url(#filter0_d_8_1863)">
<path id="Ellipse 2543" d="M35 56.9131C46.598 56.9131 56 47.5111 56 35.9131C56 24.3151 46.598 14.9131 35 14.9131C23.402 14.9131 14 24.3151 14 35.9131C14 47.5111 23.402 56.9131 35 56.9131Z" fill="white"/>
</g>
<g id="Group 14619">
<g id="Group 2590">
<path id="Path 2666" d="M41.986 35.6551L38.35 30.9211C38.2967 30.8392 38.2238 30.7719 38.1379 30.7253C38.0519 30.6787 37.9557 30.6543 37.858 30.6543C37.7603 30.6543 37.6641 30.6787 37.5782 30.7253C37.4922 30.7719 37.4193 30.8392 37.366 30.9211C37.2333 31.1097 37.1621 31.3346 37.1621 31.5651C37.1621 31.7957 37.2333 32.0206 37.366 32.2091L39.807 35.3871H25.075C24.8748 35.4411 24.698 35.5595 24.5719 35.7241C24.4458 35.8887 24.3774 36.0903 24.3774 36.2976C24.3774 36.505 24.4458 36.7065 24.5719 36.8711C24.698 37.0357 24.8748 37.1542 25.075 37.2081H39.809L37.368 40.3861C37.2354 40.5745 37.1642 40.7993 37.1642 41.0296C37.1642 41.26 37.2354 41.4848 37.368 41.6731C37.4213 41.7551 37.4942 41.8224 37.5802 41.869C37.6661 41.9156 37.7623 41.94 37.86 41.94C37.9577 41.94 38.0539 41.9156 38.1399 41.869C38.2258 41.8224 38.2987 41.7551 38.352 41.6731L41.988 36.9391C42.1195 36.7508 42.1899 36.5265 42.1895 36.2968C42.1891 36.0671 42.1181 35.8431 41.986 35.6551Z" fill="#FF5A3C"/>
</g>
</g>
</g>
<defs>
<filter id="filter0_d_8_1863" x="0" y="0.913086" width="70" height="70" filterUnits="userSpaceOnUse" color-interpolation-filters="sRGB">
<feFlood flood-opacity="0" result="BackgroundImageFix"/>
<feColorMatrix in="SourceAlpha" type="matrix" values="0 0 0 0 0 0 0 0 0 0 0 0 0 0 0 0 0 0 127 0" result="hardAlpha"/>
<feOffset/>
<feGaussianBlur stdDeviation="7"/>
<feColorMatrix type="matrix" values="0 0 0 0 0.137255 0 0 0 0 0.184314 0 0 0 0 0.619608 0 0 0 0.11 0"/>
<feBlend mode="normal" in2="BackgroundImageFix" result="effect1_dropShadow_8_1863"/>
<feBlend mode="normal" in="SourceGraphic" in2="effect1_dropShadow_8_1863" result="shape"/>
</filter>
</defs>
</svg>
