<svg width="60" height="61" viewBox="0 0 60 61" fill="none" xmlns="http://www.w3.org/2000/svg">
<g id="arrow">
<g id="button">
<g id="Path 61203" opacity="0.31">
<path id="Vector" d="M30 59.1267C33.9154 59.1267 37.7132 58.3601 41.2878 56.8482C44.741 55.3876 47.8425 53.2964 50.5061 50.6328C53.1697 47.9692 55.2609 44.8677 56.7215 41.4145C58.2334 37.8399 59 34.0422 59 30.1268C59 26.2114 58.2334 22.4136 56.7215 18.839C55.2609 15.3858 53.1697 12.2843 50.5061 9.62072C47.8425 6.95709 44.741 4.86595 41.2878 3.40538C37.7132 1.89344 33.9154 1.12683 30 1.12683C26.0846 1.12683 22.2868 1.89344 18.7122 3.40538C15.259 4.86595 12.1575 6.95709 9.4939 9.62072C6.83027 12.2843 4.73912 15.3858 3.27855 18.839C1.76662 22.4136 1 26.2114 1 30.1268C1 34.0422 1.76662 37.8399 3.27855 41.4145C4.73912 44.8677 6.83027 47.9692 9.4939 50.6328C12.1575 53.2964 15.259 55.3876 18.7122 56.8482C22.2868 58.3601 26.0846 59.1267 30 59.1267ZM30 60.1267C13.4314 60.1267 0 46.6953 0 30.1268C0 13.5583 13.4314 0.126827 30 0.126827C46.5685 0.126827 60 13.5583 60 30.1268C60 46.6953 46.5685 60.1267 30 60.1267Z" fill="#FF5A3C"/>
</g>
<g id="Group 2591">
<g id="Group 2590">
<path id="Path 2666" d="M20.27 29.9967L24.454 35.0057C24.5201 35.0935 24.6056 35.1647 24.7039 35.2137C24.8022 35.2628 24.9106 35.2883 25.0205 35.2883C25.1304 35.2883 25.2387 35.2628 25.337 35.2137C25.4354 35.1647 25.5209 35.0935 25.587 35.0057C25.739 34.8112 25.8215 34.5715 25.8215 34.3247C25.8215 34.0779 25.739 33.8381 25.587 33.6437L22.778 30.2807H39.736C39.9604 30.2383 40.163 30.1189 40.3087 29.9431C40.4545 29.7673 40.5342 29.5461 40.5342 29.3177C40.5342 29.0893 40.4545 28.8681 40.3087 28.6922C40.163 28.5164 39.9604 28.397 39.736 28.3547H22.776L25.585 24.9867C25.737 24.7922 25.8195 24.5525 25.8195 24.3057C25.8195 24.0589 25.737 23.8191 25.585 23.6247C25.5189 23.5369 25.4334 23.4657 25.335 23.4166C25.2367 23.3675 25.1284 23.342 25.0185 23.342C24.9086 23.342 24.8002 23.3675 24.7019 23.4166C24.6036 23.4657 24.5181 23.5369 24.452 23.6247L20.268 28.6337C20.1162 28.8285 20.034 29.0685 20.0343 29.3155C20.0347 29.5625 20.1177 29.8023 20.27 29.9967Z" fill="#FF5A3C"/>
</g>
</g>
</g>
</g>
</svg>
