<svg width="12" height="12" viewBox="0 0 12 12" fill="none" xmlns="http://www.w3.org/2000/svg">
<path d="M1.2966 11.134H3.22517V9.20543H1.2966V11.134ZM3.65374 11.134H5.7966V9.20543H3.65374V11.134ZM1.2966 8.77686H3.22517V6.634H1.2966V8.77686ZM3.65374 8.77686H5.7966V6.634H3.65374V8.77686ZM1.2966 6.20543H3.22517V4.27686H1.2966V6.20543ZM6.22517 11.134H8.36803V9.20543H6.22517V11.134ZM3.65374 6.20543H5.7966V4.27686H3.65374V6.20543ZM8.7966 11.134H10.7252V9.20543H8.7966V11.134ZM6.22517 8.77686H8.36803V6.634H6.22517V8.77686ZM3.86802 2.99114V1.06257C3.86802 0.94873 3.76758 0.848284 3.65374 0.848284H3.22517C3.11133 0.848284 3.01088 0.94873 3.01088 1.06257V2.99114C3.01088 3.10498 3.11133 3.20543 3.22517 3.20543H3.65374C3.76758 3.20543 3.86802 3.10498 3.86802 2.99114ZM8.7966 8.77686H10.7252V6.634H8.7966V8.77686ZM6.22517 6.20543H8.36803V4.27686H6.22517V6.20543ZM8.7966 6.20543H10.7252V4.27686H8.7966V6.20543ZM9.01088 2.99114V1.06257C9.01088 0.94873 8.91044 0.848284 8.7966 0.848284H8.36803C8.25419 0.848284 8.15374 0.94873 8.15374 1.06257V2.99114C8.15374 3.10498 8.25419 3.20543 8.36803 3.20543H8.7966C8.91044 3.20543 9.01088 3.10498 9.01088 2.99114ZM11.5823 2.56257V11.134C11.5823 11.6027 11.1939 11.9911 10.7252 11.9911H1.2966C0.827846 11.9911 0.439453 11.6027 0.439453 11.134V2.56257C0.439453 2.09382 0.827846 1.70543 1.2966 1.70543H2.15374V1.06257C2.15374 0.473284 2.63588 -0.00885963 3.22517 -0.00885963H3.65374C4.24302 -0.00885963 4.72517 0.473284 4.72517 1.06257V1.70543H7.2966V1.06257C7.2966 0.473284 7.77874 -0.00885963 8.36803 -0.00885963H8.7966C9.38588 -0.00885963 9.86803 0.473284 9.86803 1.06257V1.70543H10.7252C11.1939 1.70543 11.5823 2.09382 11.5823 2.56257Z" fill="#FF5A3C"/>
</svg>
