<svg width="21" height="17" viewBox="0 0 21 17" fill="none" xmlns="http://www.w3.org/2000/svg">
<g id="Group 7441">
<g id="Group 7428">
<g id="Group 7427">
<path id="Path 61280" d="M5.49999 11.656L3.91399 10.05C3.76276 9.89544 3.58213 9.77273 3.38273 9.68909C3.18334 9.60545 2.96922 9.56258 2.75299 9.56299H1.65699C1.57196 9.56766 1.49195 9.60472 1.4334 9.66657C1.37486 9.72841 1.34223 9.81035 1.34223 9.89551C1.34223 9.98067 1.37486 10.0626 1.4334 10.1244C1.49195 10.1863 1.57196 10.2233 1.65699 10.228H2.75699C2.88719 10.2279 3.01612 10.2536 3.13629 10.3038C3.25645 10.3539 3.36546 10.4274 3.45699 10.52L4.48299 11.558H1.65699C1.56867 11.558 1.48397 11.5931 1.42152 11.6555C1.35907 11.718 1.32399 11.8027 1.32399 11.891C1.32399 11.9793 1.35907 12.064 1.42152 12.1265C1.48397 12.1889 1.56867 12.224 1.65699 12.224H5.26999C5.33475 12.2231 5.39779 12.2031 5.45118 12.1664C5.50457 12.1298 5.54591 12.0781 5.56999 12.018C5.59514 11.9575 5.60191 11.8908 5.58947 11.8264C5.57702 11.7621 5.5459 11.7028 5.49999 11.656Z" fill="#0A2C3D"/>
</g>
</g>
<g id="Group 7430">
<g id="Group 7429">
<path id="Path 61281" d="M5.26999 14.3109C5.18238 14.3115 5.09855 14.3467 5.03688 14.409C4.97521 14.4712 4.94073 14.5553 4.94099 14.6429V15.6429C4.94153 15.7306 4.9073 15.8148 4.84582 15.8773C4.78433 15.9397 4.70061 15.9752 4.61299 15.976H2.64199C2.55438 15.9752 2.47066 15.9397 2.40917 15.8773C2.34769 15.8148 2.31346 15.7306 2.31399 15.6429V14.313C2.31646 14.2683 2.30979 14.2236 2.2944 14.1816C2.279 14.1396 2.2552 14.1012 2.22446 14.0687C2.19371 14.0362 2.15666 14.0103 2.11557 13.9926C2.07449 13.975 2.03023 13.9658 1.98549 13.9658C1.94076 13.9658 1.8965 13.975 1.85541 13.9926C1.81433 14.0103 1.77728 14.0362 1.74653 14.0687C1.71579 14.1012 1.69199 14.1396 1.67659 14.1816C1.6612 14.2236 1.65453 14.2683 1.65699 14.313V15.6429C1.65513 15.9061 1.75783 16.1593 1.94253 16.3468C2.12722 16.5343 2.37881 16.6408 2.64199 16.6429H4.61299C4.87618 16.6408 5.12777 16.5343 5.31246 16.3468C5.49716 16.1593 5.59986 15.9061 5.59799 15.6429V14.6429C5.59826 14.5996 5.58998 14.5566 5.57364 14.5165C5.5573 14.4764 5.53321 14.4399 5.50276 14.409C5.4723 14.3782 5.43607 14.3537 5.39613 14.3369C5.35619 14.32 5.31333 14.3112 5.26999 14.3109Z" fill="#0A2C3D"/>
</g>
</g>
<g id="Group 7432">
<g id="Group 7431">
<path id="Path 61282" d="M18.86 8.69388C17.728 8.21388 15.186 7.9939 10.86 7.9939C6.534 7.9939 3.996 8.21688 2.86 8.69388C2.26529 8.90945 1.75947 9.3172 1.42258 9.8526C1.0857 10.388 0.936989 11.0205 0.999997 11.6499C1.00941 12.5809 1.15254 13.5057 1.425 14.3959C1.45706 14.474 1.51303 14.54 1.58488 14.5844C1.65673 14.6287 1.74079 14.6492 1.825 14.6429H5.425L6.982 15.2729C7.04071 15.2969 7.10357 15.3091 7.167 15.3089H14.567C14.6301 15.3092 14.6926 15.2969 14.751 15.2729L16.309 14.6429H19.909C19.9932 14.6492 20.0773 14.6287 20.1491 14.5844C20.221 14.54 20.2769 14.474 20.309 14.3959C20.5815 13.5057 20.7246 12.5809 20.734 11.6499C20.7961 11.0188 20.6454 10.385 20.3058 9.84933C19.9662 9.31371 19.4573 8.90699 18.86 8.69388ZM19.579 13.9779H16.206C16.143 13.9776 16.0805 13.9894 16.022 14.0129L14.464 14.6429H7.264L5.707 14.0129C5.64842 13.9897 5.58599 13.9779 5.523 13.9779H2.147C1.94161 13.2186 1.83242 12.4364 1.822 11.6499C1.75474 11.1524 1.85905 10.6468 2.11774 10.2165C2.37642 9.78617 2.77403 9.45687 3.245 9.2829C4.23 8.8669 6.792 8.65588 10.862 8.65588C14.932 8.65588 17.496 8.8669 18.481 9.2829C18.952 9.45687 19.3496 9.78617 19.6083 10.2165C19.8669 10.6468 19.9713 11.1524 19.904 11.6499C19.8928 12.4364 19.7836 13.2184 19.579 13.9779Z" fill="#0A2C3D"/>
</g>
</g>
<g id="Group 7434">
<g id="Group 7433">
<path id="Path 61283" d="M20.068 11.558H17.248L18.273 10.52C18.3646 10.4275 18.4736 10.354 18.5938 10.3039C18.7139 10.2538 18.8428 10.228 18.973 10.228H20.073C20.158 10.2233 20.238 10.1863 20.2966 10.1244C20.3551 10.0626 20.3878 9.98067 20.3878 9.89551C20.3878 9.81035 20.3551 9.72841 20.2966 9.66657C20.238 9.60472 20.158 9.56766 20.073 9.56299H18.973C18.7566 9.56267 18.5424 9.60558 18.3428 9.68921C18.1433 9.77284 17.9625 9.8955 17.811 10.05L16.226 11.656C16.1799 11.7027 16.1486 11.7619 16.136 11.8263C16.1234 11.8907 16.13 11.9574 16.155 12.018C16.179 12.0782 16.2203 12.1299 16.2737 12.1666C16.3271 12.2033 16.3902 12.2232 16.455 12.224H20.068C20.1563 12.224 20.241 12.1889 20.3035 12.1265C20.3659 12.064 20.401 11.9793 20.401 11.891C20.401 11.8027 20.3659 11.718 20.3035 11.6555C20.241 11.5931 20.1563 11.558 20.068 11.558Z" fill="#0A2C3D"/>
</g>
</g>
<g id="Group 7436">
<g id="Group 7435">
<path id="Path 61284" d="M14.773 9.754C14.7465 9.69676 14.7042 9.64834 14.651 9.61447C14.5978 9.58061 14.536 9.56273 14.473 9.56299H7.24999C7.18694 9.56273 7.12515 9.58061 7.07196 9.61447C7.01878 9.64834 6.97644 9.69676 6.94999 9.754C6.92337 9.81125 6.91347 9.87487 6.92144 9.9375C6.9294 10.0001 6.9549 10.0592 6.99499 10.108L8.63799 12.108C8.6685 12.1454 8.70692 12.1756 8.7505 12.1963C8.79408 12.2171 8.84173 12.2279 8.88999 12.228H12.833C12.8813 12.2279 12.9289 12.2171 12.9725 12.1963C13.0161 12.1756 13.0545 12.1454 13.085 12.108L14.727 10.108C14.7675 10.0594 14.7933 10.0004 14.8014 9.93769C14.8096 9.875 14.7997 9.81129 14.773 9.754ZM12.679 11.554H9.04599L7.951 10.224H13.774L12.679 11.554Z" fill="#0A2C3D"/>
</g>
</g>
<g id="Group 7438">
<g id="Group 7437">
<path id="Path 61285" d="M19.376 8.56287C18.889 7.16287 17.262 2.53687 16.696 1.93387C15.991 1.18087 13.971 0.733887 11.29 0.733887H10.435C7.75399 0.733887 5.73499 1.18187 5.02899 1.93387C4.46299 2.53387 2.83499 7.15987 2.34899 8.56387C2.30314 8.68856 2.29996 8.82492 2.33996 8.9516C2.37995 9.07828 2.46086 9.18814 2.56999 9.26389C2.62454 9.29002 2.6843 9.30342 2.74478 9.30313C2.80527 9.30284 2.8649 9.28884 2.91919 9.26218C2.97348 9.23551 3.02101 9.19689 3.05822 9.1492C3.09543 9.10151 3.12133 9.04602 3.13399 8.98688C3.81066 6.85538 4.62881 4.77141 5.58299 2.74887C5.91199 2.39787 7.30499 1.80286 10.435 1.80286H11.29C14.42 1.80286 15.813 2.39788 16.141 2.74588C17.0956 4.76986 17.9144 6.85514 18.592 8.98788C18.6156 9.0759 18.6663 9.15428 18.7367 9.21204C18.8072 9.26979 18.8941 9.30401 18.985 9.30988C19.0442 9.30999 19.1024 9.29483 19.154 9.26587C19.2639 9.1901 19.3455 9.07982 19.3857 8.95248C19.4259 8.82515 19.4225 8.68804 19.376 8.56287Z" fill="#0A2C3D"/>
</g>
</g>
<g id="Group 7440">
<g id="Group 7439">
<path id="Path 61286" d="M19.741 13.9778C19.6975 13.978 19.6545 13.9868 19.6145 14.0037C19.5744 14.0206 19.5381 14.0452 19.5075 14.0761C19.477 14.1071 19.4528 14.1437 19.4364 14.184C19.42 14.2242 19.4117 14.2673 19.412 14.3108V15.6408C19.4125 15.7284 19.3783 15.8126 19.3168 15.8751C19.2553 15.9375 19.1716 15.973 19.084 15.9738H17.113C17.0254 15.973 16.9417 15.9375 16.8802 15.8751C16.8187 15.8126 16.7845 15.7284 16.785 15.6408V14.6408C16.7875 14.5961 16.7808 14.5514 16.7654 14.5094C16.75 14.4674 16.7262 14.429 16.6955 14.3965C16.6647 14.364 16.6277 14.3381 16.5866 14.3204C16.5455 14.3027 16.5012 14.2936 16.4565 14.2936C16.4118 14.2936 16.3675 14.3027 16.3264 14.3204C16.2853 14.3381 16.2483 14.364 16.2175 14.3965C16.1868 14.429 16.163 14.4674 16.1476 14.5094C16.1322 14.5514 16.1255 14.5961 16.128 14.6408V15.6408C16.1261 15.904 16.2288 16.1571 16.4135 16.3446C16.5982 16.5321 16.8498 16.6387 17.113 16.6408H19.084C19.3472 16.6387 19.5988 16.5321 19.7835 16.3446C19.9682 16.1571 20.0709 15.904 20.069 15.6408V14.3108C20.0695 14.2231 20.0353 14.1389 19.9738 14.0765C19.9123 14.0141 19.8286 13.9786 19.741 13.9778Z" fill="#0A2C3D"/>
</g>
</g>
</g>
</svg>
