<svg width="70" height="71" viewBox="0 0 70 71" fill="none" xmlns="http://www.w3.org/2000/svg">
<g id="icon">
<path id="Path 56796" d="M35 0.214844C41.9223 0.214844 48.6892 2.26756 54.445 6.11341C60.2007 9.95926 64.6867 15.4255 67.3358 21.8209C69.9849 28.2163 70.678 35.2537 69.3275 42.043C67.977 48.8323 64.6436 55.0687 59.7487 59.9636C54.8539 64.8584 48.6175 68.1918 41.8282 69.5423C35.0388 70.8928 28.0015 70.1997 21.6061 67.5506C15.2107 64.9016 9.74441 60.4155 5.89856 54.6598C2.05271 48.9041 0 42.1372 0 35.2148C0 25.9323 3.68749 17.0299 10.2513 10.4661C16.815 3.90233 25.7174 0.214844 35 0.214844Z" fill="#FF5A3C"/>
<path id="Path 57208" d="M32.0215 46.4439V49.2959L31.3465 48.7389C29.5116 47.1763 27.8033 45.471 26.2375 43.6389C22.7625 39.5689 21.0005 35.9129 21.0005 32.7759V32.4619C20.9738 29.5097 22.1191 26.6674 24.1851 24.5584C26.2512 22.4494 29.0693 21.246 32.0215 21.2119C34.9738 21.2457 37.7922 22.4491 39.8584 24.5581C41.9247 26.6671 43.0701 29.5095 43.0435 32.4619V32.7729C43.0435 33.0359 43.0295 33.3039 43.0045 33.5729L40.8495 31.5659C40.6526 29.3529 39.64 27.2922 38.0085 25.7841C36.377 24.2761 34.2431 23.4284 32.0215 23.4059C29.6455 23.4331 27.3773 24.4016 25.7144 26.0989C24.0516 27.7963 23.1299 30.0839 23.1515 32.4599V32.7709C23.1515 38.0769 29.8425 44.4949 32.0215 46.4439ZM38.6345 44.8669H41.8605V41.5739H38.6345V44.8669ZM32.0215 27.8009C32.9481 27.7819 33.8595 28.0392 34.6392 28.5403C35.419 29.0413 36.0319 29.7633 36.3996 30.6141C36.7673 31.4649 36.8733 32.4059 36.7039 33.3172C36.5346 34.2285 36.0977 35.0686 35.4488 35.7305C34.8 36.3924 33.9687 36.846 33.061 37.0335C32.1533 37.221 31.2103 37.1338 30.3523 36.7831C29.4944 36.4324 28.7603 35.8341 28.2439 35.0645C27.7274 34.2948 27.4519 33.3888 27.4525 32.4619C27.4423 31.2386 27.9175 30.0611 28.7739 29.1874C29.6303 28.3138 30.7981 27.8152 32.0215 27.8009ZM32.0215 29.9959C31.5309 29.986 31.0485 30.1224 30.6357 30.3877C30.223 30.6531 29.8986 31.0353 29.704 31.4857C29.5094 31.9362 29.4534 32.4344 29.543 32.9168C29.6327 33.3992 29.864 33.844 30.2075 34.1944C30.5509 34.5448 30.991 34.785 31.4715 34.8843C31.952 34.9836 32.4512 34.9376 32.9055 34.752C33.3597 34.5665 33.7484 34.2498 34.0219 33.8425C34.2955 33.4352 34.4416 32.9556 34.4415 32.4649C34.4473 31.8168 34.1958 31.1928 33.7421 30.7299C33.2884 30.267 32.6696 30.003 32.0215 29.9959ZM47.1455 43.3749L46.5455 42.8119V46.3359C46.5524 47.1168 46.2494 47.8685 45.703 48.4264C45.1566 48.9842 44.4113 49.3027 43.6305 49.3119H36.8165C36.0355 49.3029 35.2899 48.9846 34.7432 48.4267C34.1966 47.8688 33.8935 47.1169 33.9005 46.3359V42.8119L33.3005 43.3749L31.8515 41.7539L40.2245 33.9539L48.5985 41.7539L47.1455 43.3749ZM44.3905 40.8099L40.2205 36.9279L36.0515 40.8099V46.3359C36.0496 46.5408 36.1291 46.7382 36.2725 46.8846C36.4159 47.031 36.6115 47.1145 36.8165 47.1169H43.6255C43.8304 47.1145 44.026 47.031 44.1694 46.8846C44.3128 46.7382 44.3923 46.5408 44.3905 46.3359V40.8099Z" fill="white"/>
</g>
</svg>
