<svg width="70" height="71" viewBox="0 0 70 71" fill="none" xmlns="http://www.w3.org/2000/svg">
<g id="icon">
<path id="Path 56796" d="M35 0.214844C41.9223 0.214844 48.6892 2.26756 54.445 6.11341C60.2007 9.95926 64.6867 15.4255 67.3358 21.8209C69.9849 28.2163 70.678 35.2537 69.3275 42.043C67.977 48.8323 64.6436 55.0687 59.7487 59.9636C54.8539 64.8584 48.6175 68.1918 41.8282 69.5423C35.0388 70.8928 28.0015 70.1997 21.6061 67.5506C15.2107 64.9016 9.74441 60.4155 5.89856 54.6598C2.05271 48.9041 0 42.1372 0 35.2148C0 25.9323 3.68749 17.0299 10.2513 10.4661C16.815 3.90233 25.7174 0.214844 35 0.214844Z" fill="#FF5A3C"/>
<g id="Group 4889">
<g id="Group 4882">
<g id="Group 4881">
<path id="Path 57203" d="M49.5997 43.7068L47.9317 38.8138C48.7391 37.1446 49.1602 35.315 49.1637 33.4608C49.1749 30.254 47.9238 27.1716 45.6807 24.8798C44.5649 23.7276 43.2302 22.8098 41.7549 22.1805C40.2795 21.5512 38.6933 21.2231 37.0894 21.2152C35.4855 21.2074 33.8961 21.5201 32.4147 22.135C30.9333 22.7498 29.5897 23.6545 28.4627 24.7958C26.2152 27.0515 24.9405 30.0977 24.9117 33.2818C23.2792 34.5239 22.1223 36.2885 21.6342 38.2809C21.1461 40.2732 21.3563 42.3728 22.2297 44.2288L21.0817 47.5988C20.9842 47.8802 20.9677 48.1834 21.0342 48.4737C21.1007 48.7641 21.2475 49.0299 21.4577 49.2408C21.665 49.4522 21.9282 49.6002 22.2165 49.6673C22.5049 49.7344 22.8064 49.7179 23.0857 49.6198L26.4287 48.4618C27.6082 49.0255 28.8985 49.3192 30.2057 49.3218H30.2197C31.6137 49.3208 32.9876 48.9886 34.228 48.3527C35.4685 47.7167 36.5402 46.7951 37.3547 45.6638C39.0942 45.6172 40.8032 45.1957 42.3647 44.4278L47.2177 46.1088C47.5514 46.2215 47.91 46.2384 48.2527 46.1575C48.5955 46.0766 48.9087 45.9013 49.1568 45.6513C49.4049 45.4013 49.5779 45.0868 49.6562 44.7434C49.7345 44.4001 49.7149 44.0416 49.5997 43.7088V43.7068ZM30.2197 47.5988H30.2137C29.0563 47.5968 27.9169 47.3119 26.8947 46.7688C26.7917 46.7136 26.6784 46.6803 26.5619 46.671C26.4454 46.6617 26.3282 46.6766 26.2177 46.7148L22.7897 47.9028L23.9677 44.4468C24.0059 44.3353 24.0208 44.2173 24.0117 44.0998C24.0026 43.9824 23.9696 43.8681 23.9147 43.7638C23.2157 42.4278 22.9518 40.9066 23.1599 39.4132C23.3681 37.9197 24.0379 36.5287 25.0757 35.4348C25.4914 37.9872 26.7081 40.3413 28.5497 42.1568C30.3591 43.9621 32.6964 45.1442 35.2227 45.5318C33.8962 46.8556 32.0987 47.5989 30.2247 47.5988H30.2197ZM47.9437 44.4388C47.9228 44.4622 47.8951 44.4786 47.8645 44.4858C47.8339 44.493 47.8019 44.4905 47.7727 44.4788L42.5777 42.6788C42.4882 42.6482 42.3943 42.6326 42.2997 42.6328C42.1601 42.6324 42.0227 42.6668 41.8997 42.7328C40.407 43.526 38.7431 43.9424 37.0527 43.9458H37.0367C34.9681 43.9256 32.9513 43.296 31.2385 42.1359C29.5257 40.9757 28.1929 39.3363 27.4068 37.4228C26.6206 35.5092 26.416 33.4064 26.8185 31.3772C27.221 29.348 28.2127 27.4824 29.6697 26.0138C30.6511 25.0162 31.8254 24.2291 33.1211 23.7004C34.4168 23.1717 35.8066 22.9125 37.2057 22.9388C38.9928 22.9855 40.7385 23.4868 42.2782 24.3952C43.8178 25.3037 45.1007 26.5894 46.0057 28.1311C46.9107 29.6728 47.408 31.4197 47.4507 33.2069C47.4934 34.9941 47.08 36.7627 46.2497 38.3458C46.1952 38.4502 46.1625 38.5646 46.1536 38.682C46.1446 38.7994 46.1597 38.9174 46.1977 39.0288L47.9827 44.2668C47.9947 44.2956 47.9978 44.3274 47.9918 44.358C47.9857 44.3886 47.9707 44.4167 47.9487 44.4388H47.9437Z" fill="white"/>
</g>
</g>
<g id="Group 4884">
<g id="Group 4883">
<path id="Path 57204" d="M42.1318 28.8757H31.9518C31.7284 28.8833 31.5167 28.9775 31.3613 29.1382C31.206 29.2989 31.1191 29.5137 31.1191 29.7372C31.1191 29.9607 31.206 30.1755 31.3613 30.3363C31.5167 30.497 31.7284 30.5911 31.9518 30.5987H42.1318C42.3552 30.5911 42.5669 30.497 42.7222 30.3363C42.8776 30.1755 42.9644 29.9607 42.9644 29.7372C42.9644 29.5137 42.8776 29.2989 42.7222 29.1382C42.5669 28.9775 42.3552 28.8833 42.1318 28.8757Z" fill="white"/>
</g>
</g>
<g id="Group 4886">
<g id="Group 4885">
<path id="Path 57205" d="M42.1318 32.4199H31.9518C31.7284 32.4275 31.5167 32.5216 31.3613 32.6823C31.206 32.8431 31.1191 33.0579 31.1191 33.2814C31.1191 33.5049 31.206 33.7197 31.3613 33.8805C31.5167 34.0412 31.7284 34.1353 31.9518 34.1429H42.1318C42.3552 34.1353 42.5669 34.0412 42.7222 33.8805C42.8776 33.7197 42.9644 33.5049 42.9644 33.2814C42.9644 33.0579 42.8776 32.8431 42.7222 32.6823C42.5669 32.5216 42.3552 32.4275 42.1318 32.4199Z" fill="white"/>
</g>
</g>
<g id="Group 4888">
<g id="Group 4887">
<path id="Path 57206" d="M38.2138 35.9619H31.9518C31.7284 35.9695 31.5167 36.0636 31.3613 36.2244C31.206 36.3851 31.1191 36.5999 31.1191 36.8234C31.1191 37.0469 31.206 37.2617 31.3613 37.4225C31.5167 37.5832 31.7284 37.6773 31.9518 37.6849H38.2138C38.4372 37.6773 38.6489 37.5832 38.8042 37.4225C38.9596 37.2617 39.0464 37.0469 39.0464 36.8234C39.0464 36.5999 38.9596 36.3851 38.8042 36.2244C38.6489 36.0636 38.4372 35.9695 38.2138 35.9619Z" fill="white"/>
</g>
</g>
</g>
</g>
</svg>
