<svg width="70" height="71" viewBox="0 0 70 71" fill="none" xmlns="http://www.w3.org/2000/svg">
<g id="icon">
<path id="Path 56796" d="M35 0.214844C41.9223 0.214844 48.6892 2.26756 54.445 6.11341C60.2007 9.95926 64.6867 15.4255 67.3358 21.8209C69.9849 28.2163 70.678 35.2537 69.3275 42.043C67.977 48.8323 64.6436 55.0687 59.7487 59.9636C54.8539 64.8584 48.6175 68.1918 41.8282 69.5423C35.0388 70.8928 28.0015 70.1997 21.6061 67.5506C15.2107 64.9016 9.74441 60.4155 5.89856 54.6598C2.05271 48.9041 0 42.1372 0 35.2148C0 25.9323 3.68749 17.0299 10.2513 10.4661C16.815 3.90233 25.7174 0.214844 35 0.214844Z" fill="#FF5A3C"/>
<g id="Group 4071">
<g id="Group 4070">
<path id="Path 56806" d="M32.7617 23.2148V38.1729L36.2097 35.4898H37.7817C38.4107 36.4593 39.3371 37.1988 40.4219 37.5974C41.5066 37.9959 42.6914 38.0321 43.7985 37.7004C44.9055 37.3688 45.8753 36.6872 46.5622 35.7578C47.2492 34.8285 47.6164 33.7015 47.6087 32.5458V23.2148H32.7617ZM42.2617 36.4749C41.4835 36.479 40.7216 36.252 40.0725 35.8227C39.4235 35.3934 38.9165 34.781 38.6158 34.0632C38.3152 33.3454 38.2344 32.5545 38.3838 31.7907C38.5331 31.027 38.9058 30.3248 39.4547 29.7731C40.0036 29.2214 40.7039 28.8451 41.4669 28.6918C42.2298 28.5386 43.0211 28.6153 43.7405 28.9123C44.4598 29.2093 45.0747 29.7132 45.5074 30.36C45.94 31.0069 46.1709 31.7676 46.1707 32.5458C46.1723 33.5856 45.7611 34.5835 45.0274 35.3202C44.2936 36.0569 43.2975 36.4722 42.2577 36.4749H42.2617ZM42.2617 27.1668C41.4303 27.1721 40.6113 27.3698 39.869 27.7445C39.1268 28.1192 38.4814 28.6607 37.9834 29.3266C37.4854 29.9924 37.1484 30.7646 36.9987 31.5825C36.849 32.4004 36.8908 33.2418 37.1207 34.0409H35.7207L34.1997 35.2179V24.6649H46.1667V28.8769C45.6684 28.3376 45.0638 27.9073 44.3911 27.613C43.7184 27.3187 42.992 27.1668 42.2577 27.1668H42.2617Z" fill="white"/>
<path id="Path 56807" d="M41.4868 32.5798L40.6948 31.7798L39.6758 32.8048L41.4868 34.6258L44.4728 31.6258L43.4538 30.6008L41.4868 32.5798Z" fill="white"/>
</g>
<path id="Path 56808" d="M34.039 42.7759H32.575C31.4002 42.7714 30.275 42.3012 29.4464 41.4683C28.6178 40.6354 28.1534 39.5078 28.155 38.3329V36.8529H31.11V29.3049H26.61C25.6517 29.3071 24.7333 29.6893 24.0565 30.3678C23.3797 31.0463 22.9997 31.9656 23 32.924V37.9869C22.9963 40.6222 24.0379 43.1514 25.8965 45.0197C27.755 46.888 30.2787 47.9429 32.914 47.9529H37.463C38.4213 47.9492 39.3389 47.5656 40.0147 46.8863C40.6906 46.2069 41.0693 45.2872 41.068 44.3289V39.7979H34.039V42.7759ZM29.668 35.3999H28.155V30.7529H29.668V35.403V35.3999ZM39.626 41.2469V42.7759H35.481V41.2469H39.626ZM39.626 44.2249V44.325C39.6268 44.9 39.3996 45.4518 38.9941 45.8595C38.5886 46.2672 38.038 46.4976 37.463 46.4999H32.914C30.6616 46.4925 28.5042 45.5914 26.9157 43.9944C25.3272 42.3975 24.4375 40.2354 24.442 37.9829V32.92C24.4431 32.3462 24.6712 31.7963 25.0765 31.3902C25.4818 30.9842 26.0313 30.755 26.605 30.7529H26.713V38.3359C26.7109 39.8941 27.3268 41.3894 28.4258 42.494C29.5247 43.5985 31.0169 44.2221 32.575 44.2279L39.626 44.2249Z" fill="white"/>
</g>
</g>
</svg>
