<svg width="153" height="151" viewBox="0 0 153 151" fill="none" xmlns="http://www.w3.org/2000/svg">
<g id="dot_shapes" opacity="0.61">
<g id="Group 4237">
<g id="Group 4214">
<g id="Group 4164">
<g id="Group 4159">
<g id="Group 4158">
<path id="Path 56854" d="M2.62596 6.11782C2.28013 6.11608 1.9381 6.0457 1.61967 5.91078C1.30124 5.77586 1.01275 5.57907 0.770947 5.33182C0.283307 4.83314 0.0120386 4.16227 0.0159724 3.46482C0.0155176 2.76755 0.287915 2.09779 0.774945 1.59882C1.27509 1.12287 1.93857 0.856606 2.62898 0.854746C3.31938 0.852886 3.98425 1.11557 4.48695 1.58882C4.97294 2.09406 5.24612 2.76679 5.24995 3.46782C5.2486 4.16491 4.97478 4.83385 4.48695 5.33182C4.2452 5.58078 3.9559 5.77864 3.63621 5.91366C3.31653 6.04868 2.97298 6.11811 2.62596 6.11782Z" fill="#FF5A3C"/>
</g>
</g>
<g id="Group 4161">
<g id="Group 4160">
<path id="Path 56855" d="M133.613 3.46789C133.612 3.1216 133.678 2.77841 133.809 2.45792C133.941 2.13743 134.134 1.84592 134.378 1.60003C134.621 1.35414 134.911 1.15868 135.231 1.02483C135.55 0.890972 135.893 0.821336 136.239 0.819894C136.586 0.820148 136.929 0.888975 137.249 1.02241C137.569 1.15585 137.859 1.35126 138.103 1.59738C138.347 1.84351 138.54 2.1355 138.671 2.45652C138.802 2.77755 138.868 3.12127 138.865 3.46789C138.867 4.16722 138.592 4.83886 138.1 5.3356C137.607 5.83234 136.938 6.11366 136.239 6.11789C135.54 6.11183 134.872 5.82992 134.38 5.33358C133.888 4.83724 133.613 4.16666 133.613 3.46789ZM120.255 3.46789C120.253 3.12178 120.32 2.77871 120.451 2.4583C120.582 2.13789 120.774 1.8464 121.018 1.6005C121.261 1.3546 121.551 1.15909 121.87 1.02515C122.189 0.891214 122.532 0.821466 122.878 0.819894C123.225 0.81975 123.568 0.888298 123.888 1.02158C124.208 1.15487 124.499 1.35024 124.743 1.59644C124.988 1.84263 125.181 2.13477 125.311 2.45598C125.442 2.77719 125.508 3.12111 125.505 3.46789C125.508 4.16763 125.233 4.83988 124.74 5.33683C124.248 5.83377 123.578 6.11472 122.878 6.11789C122.18 6.11156 121.512 5.82948 121.021 5.33311C120.529 4.83673 120.254 4.1663 120.255 3.46789ZM106.895 3.46789C106.892 3.1214 106.958 2.77778 107.089 2.45683C107.219 2.13588 107.412 1.84393 107.656 1.5978C107.9 1.35167 108.19 1.15622 108.51 1.02272C108.829 0.88921 109.172 0.820279 109.519 0.819894C109.865 0.820942 110.208 0.890309 110.528 1.02403C110.847 1.15774 111.137 1.35318 111.381 1.59915C111.625 1.84512 111.818 2.13679 111.949 2.45745C112.08 2.77812 112.147 3.12149 112.145 3.46789C112.146 4.1669 111.87 4.83793 111.378 5.33444C110.886 5.83096 110.218 6.11261 109.519 6.11789C109.173 6.11619 108.83 6.0463 108.511 5.9122C108.192 5.7781 107.902 5.58243 107.658 5.33635C107.414 5.09028 107.222 4.79862 107.091 4.47803C106.96 4.15743 106.893 3.81419 106.895 3.46789ZM93.537 3.46789C93.5342 3.1214 93.6 2.77778 93.7306 2.45683C93.8612 2.13588 94.054 1.84393 94.2979 1.5978C94.5418 1.35167 94.8319 1.15622 95.1517 1.02272C95.4714 0.88921 95.8145 0.820279 96.161 0.819894C96.5073 0.821073 96.85 0.890537 97.1694 1.02431C97.4889 1.15809 97.7788 1.35355 98.0226 1.5995C98.2664 1.84546 98.4594 2.13708 98.5903 2.45768C98.7213 2.77829 98.7878 3.12157 98.786 3.46789C98.7868 4.16648 98.5114 4.83706 98.0199 5.33346C97.5284 5.82986 96.8605 6.11182 96.162 6.11789C95.4626 6.11419 94.7933 5.83301 94.3011 5.33612C93.8089 4.83923 93.534 4.16729 93.537 3.46789ZM80.179 3.46789C80.1757 3.12193 80.2408 2.77873 80.3707 2.45806C80.5006 2.13739 80.6927 1.84558 80.9359 1.59945C81.179 1.35332 81.4685 1.15773 81.7875 1.02394C82.1066 0.890149 82.449 0.820802 82.795 0.819894C83.142 0.820155 83.4856 0.88892 83.806 1.02225C84.1264 1.15557 84.4174 1.35084 84.6622 1.59685C84.907 1.84286 85.1008 2.13477 85.2326 2.45584C85.3643 2.77692 85.4314 3.12084 85.4299 3.46789C85.4305 4.16829 85.1535 4.84037 84.6597 5.33702C84.1658 5.83368 83.4954 6.11446 82.795 6.11789C82.097 6.11234 81.4297 5.83029 80.9393 5.33354C80.4489 4.8368 80.1755 4.1659 80.179 3.46789ZM66.809 3.46789C66.8067 3.12155 66.8729 2.77817 67.0037 2.45745C67.1345 2.13674 67.3273 1.845 67.5711 1.59898C67.8149 1.35295 68.1048 1.15749 68.4243 1.02379C68.7438 0.890101 69.0866 0.820809 69.433 0.819894C69.7796 0.820013 70.1227 0.888763 70.4426 1.02218C70.7624 1.15559 71.0527 1.35103 71.2966 1.59721C71.5406 1.84339 71.7334 2.13544 71.8639 2.45652C71.9944 2.77759 72.06 3.12133 72.057 3.46789C72.0602 4.16737 71.7854 4.83947 71.2932 5.33641C70.8009 5.83336 70.1314 6.11445 69.432 6.11789C68.7335 6.11182 68.0658 5.82982 67.5744 5.33339C67.083 4.83697 66.8079 4.16638 66.809 3.46789ZM53.451 3.46789C53.4487 3.1218 53.5148 2.77866 53.6454 2.45814C53.776 2.13762 53.9685 1.84602 54.212 1.60004C54.4555 1.35405 54.7451 1.15853 55.0643 1.02466C55.3834 0.890785 55.7259 0.821203 56.072 0.819894C56.4187 0.819478 56.762 0.88787 57.082 1.02111C57.4021 1.15434 57.6925 1.34978 57.9365 1.59608C58.1805 1.84238 58.3731 2.13466 58.5033 2.45597C58.6335 2.77728 58.6987 3.12123 58.695 3.46789C58.6968 3.81417 58.6303 4.15741 58.4993 4.47795C58.3684 4.7985 58.1754 5.09006 57.9316 5.33593C57.6877 5.58181 57.3978 5.77717 57.0784 5.91084C56.7589 6.04451 56.4162 6.11385 56.07 6.11489C55.372 6.11014 54.7044 5.82884 54.2134 5.33266C53.7225 4.83648 53.4483 4.16589 53.451 3.46789ZM40.093 3.46789C40.0909 3.1215 40.1572 2.7781 40.288 2.45737C40.4189 2.13665 40.6118 1.84492 40.8557 1.59892C41.0996 1.35291 41.3896 1.15746 41.7092 1.02378C42.0288 0.890094 42.3716 0.820809 42.718 0.819894C43.0641 0.821466 43.4065 0.891214 43.7257 1.02515C44.0448 1.15909 44.3345 1.3546 44.5781 1.6005C44.8216 1.8464 45.0144 2.13789 45.1453 2.4583C45.2762 2.77871 45.3427 3.12178 45.341 3.46789C45.341 4.16607 45.0655 4.83604 44.5744 5.33225C44.0832 5.82845 43.4161 6.11078 42.718 6.11789C42.0194 6.11209 41.3515 5.83017 40.8601 5.33368C40.3687 4.8372 40.0936 4.16646 40.095 3.46789H40.093ZM26.73 3.46789C26.7273 3.12113 26.7933 2.77726 26.924 2.45607C27.0547 2.13487 27.2476 1.84269 27.4917 1.59633C27.7357 1.34996 28.0261 1.15427 28.346 1.0205C28.666 0.886739 29.0092 0.817544 29.356 0.816895C30.055 0.820862 30.724 1.10182 31.2162 1.59819C31.7084 2.09456 31.9838 2.76584 31.982 3.46489C31.983 4.16418 31.7076 4.83552 31.2157 5.33252C30.7237 5.82951 30.0552 6.11182 29.356 6.11789C28.6566 6.11393 27.9873 5.83269 27.495 5.33589C27.0027 4.83909 26.7276 4.1673 26.73 3.46789ZM13.374 3.46789C13.3708 3.12154 13.4362 2.77799 13.5665 2.45706C13.6967 2.13612 13.8893 1.84415 14.1329 1.59798C14.3766 1.35181 14.6666 1.15631 14.9862 1.02277C15.3057 0.889227 15.6486 0.820276 15.995 0.819894C16.3413 0.820809 16.6841 0.890101 17.0036 1.02379C17.3231 1.15749 17.6131 1.35295 17.8569 1.59898C18.1007 1.845 18.2935 2.13674 18.4242 2.45745C18.555 2.77817 18.6212 3.12155 18.619 3.46789C18.6211 4.16687 18.3461 4.83821 17.8543 5.3349C17.3625 5.83158 16.6939 6.11314 15.995 6.11789C15.2961 6.11366 14.6275 5.83218 14.1361 5.3353C13.6446 4.83841 13.3705 4.16676 13.374 3.46789Z" fill="#FF5A3C"/>
</g>
</g>
<g id="Group 4163">
<g id="Group 4162">
<path id="Path 56856" d="M149.595 6.11479C149.25 6.11507 148.908 6.04629 148.59 5.9125C148.272 5.77871 147.984 5.58262 147.743 5.33579C147.253 4.83688 146.975 4.1672 146.969 3.46779C146.976 2.76815 147.253 2.09829 147.743 1.59879C148.243 1.12226 148.907 0.85563 149.598 0.85377C150.289 0.851909 150.954 1.11496 151.457 1.58879C151.946 2.09308 152.222 2.7656 152.23 3.46779C152.224 4.16678 151.948 4.8364 151.459 5.33579C151.216 5.58398 150.926 5.78085 150.606 5.91468C150.286 6.04851 149.942 6.11656 149.595 6.11479Z" fill="#FF5A3C"/>
</g>
</g>
</g>
<g id="Group 4171">
<g id="Group 4166">
<g id="Group 4165">
<path id="Path 56857" d="M2.62599 20.699C2.10614 20.6874 1.60099 20.5242 1.17262 20.2294C0.744251 19.9347 0.411312 19.5212 0.214704 19.0398C0.0180948 18.5585 -0.0336043 18.0301 0.0659304 17.5198C0.165465 17.0094 0.411892 16.5392 0.774976 16.167C1.27186 15.6748 1.94394 15.4001 2.64335 15.4033C3.34277 15.4066 4.01226 15.6876 4.5045 16.1845C4.99674 16.6814 5.27142 17.3535 5.26814 18.0529C5.26486 18.7523 4.98386 19.4218 4.48698 19.914C3.99264 20.4082 3.32492 20.6898 2.62599 20.699Z" fill="#FF5A3C"/>
</g>
</g>
<g id="Group 4168">
<g id="Group 4167">
<path id="Path 56858" d="M133.613 18.047C133.611 17.7006 133.678 17.3573 133.809 17.0367C133.94 16.7161 134.133 16.4245 134.377 16.1785C134.621 15.9326 134.911 15.7372 135.23 15.6034C135.55 15.4696 135.893 15.4002 136.239 15.399C136.585 15.3996 136.928 15.4688 137.248 15.6024C137.568 15.736 137.858 15.9314 138.101 16.1775C138.345 16.4236 138.538 16.7154 138.669 17.0362C138.8 17.3571 138.865 17.7006 138.863 18.047C138.866 18.7459 138.591 19.4174 138.099 19.9139C137.607 20.4104 136.938 20.6913 136.239 20.695C135.54 20.6905 134.871 20.4094 134.379 19.9131C133.887 19.4169 133.612 18.7459 133.613 18.047ZM120.255 18.047C120.252 17.3482 120.527 16.6769 121.019 16.1805C121.511 15.684 122.179 15.403 122.878 15.399C123.577 15.4019 124.247 15.6825 124.74 16.1791C125.232 16.6756 125.508 17.3475 125.505 18.047C125.506 18.7464 125.23 19.4177 124.738 19.9146C124.246 20.4115 123.577 20.6935 122.878 20.699C122.18 20.6916 121.512 20.4089 121.021 19.9124C120.53 19.4158 120.255 18.7454 120.255 18.047ZM106.895 18.047C106.892 17.7005 106.958 17.357 107.089 17.0361C107.22 16.7152 107.412 16.4233 107.656 16.1772C107.9 15.9311 108.19 15.7356 108.51 15.6021C108.83 15.4685 109.173 15.3995 109.519 15.399C110.219 15.4016 110.889 15.6821 111.382 16.1787C111.875 16.6752 112.15 17.3473 112.148 18.047C112.147 18.745 111.871 19.4144 111.379 19.9097C110.887 20.4051 110.22 20.6862 109.522 20.692C109.176 20.6908 108.833 20.6215 108.514 20.4879C108.195 20.3543 107.905 20.1592 107.661 19.9136C107.417 19.668 107.224 19.3767 107.092 19.0564C106.961 18.7362 106.894 18.3932 106.895 18.047ZM93.541 18.047C93.5377 17.7002 93.6031 17.3562 93.7335 17.0349C93.8638 16.7135 94.0565 16.4211 94.3005 16.1747C94.5445 15.9282 94.8348 15.7325 95.1548 15.5988C95.4749 15.4652 95.8182 15.3962 96.165 15.396C96.5112 15.3977 96.8537 15.4676 97.1729 15.6018C97.4921 15.736 97.7817 15.9319 98.0251 16.1781C98.2686 16.4243 98.4611 16.7161 98.5916 17.0368C98.7222 17.3575 98.7882 17.7008 98.786 18.047C98.7878 18.7459 98.5126 19.417 98.0206 19.9134C97.5285 20.4097 96.8599 20.6908 96.161 20.695C95.8148 20.694 95.4723 20.6245 95.1531 20.4908C94.8339 20.357 94.5442 20.1614 94.3008 19.9154C94.0573 19.6693 93.8649 19.3776 93.7345 19.057C93.6041 18.7363 93.5384 18.3931 93.541 18.047ZM80.179 18.047C80.1756 17.7015 80.2405 17.3587 80.3699 17.0384C80.4994 16.718 80.6909 16.4265 80.9335 16.1804C81.176 15.9343 81.4648 15.7386 81.7832 15.6045C82.1017 15.4704 82.4435 15.4006 82.789 15.399C83.1358 15.3989 83.4792 15.4674 83.7993 15.6007C84.1195 15.734 84.4101 15.9293 84.6543 16.1755C84.8985 16.4217 85.0916 16.7139 85.2224 17.0351C85.3531 17.3563 85.4189 17.7002 85.416 18.047C85.4186 18.7457 85.1437 19.4168 84.6516 19.9128C84.1596 20.4088 83.4906 20.6891 82.792 20.692C82.0951 20.6864 81.4289 20.405 80.9391 19.9092C80.4494 19.4135 80.1761 18.7439 80.179 18.047ZM66.809 18.047C66.8069 17.7005 66.8731 17.3571 67.0039 17.0363C67.1347 16.7154 67.3275 16.4235 67.5712 16.1773C67.8149 15.9311 68.1048 15.7353 68.4243 15.6013C68.7438 15.4672 69.0865 15.3974 69.433 15.396C69.7796 15.3969 70.1226 15.4663 70.4423 15.6002C70.762 15.7341 71.0521 15.9298 71.296 16.1761C71.5398 16.4225 71.7325 16.7146 71.8631 17.0356C71.9937 17.3567 72.0596 17.7004 72.057 18.047C72.0586 18.3934 71.9918 18.7367 71.8606 19.0574C71.7294 19.378 71.5363 19.6696 71.2924 19.9155C71.0484 20.1614 70.7583 20.3569 70.4388 20.4906C70.1192 20.6244 69.7764 20.6938 69.43 20.695C68.732 20.6889 68.0648 20.4071 67.5738 19.9111C67.0828 19.415 66.8079 18.745 66.809 18.047ZM53.447 18.047C53.4443 17.3479 53.7193 16.6763 54.2115 16.1798C54.7037 15.6833 55.3729 15.4024 56.072 15.399C56.4183 15.3998 56.7611 15.469 57.0806 15.6026C57.4001 15.7363 57.6901 15.9318 57.9338 16.1778C58.1776 16.4239 58.3703 16.7157 58.5009 17.0365C58.6315 17.3572 58.6975 17.7007 58.695 18.047C58.6976 18.7465 58.4224 19.4184 57.9298 19.9149C57.4371 20.4115 56.7674 20.6921 56.068 20.695C55.3704 20.6879 54.7038 20.4058 54.213 19.9099C53.7222 19.4141 53.447 18.7446 53.447 18.047ZM40.095 18.047C40.0921 17.7006 40.1578 17.3571 40.2883 17.0363C40.4188 16.7155 40.6115 16.4236 40.8554 16.1777C41.0992 15.9317 41.3893 15.7364 41.709 15.6031C42.0287 15.4698 42.3716 15.4011 42.718 15.401C43.0639 15.4022 43.4062 15.4716 43.7252 15.6053C44.0443 15.739 44.3338 15.9344 44.5772 16.1802C44.8206 16.426 45.0131 16.7174 45.1436 17.0378C45.2742 17.3581 45.3402 17.7011 45.338 18.047C45.338 18.7449 45.0622 19.4145 44.5707 19.9099C44.0792 20.4053 43.4118 20.6865 42.714 20.692C42.3684 20.6903 42.0264 20.6205 41.7077 20.4867C41.3891 20.3528 41.0999 20.1575 40.8567 19.9119C40.6135 19.6663 40.421 19.3752 40.2903 19.0552C40.1597 18.7352 40.0933 18.3926 40.095 18.047ZM26.737 18.047C26.7341 17.7002 26.7998 17.3562 26.9305 17.0349C27.0611 16.7135 27.254 16.4213 27.4981 16.1748C27.7422 15.9284 28.0327 15.7327 28.3527 15.5991C28.6728 15.4654 29.0161 15.3964 29.363 15.396C29.7091 15.3977 30.0514 15.4677 30.3705 15.6019C30.6895 15.7361 30.9789 15.932 31.2221 16.1783C31.4653 16.4245 31.6575 16.7163 31.7877 17.037C31.918 17.3577 31.9836 17.7009 31.981 18.047C31.9829 18.7459 31.7076 19.417 31.2156 19.9134C30.7236 20.4097 30.0549 20.6908 29.356 20.695C29.0098 20.6936 28.6673 20.6239 28.3481 20.49C28.0289 20.3561 27.7392 20.1606 27.4956 19.9147C27.252 19.6688 27.0593 19.3772 26.9284 19.0567C26.7976 18.7363 26.7311 18.3932 26.733 18.047H26.737ZM13.377 18.047C13.3742 17.701 13.4398 17.3579 13.57 17.0373C13.7003 16.7168 13.8925 16.4251 14.1358 16.179C14.379 15.933 14.6685 15.7374 14.9876 15.6035C15.3066 15.4697 15.649 15.4002 15.995 15.399C16.6944 15.4022 17.3641 15.6828 17.8568 16.1793C18.3495 16.6758 18.6251 17.3475 18.623 18.047C18.6225 18.7453 18.3465 19.4151 17.855 19.9111C17.3636 20.4071 16.6962 20.6891 15.998 20.696C15.2993 20.6907 14.631 20.4092 14.1392 19.9128C13.6474 19.4165 13.3719 18.7457 13.373 18.047H13.377Z" fill="#FF5A3C"/>
</g>
</g>
<g id="Group 4170">
<g id="Group 4169">
<path id="Path 56859" d="M149.595 20.695C148.899 20.6898 148.233 20.409 147.743 19.914C147.253 19.4155 146.976 18.7461 146.97 18.047C146.97 17.3492 147.247 16.68 147.741 16.1866C148.234 15.6932 148.903 15.416 149.601 15.416C150.299 15.416 150.968 15.6932 151.461 16.1866C151.955 16.68 152.232 17.3492 152.232 18.047C152.227 18.7467 151.951 19.4171 151.461 19.917C150.966 20.4117 150.295 20.6913 149.595 20.695Z" fill="#FF5A3C"/>
</g>
</g>
</g>
<g id="Group 4178">
<g id="Group 4173">
<g id="Group 4172">
<path id="Path 56860" d="M2.64099 34.8119C1.9425 34.8127 1.27189 34.5378 0.774963 34.0469C0.28373 33.5437 0.00604814 32.8701 -3.05176e-05 32.1669C0.00486463 31.7369 0.115343 31.3146 0.321686 30.9373C0.528029 30.56 0.823933 30.2391 1.18335 30.003C1.54277 29.7668 1.9547 29.6226 2.38293 29.5829C2.81116 29.5433 3.24257 29.6095 3.63922 29.7757C4.03587 29.9419 4.3856 30.203 4.65768 30.536C4.92977 30.8691 5.11586 31.2639 5.19958 31.6857C5.28331 32.1076 5.2621 32.5435 5.13785 32.9552C5.01359 33.3669 4.79008 33.7418 4.48697 34.0469C3.99594 34.5344 3.3329 34.8092 2.64099 34.8119Z" fill="#FF5A3C"/>
</g>
</g>
<g id="Group 4175">
<g id="Group 4174">
<path id="Path 56861" d="M133.613 32.1629C133.613 31.4644 133.889 30.7942 134.381 30.2982C134.873 29.8021 135.54 29.5202 136.239 29.5139C136.585 29.5156 136.928 29.5855 137.247 29.7195C137.566 29.8536 137.856 30.0492 138.099 30.2952C138.343 30.5411 138.535 30.8327 138.666 31.1532C138.797 31.4736 138.864 31.8168 138.862 32.1629C138.865 32.5096 138.799 32.8534 138.668 33.1744C138.537 33.4955 138.344 33.7876 138.1 34.0338C137.856 34.28 137.566 34.4755 137.246 34.609C136.926 34.7426 136.583 34.8115 136.236 34.8119C135.537 34.8082 134.868 34.5271 134.376 34.0304C133.884 33.5336 133.61 32.8619 133.613 32.1629ZM120.254 32.1629C120.254 31.4646 120.529 30.7944 121.021 30.2983C121.512 29.8022 122.18 29.5202 122.878 29.5139C123.577 29.5192 124.246 29.801 124.738 30.2977C125.23 30.7944 125.506 31.4656 125.505 32.1649C125.507 32.8645 125.232 33.5364 124.74 34.0333C124.247 34.5301 123.578 34.8112 122.878 34.8149C122.178 34.8109 121.509 34.5294 121.017 34.0321C120.525 33.5348 120.251 32.8625 120.254 32.1629ZM106.897 32.1629C106.895 31.8166 106.961 31.4733 107.092 31.1527C107.223 30.8321 107.416 30.5405 107.66 30.2946C107.904 30.0487 108.194 29.8533 108.513 29.7197C108.833 29.5861 109.176 29.5168 109.522 29.5159C110.22 29.5199 110.888 29.8005 111.38 30.2963C111.872 30.7921 112.147 31.4627 112.145 32.1609C112.147 32.5075 112.081 32.8511 111.95 33.172C111.819 33.4929 111.626 33.7848 111.382 34.0309C111.138 34.277 110.848 34.4725 110.528 34.6062C110.209 34.7399 109.866 34.8091 109.519 34.8099C109.173 34.8101 108.83 34.7416 108.51 34.6085C108.19 34.4753 107.9 34.2802 107.656 34.0343C107.412 33.7883 107.219 33.4965 107.088 33.1757C106.958 32.8548 106.892 32.5113 106.895 32.1649L106.897 32.1629ZM93.541 32.1629C93.5386 31.8168 93.6045 31.4737 93.735 31.1531C93.8655 30.8325 94.0579 30.5408 94.3013 30.2948C94.5447 30.0487 94.8342 29.8531 95.1534 29.7191C95.4725 29.5851 95.8149 29.5154 96.161 29.5139C96.8597 29.5192 97.5279 29.8007 98.0198 30.2971C98.5116 30.7934 98.7871 31.4642 98.786 32.1629C98.788 32.5092 98.7216 32.8526 98.5908 33.1732C98.4599 33.4939 98.2671 33.7856 98.0233 34.0316C97.7796 34.2777 97.4898 34.4732 97.1704 34.6071C96.851 34.741 96.5083 34.8106 96.162 34.8119C95.8154 34.8119 95.4723 34.7432 95.1525 34.6098C94.8326 34.4763 94.5424 34.2807 94.2987 34.0344C94.0549 33.788 93.8624 33.4958 93.7324 33.1745C93.6023 32.8533 93.5373 32.5095 93.541 32.1629ZM80.168 32.1629C80.1661 31.4641 80.4412 30.793 80.933 30.2966C81.4247 29.8001 82.0932 29.5187 82.792 29.5139C83.1383 29.5152 83.481 29.5848 83.8004 29.7187C84.1198 29.8526 84.4096 30.0482 84.6534 30.2942C84.8971 30.5403 85.0899 30.832 85.2207 31.1526C85.3516 31.4733 85.418 31.8166 85.416 32.1629C85.4188 32.5095 85.353 32.8531 85.2224 33.1741C85.0918 33.4951 84.899 33.7872 84.6551 34.0334C84.4112 34.2796 84.1211 34.4751 83.8013 34.6087C83.4815 34.7423 83.1385 34.8114 82.792 34.8119C82.4454 34.8114 82.1024 34.7423 81.7827 34.6087C81.4629 34.4751 81.1727 34.2796 80.9288 34.0334C80.685 33.7872 80.4921 33.4951 80.3616 33.1741C80.231 32.8531 80.1652 32.5095 80.168 32.1629ZM66.809 32.1629C66.8074 31.4647 67.0821 30.7942 67.5732 30.2979C68.0643 29.8016 68.7318 29.5197 69.43 29.5139C69.7766 29.5154 70.1195 29.5851 70.4391 29.7191C70.7588 29.8531 71.0489 30.0489 71.2928 30.295C71.5368 30.5412 71.7298 30.8331 71.861 31.1539C71.9921 31.4748 72.0587 31.8183 72.057 32.1649C72.0595 32.5113 71.9935 32.8547 71.8628 33.1755C71.7321 33.4963 71.5393 33.7881 71.2954 34.0341C71.0516 34.2801 70.7615 34.4754 70.4418 34.6089C70.1222 34.7424 69.7794 34.8114 69.433 34.8119C69.0867 34.8106 68.744 34.741 68.4246 34.6071C68.1052 34.4732 67.8153 34.2777 67.5716 34.0316C67.3279 33.7856 67.1351 33.4939 67.0042 33.1732C66.8733 32.8526 66.807 32.5092 66.809 32.1629ZM53.447 32.1629C53.4464 31.4643 53.7221 30.7939 54.2138 30.2977C54.7055 29.8014 55.3734 29.5197 56.072 29.5139C56.4184 29.5155 56.761 29.5853 57.0804 29.7195C57.3997 29.8536 57.6895 30.0494 57.9331 30.2956C58.1767 30.5418 58.3694 30.8336 58.5002 31.1544C58.6309 31.4752 58.6971 31.8185 58.695 32.1649C58.698 32.5117 58.6324 32.8556 58.5018 33.1768C58.3713 33.4981 58.1784 33.7903 57.9344 34.0367C57.6904 34.283 57.4 34.4786 57.08 34.6122C56.76 34.7458 56.4167 34.8147 56.07 34.8149C55.371 34.8094 54.7027 34.5273 54.2111 34.0303C53.7196 33.5333 53.4449 32.8619 53.447 32.1629ZM40.091 32.1629C40.0909 31.4648 40.3665 30.795 40.8576 30.2989C41.3488 29.8029 42.0159 29.5208 42.714 29.5139C43.4132 29.5192 44.082 29.801 44.5742 30.2977C45.0664 30.7944 45.342 31.4656 45.341 32.1649C45.3431 32.8637 45.0683 33.5349 44.5767 34.0316C44.0851 34.5282 43.4168 34.8099 42.718 34.8149C42.0185 34.8109 41.3492 34.5293 40.8574 34.032C40.3655 33.5347 40.0912 32.8624 40.095 32.1629H40.091ZM26.733 32.1629C26.7311 31.8167 26.7975 31.4735 26.9284 31.153C27.0592 30.8325 27.252 30.5409 27.4955 30.2949C27.7391 30.0489 28.0288 29.8533 28.3481 29.7193C28.6673 29.5853 29.0098 29.5155 29.356 29.5139C30.0546 29.52 30.7224 29.8017 31.2143 30.2979C31.7061 30.794 31.982 31.4643 31.982 32.1629C31.9846 32.8626 31.7096 33.5347 31.2173 34.0319C30.725 34.5291 30.0557 34.8107 29.356 34.8149C29.0093 34.8141 28.6662 34.7448 28.3464 34.6109C28.0266 34.477 27.7365 34.2811 27.4927 34.0347C27.2489 33.7882 27.0563 33.4959 26.9259 33.1747C26.7955 32.8534 26.7299 32.5096 26.733 32.1629ZM13.371 32.1629C13.3694 31.464 13.6447 30.7929 14.1366 30.2965C14.6285 29.8001 15.2971 29.5187 15.996 29.5139C16.6949 29.5192 17.3634 29.8011 17.8551 30.2978C18.3469 30.7946 18.6218 31.4659 18.62 32.1649C18.6218 32.5113 18.5554 32.8546 18.4245 33.1752C18.2936 33.4959 18.1008 33.7876 17.8571 34.0337C17.6134 34.2798 17.3236 34.4754 17.0043 34.6095C16.6849 34.7435 16.3423 34.8133 15.996 34.8149C15.6492 34.8143 15.3059 34.745 14.986 34.6112C14.666 34.4774 14.3757 34.2816 14.1317 34.0351C13.8877 33.7886 13.6949 33.4963 13.5644 33.175C13.4338 32.8537 13.3681 32.5097 13.371 32.1629Z" fill="#FF5A3C"/>
</g>
</g>
<g id="Group 4177">
<g id="Group 4176">
<path id="Path 56862" d="M149.595 34.8148C148.902 34.8107 148.237 34.535 147.745 34.0468C147.255 33.5417 146.977 32.8676 146.97 32.1638C146.975 31.6451 147.133 31.1393 147.425 30.7103C147.716 30.2812 148.128 29.9481 148.609 29.7529C149.09 29.5577 149.617 29.5092 150.126 29.6133C150.634 29.7175 151.1 29.9698 151.465 30.3384C151.83 30.7069 152.078 31.1753 152.177 31.6845C152.277 32.1937 152.223 32.7209 152.023 33.1997C151.824 33.6785 151.487 34.0874 151.055 34.375C150.623 34.6626 150.116 34.816 149.597 34.8158L149.595 34.8148Z" fill="#FF5A3C"/>
</g>
</g>
</g>
<g id="Group 4185">
<g id="Group 4180">
<g id="Group 4179">
<path id="Path 56863" d="M2.64099 49.3929C1.94274 49.3886 1.27353 49.1128 0.774963 48.6239C0.286719 48.1293 0.0130573 47.4622 0.0132753 46.7671C0.0134933 46.0721 0.287599 45.4052 0.776154 44.9108C1.26471 44.4165 1.92838 44.1346 2.62335 44.1262C3.31833 44.1178 3.98862 44.3836 4.48898 44.8659C4.97747 45.369 5.25047 46.0427 5.24997 46.7439C5.2509 47.442 4.97762 48.1125 4.48898 48.6109C4.24775 48.8567 3.96026 49.0523 3.6431 49.1866C3.32594 49.3208 2.98537 49.3909 2.64099 49.3929Z" fill="#FF5A3C"/>
</g>
</g>
<g id="Group 4182">
<g id="Group 4181">
<path id="Path 56864" d="M133.613 46.7469C133.61 46.0477 133.885 45.3759 134.378 44.8794C134.87 44.3828 135.54 44.1021 136.239 44.0989C136.585 44.0996 136.928 44.1687 137.248 44.3023C137.568 44.4359 137.858 44.6314 138.101 44.8774C138.345 45.1235 138.538 45.4154 138.669 45.7362C138.8 46.057 138.865 46.4005 138.863 46.7469C138.866 47.4462 138.592 48.118 138.099 48.6148C137.607 49.1115 136.938 49.3925 136.239 49.3959C135.54 49.3904 134.872 49.1088 134.38 48.6126C133.888 48.1163 133.612 47.4457 133.613 46.7469ZM120.255 46.7469C120.252 46.4007 120.318 46.0573 120.449 45.7366C120.579 45.4159 120.772 45.1241 121.016 44.8782C121.26 44.6323 121.55 44.437 121.869 44.3036C122.189 44.1702 122.532 44.1013 122.878 44.1009C123.577 44.1036 124.247 44.3838 124.739 44.88C125.232 45.3762 125.507 46.0477 125.505 46.7469C125.506 47.4458 125.23 48.1165 124.738 48.6124C124.246 49.1083 123.577 49.389 122.878 49.3929C122.532 49.3918 122.189 49.3222 121.869 49.1882C121.55 49.0542 121.26 48.8585 121.016 48.6122C120.772 48.3659 120.58 48.0739 120.449 47.7529C120.318 47.432 120.252 47.0884 120.255 46.7419V46.7469ZM106.895 46.7469C106.892 46.4005 106.958 46.0569 107.089 45.736C107.22 45.4151 107.412 45.1232 107.656 44.8771C107.9 44.631 108.19 44.4356 108.51 44.302C108.83 44.1685 109.173 44.0995 109.519 44.0989C109.865 44.1 110.208 44.1693 110.527 44.3029C110.847 44.4365 111.137 44.6317 111.381 44.8775C111.624 45.1233 111.818 45.4147 111.949 45.7351C112.08 46.0556 112.147 46.3987 112.145 46.7449C112.147 47.4442 111.872 48.1157 111.38 48.6122C110.887 49.1087 110.218 49.3895 109.519 49.3929C109.173 49.3915 108.831 49.3219 108.511 49.1882C108.192 49.0544 107.903 48.8591 107.659 48.6134C107.415 48.3677 107.222 48.0764 107.091 47.7562C106.96 47.4359 106.894 47.093 106.895 46.7469ZM93.537 46.7469C93.5346 46.4005 93.6007 46.057 93.7315 45.7361C93.8623 45.4153 94.0552 45.1234 94.2991 44.8774C94.5431 44.6313 94.8332 44.4359 95.1529 44.3023C95.4726 44.1687 95.8155 44.0996 96.162 44.0989C96.5083 44.1003 96.8509 44.1698 97.1703 44.3036C97.4897 44.4375 97.7795 44.6329 98.0233 44.8788C98.2671 45.1248 98.4601 45.4163 98.5911 45.7369C98.7221 46.0574 98.7887 46.4007 98.787 46.7469C98.7873 47.4454 98.5116 48.1158 98.0199 48.6119C97.5282 49.1081 96.8605 49.3899 96.162 49.3959C95.4629 49.392 94.7938 49.1109 94.3017 48.6142C93.8096 48.1176 93.5346 47.4461 93.537 46.7469ZM80.166 46.7469C80.1641 46.4008 80.2305 46.0577 80.3614 45.7372C80.4922 45.4167 80.685 45.1252 80.9286 44.8793C81.1722 44.6333 81.4619 44.4378 81.7811 44.3039C82.1003 44.17 82.4428 44.1004 82.789 44.0989C83.1362 44.0989 83.4801 44.1675 83.8008 44.3007C84.1215 44.4339 84.4128 44.6291 84.6579 44.8751C84.903 45.1212 85.0971 45.4131 85.229 45.7344C85.361 46.0556 85.4283 46.3997 85.427 46.7469C85.427 47.4476 85.1494 48.1197 84.655 48.6162C84.1606 49.1127 83.4896 49.393 82.789 49.3959C82.0908 49.3894 81.4236 49.1073 80.9323 48.6112C80.4411 48.1151 80.1657 47.4451 80.166 46.7469ZM66.809 46.7469C66.807 46.4009 66.8733 46.0578 67.0042 45.7373C67.135 45.4169 67.3278 45.1255 67.5714 44.8797C67.8151 44.6339 68.1049 44.4386 68.4241 44.3049C68.7434 44.1713 69.0859 44.102 69.432 44.1009C69.7785 44.1013 70.1216 44.1703 70.4414 44.3038C70.7612 44.4372 71.0514 44.6327 71.2954 44.8788C71.5394 45.1249 71.7323 45.4168 71.863 45.7378C71.9937 46.0588 72.0596 46.4024 72.057 46.7489C72.0596 47.448 71.7848 48.1195 71.2929 48.6162C70.8009 49.1128 70.132 49.394 69.433 49.3979C68.7331 49.3927 68.0639 49.1101 67.5721 48.6122C67.0802 48.1144 66.8058 47.4418 66.809 46.7419V46.7469ZM53.451 46.7469C53.449 46.4009 53.5152 46.0579 53.6459 45.7375C53.7766 45.4171 53.9692 45.1256 54.2126 44.8797C54.456 44.6337 54.7455 44.4382 55.0646 44.3042C55.3836 44.1703 55.726 44.1005 56.072 44.0989C56.4183 44.0999 56.761 44.1692 57.0804 44.3029C57.3999 44.4366 57.6898 44.6321 57.9335 44.8781C58.1772 45.1241 58.37 45.4159 58.5006 45.7366C58.6313 46.0573 58.6973 46.4006 58.695 46.7469C58.6968 47.4455 58.4217 48.1162 57.9298 48.6122C57.4379 49.1082 56.7695 49.389 56.071 49.3929C55.3737 49.3861 54.7074 49.1043 54.2168 48.6088C53.7262 48.1133 53.451 47.4442 53.451 46.7469ZM40.09 46.7469C40.0873 46.4003 40.1532 46.0566 40.2838 45.7356C40.4144 45.4145 40.6072 45.1224 40.851 44.8761C41.0948 44.6297 41.3849 44.434 41.7047 44.3001C42.0244 44.1663 42.3674 44.0969 42.714 44.0959C43.4134 44.0997 44.0827 44.3806 44.5752 44.8772C45.0677 45.3739 45.3431 46.0455 45.341 46.7449C45.342 47.4442 45.0664 48.1155 44.5742 48.6122C44.082 49.1089 43.4132 49.3907 42.714 49.3959C42.3677 49.3944 42.0252 49.3246 41.7059 49.1906C41.3866 49.0566 41.0969 48.861 40.8532 48.6151C40.6095 48.3691 40.4167 48.0775 40.2857 47.7569C40.1548 47.4364 40.0883 47.0932 40.09 46.7469ZM26.733 46.7469C26.7303 46.4007 26.7962 46.0573 26.9268 45.7366C27.0574 45.4159 27.2502 45.1241 27.494 44.8782C27.7378 44.6323 28.0278 44.437 28.3473 44.3036C28.6669 44.1702 29.0097 44.1013 29.356 44.1009C29.7023 44.1023 30.0449 44.1718 30.3643 44.3056C30.6837 44.4395 30.9736 44.6349 31.2173 44.8808C31.4611 45.1268 31.6541 45.4183 31.7851 45.7389C31.9161 46.0594 31.9827 46.4027 31.981 46.7489C31.9823 47.447 31.7073 48.1171 31.2159 48.613C30.7246 49.1088 30.057 49.3899 29.359 49.3949C29.0122 49.3938 28.669 49.3242 28.3492 49.1901C28.0294 49.056 27.7391 48.8601 27.4952 48.6136C27.2512 48.3672 27.0583 48.075 26.9275 47.7538C26.7967 47.4326 26.7306 47.0887 26.733 46.7419V46.7469ZM13.374 46.7469C13.3711 46.4004 13.4368 46.0567 13.5673 45.7357C13.6979 45.4147 13.8907 45.1227 14.1346 44.8766C14.3785 44.6304 14.6687 44.435 14.9886 44.3015C15.3084 44.168 15.6514 44.0992 15.998 44.0989C16.344 44.1001 16.6864 44.1695 17.0055 44.3032C17.3247 44.4369 17.6143 44.6322 17.8579 44.878C18.1014 45.1238 18.2941 45.4152 18.4249 45.7356C18.5557 46.0559 18.6219 46.3989 18.62 46.7449C18.6226 47.4439 18.3478 48.1153 17.8558 48.6118C17.3638 49.1083 16.6949 49.3892 15.996 49.3929C15.6501 49.3914 15.3079 49.3217 14.9889 49.1879C14.6699 49.054 14.3804 48.8587 14.137 48.613C13.8935 48.3673 13.7008 48.076 13.5699 47.7559C13.439 47.4357 13.3724 47.0929 13.374 46.7469Z" fill="#FF5A3C"/>
</g>
</g>
<g id="Group 4184">
<g id="Group 4183">
<path id="Path 56865" d="M149.595 49.3929C148.9 49.3892 148.235 49.1131 147.742 48.6239C147.255 48.1184 146.978 47.4462 146.968 46.7439C146.967 46.2236 147.121 45.7148 147.409 45.2815C147.697 44.8481 148.107 44.5098 148.587 44.309C149.067 44.1082 149.595 44.0539 150.106 44.153C150.617 44.2521 151.087 44.5002 151.457 44.8659C151.947 45.3693 152.223 46.0418 152.23 46.7439C152.226 47.4429 151.949 48.1126 151.459 48.6109C151.215 48.8579 150.925 49.0542 150.605 49.1884C150.285 49.3226 149.942 49.3921 149.595 49.3929Z" fill="#FF5A3C"/>
</g>
</g>
</g>
<g id="Group 4192">
<g id="Group 4187">
<g id="Group 4186">
<path id="Path 56866" d="M2.62698 62.6199C1.93288 62.6184 1.26737 62.3431 0.774963 61.8539C0.288572 61.3486 0.0156625 60.6753 0.01297 59.9739C0.0177116 59.5444 0.127979 59.1226 0.334076 58.7457C0.540173 58.3689 0.835786 58.0484 1.19485 57.8127C1.55392 57.5769 1.96544 57.4331 2.39319 57.3938C2.82093 57.3545 3.25179 57.421 3.6478 57.5874C4.0438 57.7538 4.3928 58.015 4.66409 58.348C4.93539 58.6811 5.12065 59.0757 5.20355 59.4972C5.28645 59.9186 5.26445 60.354 5.1395 60.765C5.01454 61.176 4.79045 61.5499 4.48697 61.8539C3.99211 62.3443 3.32369 62.6196 2.62698 62.6199Z" fill="#FF5A3C"/>
</g>
</g>
<g id="Group 4189">
<g id="Group 4188">
<path id="Path 56867" d="M133.613 59.9708C133.613 59.2725 133.889 58.6025 134.381 58.1069C134.873 57.6114 135.541 57.3306 136.239 57.3258C136.938 57.3287 137.607 57.609 138.099 58.105C138.591 58.601 138.866 59.2722 138.863 59.9708C138.866 60.3174 138.8 60.6612 138.67 60.9824C138.539 61.3035 138.347 61.5956 138.103 61.8419C137.859 62.0881 137.569 62.2837 137.249 62.4172C136.929 62.5507 136.586 62.6196 136.239 62.6198C135.892 62.619 135.549 62.5498 135.23 62.4161C134.91 62.2825 134.62 62.0869 134.376 61.8408C134.132 61.5947 133.939 61.3028 133.808 60.9819C133.677 60.661 133.611 60.3174 133.613 59.9708ZM120.255 59.9708C120.252 59.2719 120.526 58.6003 121.018 58.1037C121.51 57.6072 122.179 57.3263 122.878 57.3228C123.577 57.3263 124.247 57.607 124.739 58.1035C125.232 58.5999 125.507 59.2715 125.505 59.9708C125.507 60.3175 125.441 60.6613 125.311 60.9824C125.18 61.3035 124.987 61.5956 124.742 61.8417C124.498 62.0879 124.208 62.2834 123.888 62.417C123.568 62.5505 123.225 62.6194 122.878 62.6198C122.531 62.6193 122.189 62.5503 121.869 62.4166C121.549 62.283 121.259 62.0874 121.015 61.8412C120.771 61.595 120.579 61.303 120.448 60.982C120.318 60.661 120.252 60.3173 120.255 59.9708ZM106.894 59.9708C106.891 59.2716 107.166 58.5999 107.658 58.1033C108.15 57.6067 108.82 57.326 109.519 57.3228C110.218 57.3273 110.887 57.6089 111.38 58.1058C111.872 58.6027 112.147 59.2744 112.145 59.9738C112.147 60.3201 112.08 60.6632 111.949 60.9837C111.818 61.3041 111.624 61.5955 111.381 61.8413C111.137 62.087 110.847 62.2823 110.527 62.4159C110.208 62.5495 109.865 62.6188 109.519 62.6198C109.172 62.6192 108.829 62.55 108.51 62.4164C108.19 62.2827 107.9 62.0872 107.656 61.841C107.412 61.5948 107.219 61.3028 107.089 60.9819C106.958 60.6609 106.892 60.3173 106.895 59.9708H106.894ZM93.537 59.9708C93.5354 59.6247 93.602 59.2816 93.733 58.9612C93.8641 58.6407 94.0569 58.3493 94.3005 58.1034C94.5442 57.8575 94.8339 57.662 95.1531 57.5281C95.4724 57.3941 95.8148 57.3244 96.161 57.3228C96.8602 57.3278 97.529 57.6096 98.0211 58.1063C98.5132 58.6031 98.7886 59.2746 98.787 59.9738C98.7891 60.6724 98.5144 61.3433 98.023 61.8398C97.5316 62.3362 96.8635 62.6178 96.165 62.6228C95.818 62.6224 95.4744 62.5534 95.1542 62.4197C94.8339 62.286 94.5434 62.0903 94.2991 61.8438C94.0548 61.5972 93.8617 61.3049 93.7309 60.9834C93.6001 60.662 93.5342 60.3178 93.537 59.9708ZM80.166 59.9708C80.1649 59.27 80.4418 58.5974 80.936 58.1004C81.4301 57.6035 82.1012 57.3227 82.802 57.3198C83.4997 57.3262 84.1665 57.6087 84.6564 58.1055C85.1464 58.6024 85.4195 59.2731 85.416 59.9708C85.4188 60.3167 85.3532 60.6597 85.2232 60.9802C85.0931 61.3007 84.901 61.5923 84.658 61.8384C84.4149 62.0845 84.1257 62.2803 83.8069 62.4143C83.488 62.5484 83.1459 62.6183 82.8 62.6198C82.4533 62.6192 82.11 62.5502 81.79 62.4168C81.4699 62.2835 81.1793 62.0884 80.9347 61.8426C80.6901 61.5969 80.4963 61.3054 80.3644 60.9847C80.2325 60.6641 80.1651 60.3206 80.166 59.9738V59.9708ZM66.806 59.9708C66.8054 59.2717 67.0813 58.6007 67.5734 58.1041C68.0655 57.6076 68.7339 57.3256 69.433 57.3198C70.1317 57.3248 70.8 57.6061 71.2921 58.1023C71.7841 58.5984 72.0598 59.2691 72.059 59.9678C72.0611 60.3146 71.9948 60.6583 71.8638 60.9794C71.7328 61.3005 71.5398 61.5926 71.2958 61.8389C71.0518 62.0853 70.7615 62.2811 70.4417 62.4151C70.1219 62.5491 69.7787 62.6186 69.432 62.6198C68.7335 62.6153 68.0651 62.3345 67.573 61.8387C67.081 61.3428 66.8052 60.6724 66.806 59.9738V59.9708ZM53.451 59.9708C53.4491 59.2721 53.7242 58.6011 54.216 58.1048C54.7078 57.6085 55.3763 57.3273 56.075 57.3228C56.4209 57.3245 56.7631 57.3944 57.0821 57.5284C57.401 57.6624 57.6904 57.858 57.9337 58.1039C58.177 58.3498 58.3695 58.6413 58.5001 58.9616C58.6308 59.2819 58.697 59.6249 58.695 59.9708C58.6978 60.3176 58.6319 60.6615 58.5011 60.9827C58.3703 61.3039 58.1773 61.5961 57.9331 61.8423C57.6889 62.0886 57.3984 62.2841 57.0783 62.4175C56.7582 62.5509 56.4148 62.6197 56.068 62.6198C55.3701 62.6159 54.7024 62.3349 54.2116 61.8387C53.7209 61.3425 53.4473 60.6717 53.451 59.9738V59.9708ZM40.091 59.9708C40.0883 59.272 40.363 58.6008 40.8548 58.1043C41.3466 57.6078 42.0152 57.3268 42.714 57.3228C43.4131 57.3286 44.0815 57.6106 44.5736 58.1071C45.0657 58.6037 45.3415 59.2747 45.341 59.9738C45.3427 60.3198 45.2762 60.6628 45.1452 60.9831C45.0143 61.3034 44.8216 61.5948 44.578 61.8405C44.3343 62.0863 44.0447 62.2816 43.7255 62.4153C43.4064 62.549 43.064 62.6185 42.718 62.6198C42.3713 62.6198 42.0281 62.5511 41.7082 62.4177C41.3882 62.2843 41.0979 62.0887 40.854 61.8424C40.6101 61.5961 40.4174 61.3038 40.2871 60.9826C40.1569 60.6613 40.0915 60.3175 40.095 59.9708H40.091ZM26.733 59.9708C26.7313 59.6248 26.7978 59.2819 26.9287 58.9617C27.0597 58.6414 27.2525 58.3502 27.4961 58.1045C27.7397 57.8588 28.0294 57.6636 28.3485 57.53C28.6677 57.3964 29.01 57.327 29.356 57.3258C30.0548 57.3303 30.7233 57.6115 31.2153 58.1078C31.7073 58.604 31.9826 59.275 31.981 59.9738C31.983 60.3201 31.9166 60.6633 31.7856 60.9839C31.6546 61.3044 31.4617 61.596 31.2178 61.8418C30.9739 62.0876 30.6839 62.2829 30.3645 62.4164C30.045 62.5499 29.7023 62.619 29.356 62.6198C29.0095 62.6194 28.6664 62.5505 28.3466 62.4169C28.0269 62.2833 27.7367 62.0878 27.4929 61.8415C27.2491 61.5953 27.0564 61.3032 26.9259 60.9821C26.7955 60.6611 26.7299 60.3174 26.733 59.9708ZM13.374 59.9708C13.3697 59.2735 13.642 58.603 14.1312 58.1061C14.6205 57.6092 15.2867 57.3264 15.984 57.3198C16.6845 57.3225 17.3553 57.6027 17.8496 58.099C18.3439 58.5953 18.6213 59.2674 18.621 59.9678C18.6224 60.3152 18.5553 60.6594 18.4233 60.9807C18.2914 61.3021 18.0973 61.5942 17.8522 61.8403C17.6071 62.0864 17.3158 62.2817 16.9951 62.415C16.6743 62.5482 16.3303 62.6168 15.983 62.6168C15.6379 62.6154 15.2965 62.5458 14.9784 62.412C14.6603 62.2783 14.3717 62.083 14.1293 61.8374C13.8869 61.5919 13.6954 61.3008 13.5657 60.981C13.4361 60.6612 13.3709 60.3189 13.374 59.9738V59.9708Z" fill="#FF5A3C"/>
</g>
</g>
<g id="Group 4191">
<g id="Group 4190">
<path id="Path 56868" d="M149.608 62.6199C148.91 62.6211 148.24 62.3457 147.745 61.8539C147.255 61.3501 146.978 60.6768 146.971 59.9739C146.971 59.2777 147.247 58.61 147.74 58.1177C148.232 57.6254 148.9 57.3489 149.596 57.3489C150.292 57.3489 150.96 57.6254 151.452 58.1177C151.944 58.61 152.221 59.2777 152.221 59.9739C152.22 60.6765 151.947 61.3514 151.459 61.8569C150.966 62.3445 150.301 62.6186 149.608 62.6199Z" fill="#FF5A3C"/>
</g>
</g>
</g>
<g id="Group 4199">
<g id="Group 4194">
<g id="Group 4193">
<path id="Path 56869" d="M2.62598 77.201C2.28081 77.2012 1.93914 77.1321 1.62119 76.9977C1.30323 76.8634 1.01547 76.6666 0.774963 76.419C0.285742 75.9202 0.00809617 75.2517 -3.05176e-05 74.553C0.00367448 73.8526 0.283207 73.1818 0.777985 72.686C1.27667 72.2087 1.93973 71.9412 2.63007 71.939C3.3204 71.9367 3.9852 72.1999 4.48697 72.674C4.73324 72.9197 4.92864 73.2116 5.06195 73.5329C5.19526 73.8542 5.26389 74.1987 5.26389 74.5465C5.26389 74.8944 5.19526 75.2389 5.06195 75.5602C4.92864 75.8815 4.73324 76.1733 4.48697 76.419C4.24393 76.666 3.95431 76.8623 3.63486 76.9965C3.31541 77.1308 2.97248 77.2003 2.62598 77.201Z" fill="#FF5A3C"/>
</g>
</g>
<g id="Group 4196">
<g id="Group 4195">
<path id="Path 56870" d="M133.613 74.5528C133.611 74.2064 133.678 73.8631 133.809 73.5424C133.94 73.2217 134.133 72.9301 134.377 72.684C134.621 72.438 134.911 72.2425 135.23 72.1086C135.55 71.9747 135.893 71.9052 136.239 71.9039C136.586 71.9042 136.929 71.9732 137.248 72.1068C137.568 72.2403 137.859 72.4359 138.102 72.6821C138.346 72.9283 138.539 73.2204 138.67 73.5415C138.8 73.8626 138.866 74.2063 138.863 74.5528C138.865 75.2516 138.59 75.9228 138.098 76.4191C137.606 76.9155 136.938 77.1966 136.239 77.2009C135.541 77.195 134.873 76.9135 134.381 76.4175C133.889 75.9216 133.613 75.2513 133.613 74.5528ZM120.255 74.5528C120.252 74.2064 120.318 73.8629 120.449 73.542C120.579 73.2211 120.772 72.9292 121.016 72.6831C121.26 72.4369 121.55 72.2413 121.869 72.1076C122.189 71.9739 122.532 71.9046 122.878 71.9039C123.225 71.9049 123.567 71.9743 123.887 72.1081C124.207 72.2418 124.497 72.4373 124.741 72.6834C124.985 72.9295 125.178 73.2212 125.309 73.542C125.44 73.8628 125.507 74.2063 125.505 74.5528C125.506 75.2514 125.23 75.9218 124.737 76.4174C124.245 76.913 123.577 77.1936 122.878 77.1979C122.532 77.1969 122.189 77.1277 121.87 76.9942C121.551 76.8607 121.261 76.6655 121.018 76.4198C120.774 76.1741 120.581 75.8827 120.45 75.5623C120.319 75.2419 120.253 74.8989 120.255 74.5528ZM106.895 74.5528C106.892 74.2063 106.958 73.8626 107.088 73.5415C107.219 73.2204 107.412 72.9283 107.656 72.6821C107.899 72.4359 108.19 72.2403 108.51 72.1068C108.829 71.9732 109.172 71.9042 109.519 71.9039C109.865 71.9053 110.208 71.975 110.528 72.1089C110.847 72.2428 111.137 72.4383 111.381 72.6843C111.625 72.9303 111.818 73.222 111.949 73.5426C112.08 73.8632 112.147 74.2065 112.145 74.5528C112.147 75.2516 111.871 75.9226 111.379 76.4185C110.887 76.9144 110.218 77.1947 109.519 77.1979C109.173 77.1967 108.831 77.1273 108.511 76.9937C108.192 76.8601 107.902 76.6649 107.659 76.4192C107.415 76.1736 107.222 75.8823 107.091 75.5621C106.96 75.2418 106.893 74.8989 106.895 74.5528ZM93.537 74.5528C93.5344 74.2063 93.6003 73.8627 93.7309 73.5418C93.8615 73.2208 94.0543 72.9289 94.2981 72.6827C94.542 72.4365 94.8321 72.241 95.1518 72.1073C95.4715 71.9736 95.8145 71.9045 96.161 71.9039C96.5074 71.905 96.8502 71.9745 97.1697 72.1084C97.4892 72.2422 97.7792 72.4378 98.023 72.6838C98.2669 72.9299 98.4598 73.2216 98.5907 73.5423C98.7216 73.8631 98.788 74.2064 98.786 74.5528C98.7863 75.2513 98.5105 75.9215 98.0188 76.4175C97.5272 76.9135 96.8594 77.195 96.161 77.2009C95.4621 77.1969 94.7934 76.9159 94.3014 76.4194C93.8095 75.923 93.5346 75.2517 93.537 74.5528ZM80.166 74.5528C80.164 74.2067 80.2303 73.8635 80.361 73.543C80.4918 73.2225 80.6844 72.9309 80.9279 72.6849C81.1714 72.4388 81.4611 72.2432 81.7802 72.1092C82.0994 71.9752 82.4418 71.9054 82.788 71.9039C83.1354 71.9039 83.4794 71.9724 83.8002 72.1057C84.121 72.2389 84.4124 72.4342 84.6576 72.6803C84.9028 72.9264 85.097 73.2185 85.229 73.5399C85.361 73.8612 85.4283 74.2054 85.427 74.5528C85.427 75.2529 85.1498 75.9245 84.656 76.4207C84.1622 76.9169 83.492 77.1974 82.792 77.2009C82.0932 77.1961 81.4247 76.9149 80.9326 76.4187C80.4405 75.9225 80.1649 75.2517 80.166 74.5528ZM66.809 74.5528C66.8072 74.2065 66.8736 73.8631 67.0044 73.5424C67.1353 73.2217 67.3281 72.9299 67.5718 72.6837C67.8155 72.4376 68.1053 72.2418 68.4246 72.1076C68.744 71.9735 69.0866 71.9036 69.433 71.9019C69.7795 71.9025 70.1225 71.9716 70.4422 72.1053C70.7619 72.239 71.052 72.4345 71.2959 72.6807C71.5397 72.9269 71.7325 73.2188 71.8631 73.5398C71.9937 73.8607 72.0596 74.2043 72.057 74.5508C72.0594 75.2502 71.7841 75.922 71.2915 76.4185C70.7989 76.915 70.1294 77.1957 69.43 77.1989C68.7327 77.1928 68.0661 76.9115 67.5752 76.4164C67.0844 75.9212 66.809 75.2521 66.809 74.5549V74.5528ZM53.451 74.5528C53.4492 74.2068 53.5155 73.8638 53.6462 73.5434C53.7769 73.223 53.9695 72.9315 54.2128 72.6855C54.4562 72.4395 54.7457 72.2439 55.0647 72.1098C55.3837 71.9757 55.726 71.9057 56.072 71.9039C56.4184 71.9048 56.7612 71.9741 57.0807 72.1079C57.4002 72.2416 57.6902 72.4372 57.9339 72.6833C58.1776 72.9295 58.3703 73.2214 58.5009 73.5422C58.6315 73.863 58.6975 74.2065 58.695 74.5528C58.6977 75.2518 58.4228 75.9232 57.9308 76.4197C57.4389 76.9162 56.7699 77.1971 56.071 77.2009C55.373 77.1953 54.7056 76.9136 54.2146 76.4174C53.7237 75.9213 53.4491 75.2509 53.451 74.5528ZM40.091 74.5528C40.0882 74.2061 40.1541 73.8621 40.2849 73.5409C40.4157 73.2197 40.6087 72.9276 40.8529 72.6813C41.0971 72.4351 41.3876 72.2396 41.7077 72.1062C42.0279 71.9727 42.3712 71.904 42.718 71.9039C43.0642 71.9056 43.4066 71.9754 43.7258 72.1095C44.0449 72.2435 44.3346 72.4391 44.5781 72.6851C44.8217 72.9311 45.0144 73.2226 45.1453 73.5431C45.2762 73.8636 45.3427 74.2067 45.341 74.5528C45.3415 75.2517 45.0656 75.9224 44.5734 76.4185C44.0813 76.9146 43.4128 77.1958 42.714 77.2009C42.0159 77.1958 41.3483 76.9143 40.8574 76.418C40.3665 75.9216 40.0923 75.2509 40.095 74.5528H40.091ZM26.733 74.5528C26.7295 74.206 26.795 73.8618 26.9254 73.5404C27.0559 73.2189 27.2488 72.9266 27.4931 72.6802C27.7373 72.4338 28.028 72.2384 28.3483 72.1051C28.6685 71.9718 29.0121 71.9034 29.359 71.9039C30.0579 71.9076 30.7268 72.1887 31.2185 72.6855C31.7102 73.1822 31.9845 73.8539 31.981 74.5528C31.9821 75.2515 31.7066 75.9222 31.2147 76.4183C30.7229 76.9145 30.0546 77.1958 29.356 77.2009C29.0098 77.1994 28.6673 77.1298 28.3481 76.9959C28.0289 76.862 27.7392 76.6665 27.4956 76.4205C27.252 76.1746 27.0593 75.8831 26.9284 75.5626C26.7976 75.2421 26.7311 74.899 26.733 74.5528ZM13.371 74.5528C13.3683 74.2063 13.4343 73.8626 13.565 73.5416C13.6956 73.2205 13.8885 72.9285 14.1325 72.6823C14.3765 72.4361 14.6667 72.2406 14.9865 72.107C15.3063 71.9734 15.6494 71.9044 15.996 71.9039C16.3423 71.9052 16.685 71.9748 17.0044 72.1087C17.3238 72.2425 17.6136 72.4381 17.8574 72.6842C18.1011 72.9302 18.2939 73.2219 18.4248 73.5426C18.5556 73.8632 18.622 74.2065 18.62 74.5528C18.6211 75.2513 18.3457 75.9218 17.8541 76.418C17.3624 76.9141 16.6944 77.1956 15.996 77.2009C15.297 77.1969 14.6282 76.9159 14.1361 76.4195C13.644 75.9231 13.3689 75.2518 13.371 74.5528Z" fill="#FF5A3C"/>
</g>
</g>
<g id="Group 4198">
<g id="Group 4197">
<path id="Path 56871" d="M149.595 77.2009C149.25 77.2 148.908 77.1304 148.59 76.9962C148.272 76.8619 147.984 76.6657 147.743 76.4189C147.378 76.0521 147.13 75.5854 147.03 75.0778C146.93 74.5701 146.983 74.0443 147.182 73.5666C147.38 73.0888 147.716 72.6807 148.146 72.3935C148.577 72.1064 149.083 71.9531 149.6 71.9531C150.117 71.9531 150.623 72.1064 151.054 72.3935C151.484 72.6807 151.82 73.0888 152.018 73.5666C152.217 74.0443 152.27 74.5701 152.17 75.0778C152.07 75.5854 151.822 76.0521 151.457 76.4189C151.214 76.6669 150.925 76.8638 150.605 76.9981C150.285 77.1324 149.942 77.2014 149.595 77.2009Z" fill="#FF5A3C"/>
</g>
</g>
</g>
<g id="Group 4206">
<g id="Group 4201">
<g id="Group 4200">
<path id="Path 56872" d="M2.63998 91.333C2.1168 91.3289 1.60646 91.1705 1.17294 90.8776C0.739422 90.5847 0.402019 90.1703 0.20306 89.6864C0.00410049 89.2025 -0.0475657 88.6707 0.0545309 88.1575C0.156628 87.6444 0.407945 87.1728 0.776974 86.8019C1.27958 86.3293 1.94355 86.0662 2.63348 86.0662C3.32341 86.0662 3.98738 86.3293 4.48999 86.8019C4.85781 87.1722 5.10846 87.6426 5.21072 88.1544C5.31298 88.6662 5.26231 89.1967 5.06503 89.6799C4.86774 90.1631 4.5326 90.5775 4.10135 90.8715C3.67009 91.1654 3.16184 91.3259 2.63998 91.333Z" fill="#FF5A3C"/>
</g>
</g>
<g id="Group 4203">
<g id="Group 4202">
<path id="Path 56873" d="M133.613 88.682C133.61 87.9825 133.885 87.3105 134.378 86.8137C134.87 86.317 135.54 86.0361 136.239 86.033C136.586 86.0335 136.929 86.1026 137.249 86.2364C137.569 86.3702 137.859 86.566 138.103 86.8126C138.347 87.0591 138.54 87.3515 138.67 87.6728C138.801 87.9942 138.866 88.3382 138.863 88.685C138.865 89.3836 138.589 90.0544 138.098 90.5507C137.606 91.0469 136.938 91.3282 136.239 91.333C135.54 91.3266 134.872 91.0445 134.38 90.548C133.888 90.0515 133.613 89.3808 133.613 88.682ZM120.255 88.682C120.252 87.983 120.527 87.3115 121.018 86.8148C121.51 86.3181 122.179 86.0369 122.878 86.033C123.225 86.0341 123.567 86.1036 123.887 86.2374C124.207 86.3712 124.497 86.5668 124.741 86.8128C124.985 87.0588 125.178 87.3506 125.309 87.6713C125.44 87.992 125.507 88.3355 125.505 88.682C125.505 89.3807 125.229 90.0512 124.737 90.5473C124.245 91.0433 123.577 91.3247 122.878 91.33C122.179 91.3252 121.511 91.0439 121.02 90.5476C120.528 90.0513 120.253 89.3805 120.255 88.682ZM106.895 88.682C106.892 88.3353 106.958 87.9916 107.088 87.6704C107.219 87.3493 107.411 87.0572 107.655 86.8109C107.899 86.5647 108.189 86.3691 108.509 86.2356C108.829 86.1021 109.172 86.0332 109.519 86.033C109.865 86.0344 110.208 86.1041 110.528 86.238C110.847 86.3719 111.137 86.5675 111.381 86.8134C111.625 87.0594 111.818 87.3511 111.949 87.6717C112.08 87.9923 112.147 88.3356 112.145 88.682C112.147 89.3812 111.872 90.0528 111.38 90.5492C110.887 91.0457 110.218 91.3265 109.519 91.33C108.82 91.3265 108.151 91.0457 107.659 90.5491C107.167 90.0526 106.892 89.381 106.895 88.682ZM93.537 88.682C93.5344 88.3355 93.6003 87.9918 93.7309 87.6709C93.8615 87.3499 94.0543 87.058 94.2981 86.8118C94.542 86.5656 94.8321 86.3701 95.1518 86.2364C95.4715 86.1027 95.8145 86.0336 96.161 86.033C96.8607 86.0367 97.5303 86.3181 98.0226 86.8154C98.5148 87.3128 98.7894 87.9852 98.786 88.685C98.7858 89.3832 98.5098 90.0531 98.0183 90.549C97.5267 91.0449 96.8592 91.3266 96.161 91.333C95.4616 91.329 94.7924 91.0476 94.3004 90.5505C93.8083 90.0534 93.5338 89.3814 93.537 88.682ZM80.166 88.682C80.164 88.3358 80.2303 87.9927 80.361 87.6721C80.4918 87.3516 80.6844 87.06 80.9279 86.814C81.1714 86.568 81.4611 86.3723 81.7802 86.2383C82.0994 86.1043 82.4418 86.0345 82.788 86.033C83.1347 86.0328 83.478 86.1014 83.7981 86.2348C84.1182 86.3682 84.4086 86.5637 84.6526 86.81C84.8966 87.0564 85.0894 87.3487 85.2197 87.67C85.3501 87.9913 85.4154 88.3352 85.412 88.682C85.4148 89.0284 85.349 89.3719 85.2185 89.6928C85.0879 90.0137 84.8952 90.3056 84.6514 90.5517C84.4076 90.7978 84.1176 90.9933 83.798 91.1268C83.4783 91.2604 83.1354 91.3294 82.789 91.33C82.0903 91.3257 81.4218 91.0446 80.9301 90.5482C80.4384 90.0518 80.1636 89.3807 80.166 88.682ZM66.81 88.682C66.8079 88.3357 66.8741 87.9924 67.0049 87.6717C67.1356 87.3511 67.3283 87.0594 67.572 86.8133C67.8156 86.5673 68.1054 86.3717 68.4248 86.2378C68.7441 86.1039 69.0867 86.0343 69.433 86.033C69.7795 86.0336 70.1225 86.1027 70.4422 86.2364C70.7619 86.3701 71.052 86.5656 71.2958 86.8118C71.5397 87.058 71.7325 87.3499 71.8631 87.6709C71.9937 87.9918 72.0596 88.3355 72.057 88.682C72.0587 89.0282 71.9922 89.3713 71.8612 89.6918C71.7302 90.0123 71.5374 90.3038 71.2937 90.5497C71.05 90.7956 70.7603 90.9911 70.441 91.125C70.1217 91.2589 69.7792 91.3285 69.433 91.33C68.7344 91.3255 68.066 91.0442 67.5744 90.5479C67.0827 90.0516 66.8078 89.3806 66.81 88.682ZM53.451 88.682C53.4486 88.3359 53.5146 87.9928 53.6452 87.6724C53.7757 87.3519 53.9683 87.0604 54.2119 86.8145C54.4554 86.5687 54.7451 86.3733 55.0643 86.2397C55.3835 86.1061 55.726 86.0369 56.072 86.036C56.4185 86.0355 56.7617 86.1039 57.0816 86.237C57.4015 86.3701 57.6918 86.5653 57.9358 86.8114C58.1797 87.0575 58.3725 87.3496 58.5028 87.6706C58.6331 87.9917 58.6984 88.3355 58.695 88.682C58.6971 89.0281 58.6309 89.3713 58.5002 89.6918C58.3695 90.0123 58.1768 90.3039 57.9333 90.5499C57.6897 90.7959 57.4001 90.9914 57.0808 91.1252C56.7616 91.2591 56.4191 91.3286 56.073 91.33C55.3748 91.3244 54.7072 91.0428 54.2159 90.5467C53.7246 90.0505 53.4497 89.3802 53.451 88.682ZM40.093 88.682C40.09 88.3356 40.1555 87.9921 40.2858 87.6711C40.4161 87.3502 40.6086 87.0582 40.8522 86.812C41.0958 86.5658 41.3857 86.3702 41.7053 86.2365C42.0248 86.1028 42.3676 86.0336 42.714 86.033C43.0604 86.0344 43.4032 86.1041 43.7227 86.238C44.0422 86.3719 44.3322 86.5674 44.5761 86.8134C44.8201 87.0594 45.0132 87.351 45.1444 87.6716C45.2756 87.9922 45.3424 88.3355 45.341 88.682C45.3418 89.3802 45.0665 90.0504 44.5751 90.5465C44.0838 91.0425 43.4162 91.3241 42.718 91.33C42.3718 91.3288 42.0292 91.2593 41.7098 91.1255C41.3905 90.9917 41.1007 90.7962 40.857 90.5502C40.6134 90.3042 40.4206 90.0126 40.2899 89.692C40.1591 89.3714 40.0929 89.0282 40.095 88.682H40.093ZM26.733 88.682C26.7297 88.3354 26.7951 87.9915 26.9254 87.6703C27.0558 87.3492 27.2484 87.057 27.4923 86.8107C27.7362 86.5644 28.0264 86.3688 28.3463 86.2354C28.6662 86.1019 29.0094 86.0331 29.356 86.033C29.7024 86.0341 30.0452 86.1036 30.3647 86.2375C30.6842 86.3713 30.9742 86.5669 31.218 86.8129C31.4618 87.059 31.6547 87.3507 31.7857 87.6714C31.9166 87.9922 31.983 88.3356 31.981 88.682C31.9821 89.3806 31.7066 90.0513 31.2147 90.5474C30.7229 91.0436 30.0546 91.3249 29.356 91.33C29.0098 91.3288 28.6672 91.2593 28.3478 91.1255C28.0285 90.9917 27.7387 90.7962 27.495 90.5502C27.2514 90.3042 27.0586 90.0126 26.9279 89.692C26.7971 89.3714 26.7309 89.0282 26.733 88.682ZM13.374 88.682C13.3709 88.3355 13.4365 87.9919 13.5669 87.6709C13.6972 87.3499 13.8898 87.0579 14.1335 86.8116C14.3772 86.5654 14.6673 86.3698 14.9869 86.2362C15.3066 86.1025 15.6495 86.0335 15.996 86.033C16.3423 86.0344 16.6849 86.1041 17.0042 86.238C17.3236 86.372 17.6134 86.5675 17.8571 86.8136C18.1008 87.0596 18.2936 87.3512 18.4245 87.6718C18.5554 87.9924 18.6218 88.3357 18.62 88.682C18.6218 89.3803 18.347 90.051 17.8557 90.5473C17.3643 91.0435 16.6963 91.3249 15.998 91.33C15.6518 91.3286 15.3091 91.2591 14.9898 91.1253C14.6705 90.9914 14.3807 90.7959 14.137 90.55C13.8933 90.3041 13.7004 90.0125 13.5695 89.6919C13.4386 89.3714 13.3721 89.0282 13.374 88.682Z" fill="#FF5A3C"/>
</g>
</g>
<g id="Group 4205">
<g id="Group 4204">
<path id="Path 56874" d="M149.595 91.3329C148.897 91.3235 148.23 91.0405 147.739 90.5448C147.247 90.049 146.97 89.3801 146.966 88.6819C146.976 87.9791 147.254 87.3066 147.743 86.8019C148.11 86.4316 148.58 86.1796 149.092 86.0781C149.604 85.9766 150.134 86.0303 150.615 86.2323C151.096 86.4344 151.506 86.7755 151.792 87.212C152.077 87.6484 152.226 88.1603 152.219 88.6819C152.221 89.0284 152.155 89.3718 152.024 89.6925C151.893 90.0133 151.7 90.3051 151.457 90.5513C151.213 90.7975 150.923 90.9933 150.604 91.1274C150.284 91.2615 149.941 91.3314 149.595 91.3329Z" fill="#FF5A3C"/>
</g>
</g>
</g>
<g id="Group 4213">
<g id="Group 4208">
<g id="Group 4207">
<path id="Path 56875" d="M2.62699 105.895C1.93291 105.894 1.26723 105.619 0.774967 105.13C0.286978 104.626 0.0137965 103.952 0.0129732 103.25C0.0118795 102.552 0.285593 101.881 0.774967 101.383C1.27185 100.891 1.94393 100.616 2.64334 100.619C3.34276 100.622 4.01225 100.903 4.50449 101.4C4.99673 101.897 5.27141 102.569 5.26813 103.269C5.26485 103.968 4.98386 104.638 4.48697 105.13C4.24254 105.373 3.95243 105.566 3.63324 105.698C3.31406 105.829 2.97211 105.896 2.62699 105.895Z" fill="#FF5A3C"/>
</g>
</g>
<g id="Group 4210">
<g id="Group 4209">
<path id="Path 56876" d="M133.613 103.247C133.613 102.548 133.888 101.877 134.38 101.381C134.872 100.884 135.54 100.602 136.239 100.596C136.585 100.598 136.928 100.667 137.248 100.801C137.567 100.936 137.857 101.131 138.1 101.378C138.344 101.624 138.537 101.916 138.668 102.236C138.799 102.557 138.865 102.901 138.863 103.247C138.865 103.593 138.799 103.937 138.668 104.257C138.537 104.578 138.345 104.87 138.101 105.116C137.857 105.362 137.567 105.557 137.248 105.691C136.928 105.825 136.585 105.894 136.239 105.895C135.54 105.892 134.87 105.611 134.378 105.114C133.886 104.618 133.611 103.946 133.613 103.247ZM120.255 103.247C120.254 102.549 120.529 101.879 121.02 101.383C121.512 100.887 122.18 100.606 122.878 100.602C123.576 100.606 124.245 100.887 124.737 101.383C125.229 101.878 125.505 102.548 125.505 103.247C125.506 103.593 125.44 103.936 125.308 104.257C125.177 104.577 124.984 104.868 124.74 105.114C124.496 105.36 124.206 105.555 123.886 105.688C123.567 105.822 123.224 105.891 122.878 105.892C122.532 105.891 122.19 105.821 121.871 105.687C121.552 105.554 121.262 105.358 121.019 105.113C120.775 104.867 120.582 104.576 120.451 104.256C120.32 103.936 120.254 103.593 120.255 103.247ZM106.895 103.247C106.893 102.901 106.96 102.558 107.091 102.237C107.222 101.917 107.415 101.625 107.659 101.379C107.902 101.134 108.192 100.938 108.511 100.804C108.83 100.67 109.173 100.601 109.519 100.599C110.218 100.602 110.888 100.883 111.38 101.379C111.872 101.876 112.148 102.548 112.145 103.247C112.147 103.593 112.08 103.936 111.949 104.257C111.818 104.577 111.625 104.869 111.381 105.114C111.137 105.36 110.847 105.555 110.527 105.689C110.208 105.822 109.865 105.891 109.519 105.892C109.173 105.892 108.83 105.824 108.51 105.69C108.19 105.557 107.9 105.362 107.656 105.116C107.412 104.87 107.219 104.579 107.088 104.258C106.958 103.937 106.892 103.593 106.895 103.247ZM93.537 103.247C93.5351 102.901 93.6015 102.558 93.7323 102.237C93.8631 101.917 94.0557 101.626 94.2992 101.38C94.5427 101.134 94.8323 100.938 95.1514 100.804C95.4705 100.67 95.8129 100.601 96.159 100.599C96.8577 100.603 97.5263 100.884 98.0182 101.381C98.5101 101.877 98.7851 102.548 98.783 103.247C98.7851 103.593 98.7189 103.936 98.5881 104.256C98.4574 104.577 98.2647 104.868 98.0211 105.114C97.7775 105.36 97.4878 105.555 97.1686 105.688C96.8494 105.822 96.507 105.891 96.161 105.892C95.8146 105.892 95.4718 105.823 95.1521 105.69C94.8324 105.557 94.5423 105.362 94.2984 105.116C94.0544 104.87 93.8616 104.578 93.7309 104.257C93.6002 103.937 93.5343 103.593 93.537 103.247ZM80.166 103.247C80.1638 102.548 80.439 101.876 80.9312 101.379C81.4234 100.882 82.0925 100.6 82.7919 100.596C83.1382 100.597 83.4807 100.667 83.8 100.801C84.1192 100.935 84.409 101.13 84.6527 101.376C84.8964 101.622 85.0892 101.914 85.2202 102.234C85.3511 102.555 85.4177 102.898 85.416 103.244C85.4189 103.591 85.353 103.935 85.2222 104.256C85.0915 104.577 84.8983 104.87 84.6539 105.116C84.4096 105.362 84.1189 105.557 83.7986 105.691C83.4783 105.824 83.1348 105.892 82.7879 105.892C82.4421 105.891 82.0999 105.821 81.781 105.687C81.462 105.554 81.1725 105.358 80.929 105.113C80.6855 104.867 80.4928 104.576 80.3619 104.256C80.231 103.936 80.1644 103.593 80.166 103.247ZM66.809 103.247C66.8079 102.549 67.0828 101.879 67.5738 101.383C68.0648 100.887 68.732 100.605 69.43 100.599C70.1298 100.602 70.7996 100.884 71.2922 101.381C71.7848 101.878 72.0599 102.55 72.057 103.25C72.0592 103.596 71.993 103.939 71.8622 104.26C71.7314 104.58 71.5385 104.872 71.2947 105.118C71.0509 105.364 70.7609 105.559 70.4414 105.692C70.1219 105.825 69.7792 105.894 69.433 105.895C69.0868 105.894 68.7442 105.824 68.425 105.69C68.1057 105.556 67.8159 105.361 67.5723 105.115C67.3286 104.869 67.1357 104.577 67.0047 104.257C66.8738 103.936 66.8073 103.593 66.809 103.247ZM53.45 103.247C53.4473 102.548 53.7222 101.876 54.2143 101.379C54.7064 100.882 55.3756 100.6 56.075 100.596C56.7737 100.601 57.4421 100.883 57.9333 101.38C58.4245 101.877 58.6984 102.548 58.695 103.247C58.6975 103.594 58.6314 103.937 58.5005 104.258C58.3696 104.579 58.1766 104.871 57.9324 105.118C57.6882 105.364 57.3978 105.559 57.0778 105.692C56.7579 105.826 56.4146 105.895 56.068 105.895C55.3698 105.89 54.702 105.609 54.2111 105.113C53.7202 104.616 53.4465 103.945 53.45 103.247ZM40.091 103.247C40.0907 102.549 40.3662 101.879 40.8574 101.383C41.3487 100.887 42.0159 100.605 42.714 100.599C43.413 100.605 44.0813 100.887 44.5733 101.384C45.0653 101.88 45.3413 102.551 45.341 103.25C45.3424 103.596 45.2757 103.939 45.1447 104.259C45.0136 104.579 44.8208 104.87 44.5773 105.116C44.3337 105.361 44.0441 105.557 43.7251 105.69C43.4061 105.824 43.0639 105.894 42.718 105.895C42.3719 105.893 42.0294 105.824 41.7103 105.69C41.3911 105.556 41.1015 105.36 40.8579 105.114C40.6143 104.868 40.4216 104.577 40.2907 104.257C40.1598 103.936 40.0932 103.593 40.095 103.247H40.091ZM26.733 103.247C26.7311 102.901 26.7976 102.558 26.9285 102.238C27.0593 101.917 27.2521 101.626 27.4958 101.38C27.7394 101.135 28.0291 100.939 28.3483 100.806C28.6675 100.672 29.01 100.603 29.356 100.602C30.0548 100.606 30.7233 100.888 31.2153 101.384C31.7073 101.88 31.9826 102.551 31.981 103.25C31.9827 103.596 31.9162 103.939 31.7853 104.259C31.6544 104.579 31.4617 104.87 31.2182 105.116C30.9747 105.362 30.6852 105.557 30.3661 105.69C30.0471 105.824 29.7049 105.894 29.359 105.895C29.012 105.896 28.6683 105.828 28.3478 105.695C28.0274 105.562 27.7365 105.366 27.4922 105.12C27.2479 104.874 27.0549 104.581 26.9246 104.26C26.7942 103.938 26.7291 103.594 26.733 103.247ZM13.374 103.247C13.372 102.901 13.4383 102.557 13.5692 102.237C13.7001 101.916 13.8929 101.625 14.1366 101.379C14.3804 101.133 14.6703 100.937 14.9896 100.803C15.309 100.67 15.6517 100.6 15.998 100.599C16.6963 100.604 17.3643 100.885 17.8556 101.382C18.347 101.878 18.6218 102.549 18.62 103.247C18.6217 103.593 18.5551 103.936 18.4241 104.256C18.2931 104.577 18.1002 104.868 17.8565 105.114C17.6128 105.359 17.323 105.555 17.0037 105.688C16.6845 105.822 16.342 105.891 15.996 105.892C15.6497 105.892 15.3068 105.824 14.9871 105.69C14.6674 105.557 14.3772 105.362 14.1334 105.116C13.8896 104.87 13.697 104.578 13.5666 104.258C13.4363 103.937 13.3708 103.593 13.374 103.247Z" fill="#FF5A3C"/>
</g>
</g>
<g id="Group 4212">
<g id="Group 4211">
<path id="Path 56877" d="M149.595 105.895C148.901 105.893 148.236 105.618 147.743 105.13C147.252 104.625 146.975 103.951 146.968 103.247C146.968 102.549 147.245 101.879 147.739 101.386C148.232 100.892 148.902 100.615 149.6 100.615C150.298 100.615 150.967 100.892 151.461 101.386C151.955 101.879 152.232 102.549 152.232 103.247C152.224 103.949 151.948 104.622 151.459 105.127C150.963 105.618 150.293 105.894 149.595 105.895Z" fill="#FF5A3C"/>
</g>
</g>
</g>
</g>
<g id="Group 4236">
<g id="Group 4221">
<g id="Group 4216">
<g id="Group 4215">
<path id="Path 56878" d="M2.62698 121.414C2.28152 121.413 1.93966 121.343 1.62158 121.208C1.30351 121.074 1.01564 120.877 0.774963 120.629C0.28832 120.13 0.0159607 119.46 0.0159607 118.763C0.0159607 118.066 0.28832 117.397 0.774963 116.898C1.27449 116.42 1.93815 116.152 2.62927 116.149C3.32039 116.146 3.98637 116.408 4.48999 116.882C4.97446 117.389 5.24733 118.061 5.25299 118.763C5.25073 119.46 4.97667 120.13 4.48898 120.629C4.24717 120.878 3.95768 121.076 3.63779 121.211C3.31789 121.345 2.97414 121.414 2.62698 121.414Z" fill="#FF5A3C"/>
</g>
</g>
<g id="Group 4218">
<g id="Group 4217">
<path id="Path 56879" d="M133.613 118.765C133.611 118.418 133.678 118.075 133.809 117.754C133.94 117.433 134.133 117.141 134.376 116.895C134.62 116.648 134.91 116.453 135.23 116.318C135.55 116.184 135.892 116.114 136.239 116.113C136.586 116.113 136.929 116.183 137.248 116.316C137.568 116.45 137.858 116.646 138.102 116.892C138.346 117.138 138.539 117.43 138.669 117.751C138.8 118.072 138.866 118.416 138.863 118.763C138.866 119.462 138.592 120.134 138.1 120.631C137.608 121.128 136.938 121.41 136.239 121.414C135.54 121.409 134.871 121.128 134.379 120.631C133.887 120.135 133.612 119.464 133.613 118.765ZM120.255 118.765C120.253 118.419 120.32 118.075 120.45 117.755C120.581 117.434 120.774 117.143 121.018 116.897C121.261 116.651 121.551 116.455 121.87 116.321C122.189 116.187 122.532 116.117 122.878 116.116C123.225 116.116 123.568 116.185 123.888 116.318C124.208 116.452 124.499 116.647 124.743 116.894C124.987 117.14 125.18 117.432 125.311 117.753C125.442 118.074 125.508 118.418 125.505 118.765C125.506 119.464 125.231 120.135 124.738 120.632C124.246 121.128 123.577 121.409 122.878 121.414C122.18 121.408 121.512 121.127 121.02 120.63C120.529 120.134 120.254 119.463 120.255 118.765ZM106.894 118.765C106.891 118.418 106.957 118.074 107.088 117.753C107.218 117.432 107.411 117.14 107.655 116.894C107.899 116.647 108.189 116.452 108.509 116.318C108.829 116.184 109.172 116.115 109.519 116.115C110.219 116.118 110.889 116.399 111.382 116.896C111.875 117.393 112.15 118.065 112.148 118.765C112.148 119.464 111.871 120.135 111.379 120.631C110.887 121.128 110.218 121.41 109.519 121.416C109.173 121.414 108.83 121.344 108.51 121.21C108.191 121.075 107.901 120.879 107.657 120.633C107.414 120.387 107.221 120.095 107.09 119.774C106.959 119.453 106.893 119.109 106.895 118.763L106.894 118.765ZM93.541 118.765C93.5374 118.418 93.6025 118.075 93.7326 117.753C93.8626 117.432 94.055 117.14 94.2986 116.894C94.5422 116.647 94.8322 116.452 95.1519 116.318C95.4715 116.184 95.8145 116.115 96.161 116.115C96.5075 116.116 96.8503 116.186 97.1698 116.321C97.4892 116.455 97.7792 116.651 98.0229 116.897C98.2667 117.143 98.4595 117.435 98.5905 117.756C98.7214 118.077 98.7879 118.42 98.786 118.767C98.7881 119.465 98.5134 120.135 98.0221 120.631C97.5308 121.127 96.863 121.408 96.165 121.412C95.8184 121.412 95.4752 121.343 95.1554 121.209C94.8355 121.076 94.5452 120.88 94.3013 120.634C94.0573 120.388 93.8646 120.095 93.7341 119.774C93.6036 119.453 93.538 119.109 93.541 118.763V118.765ZM80.179 118.765C80.1758 118.419 80.2409 118.077 80.3705 117.756C80.5 117.436 80.6915 117.144 80.934 116.898C81.1764 116.652 81.4651 116.456 81.7834 116.322C82.1017 116.187 82.4435 116.117 82.789 116.115C83.1365 116.115 83.4805 116.184 83.8013 116.318C84.1221 116.451 84.4134 116.647 84.6584 116.893C84.9035 117.14 85.0975 117.432 85.2294 117.753C85.3613 118.075 85.4285 118.419 85.427 118.767C85.4273 119.468 85.1497 120.14 84.655 120.637C84.1603 121.133 83.4889 121.413 82.788 121.416C82.4425 121.413 82.1009 121.342 81.7828 121.207C81.4647 121.072 81.1763 120.876 80.934 120.63C80.6917 120.383 80.5004 120.092 80.3708 119.771C80.2413 119.451 80.1761 119.108 80.179 118.763V118.765ZM66.809 118.765C66.8069 118.419 66.873 118.075 67.0037 117.755C67.1343 117.434 67.3268 117.143 67.5702 116.897C67.8136 116.65 68.1032 116.455 68.4223 116.321C68.7414 116.186 69.0838 116.116 69.43 116.115C69.7769 116.115 70.1204 116.184 70.4405 116.318C70.7606 116.452 71.0511 116.648 71.2953 116.894C71.5394 117.141 71.7324 117.433 71.8632 117.754C71.9939 118.076 72.0598 118.42 72.057 118.767C72.0584 119.113 71.9917 119.456 71.8606 119.776C71.7295 120.096 71.5366 120.387 71.293 120.633C71.0493 120.879 70.7596 121.074 70.4405 121.207C70.1213 121.341 69.779 121.41 69.433 121.412C68.7339 121.408 68.0648 121.127 67.5728 120.63C67.0808 120.134 66.8061 119.462 66.809 118.763V118.765ZM53.45 118.765C53.448 118.418 53.5144 118.075 53.6453 117.754C53.7761 117.433 53.969 117.141 54.2128 116.895C54.4566 116.648 54.7465 116.453 55.0661 116.318C55.3856 116.184 55.7285 116.114 56.075 116.113C56.4215 116.114 56.7645 116.183 57.0841 116.317C57.4037 116.451 57.6938 116.646 57.9376 116.893C58.1814 117.139 58.3742 117.431 58.5049 117.752C58.6355 118.073 58.7015 118.416 58.699 118.763C58.7017 119.463 58.4265 120.135 57.934 120.632C57.4414 121.129 56.7718 121.41 56.072 121.414C55.374 121.407 54.7068 121.125 54.2157 120.629C53.7247 120.133 53.4495 119.463 53.45 118.765ZM40.091 118.765C40.0881 118.066 40.3626 117.394 40.8544 116.897C41.3462 116.4 42.015 116.119 42.714 116.115C43.4139 116.119 44.0835 116.4 44.576 116.897C45.0685 117.395 45.3437 118.067 45.341 118.767C45.3418 119.465 45.0666 120.135 44.5752 120.632C44.0839 121.128 43.4163 121.41 42.718 121.416C42.0193 121.409 41.3515 121.126 40.8603 120.629C40.369 120.132 40.0939 119.462 40.095 118.763L40.091 118.765ZM26.733 118.765C26.7301 118.418 26.7958 118.075 26.9263 117.754C27.0568 117.433 27.2495 117.141 27.4933 116.895C27.7371 116.649 28.0273 116.454 28.347 116.32C28.6667 116.187 29.0096 116.118 29.356 116.118C29.7024 116.119 30.0451 116.189 30.3646 116.323C30.684 116.456 30.9739 116.652 31.2177 116.898C31.4615 117.144 31.6544 117.436 31.7854 117.756C31.9164 118.077 31.9829 118.42 31.981 118.767C31.9824 119.465 31.7074 120.136 31.2162 120.632C30.7249 121.128 30.0573 121.41 29.359 121.416C28.659 121.412 27.9891 121.131 27.4967 120.633C27.0043 120.136 26.7295 119.463 26.733 118.763V118.765ZM13.374 118.765C13.3707 118.418 13.4362 118.074 13.5666 117.752C13.6971 117.43 13.89 117.138 14.1342 116.891C14.3783 116.645 14.6689 116.449 14.9892 116.315C15.3094 116.182 15.653 116.113 16 116.113C16.3463 116.114 16.6889 116.184 17.0082 116.318C17.3275 116.452 17.6172 116.648 17.8608 116.894C18.1044 117.14 18.2971 117.432 18.4279 117.753C18.5587 118.073 18.625 118.417 18.623 118.763C18.6236 119.462 18.3477 120.133 17.8556 120.629C17.3635 121.126 16.6951 121.408 15.996 121.414C15.6499 121.412 15.3075 121.342 14.9884 121.208C14.6693 121.074 14.3797 120.878 14.1362 120.632C13.8927 120.386 13.7001 120.095 13.5693 119.774C13.4385 119.454 13.3721 119.111 13.374 118.765Z" fill="#FF5A3C"/>
</g>
</g>
<g id="Group 4220">
<g id="Group 4219">
<path id="Path 56880" d="M149.595 121.414C149.249 121.413 148.908 121.344 148.589 121.209C148.271 121.074 147.984 120.877 147.743 120.629C147.251 120.135 146.975 119.466 146.975 118.769C146.974 118.072 147.249 117.404 147.74 116.909C148.231 116.414 148.898 116.134 149.595 116.128C150.291 116.123 150.962 116.394 151.46 116.882C151.946 117.388 152.222 118.061 152.23 118.763C152.225 119.462 151.948 120.131 151.457 120.629C151.215 120.878 150.926 121.076 150.606 121.211C150.286 121.346 149.942 121.415 149.595 121.414Z" fill="#FF5A3C"/>
</g>
</g>
</g>
<g id="Group 4228">
<g id="Group 4223">
<g id="Group 4222">
<path id="Path 56881" d="M2.62698 135.989C1.93106 135.984 1.26537 135.704 0.774963 135.21C0.287066 134.708 0.0140991 134.036 0.0140991 133.336C0.0140991 132.637 0.287066 131.964 0.774963 131.463C1.14245 131.093 1.61201 130.841 2.12347 130.74C2.63493 130.639 3.16501 130.692 3.64575 130.894C4.12649 131.096 4.53599 131.437 4.82181 131.873C5.10762 132.309 5.25671 132.82 5.24997 133.342C5.24861 134.04 4.97569 134.71 4.48898 135.21C3.99488 135.704 3.32593 135.984 2.62698 135.989Z" fill="#FF5A3C"/>
</g>
</g>
<g id="Group 4225">
<g id="Group 4224">
<path id="Path 56882" d="M133.611 133.342C133.61 132.995 133.676 132.652 133.808 132.332C133.939 132.011 134.132 131.719 134.376 131.474C134.62 131.228 134.911 131.032 135.23 130.899C135.55 130.765 135.893 130.696 136.239 130.695C136.585 130.695 136.928 130.764 137.248 130.897C137.568 131.031 137.858 131.226 138.102 131.472C138.346 131.718 138.539 132.01 138.669 132.331C138.8 132.652 138.866 132.995 138.863 133.342C138.865 133.688 138.798 134.031 138.667 134.352C138.536 134.673 138.343 134.964 138.1 135.21C137.856 135.456 137.566 135.652 137.247 135.786C136.928 135.92 136.585 135.99 136.239 135.992C135.54 135.986 134.872 135.704 134.38 135.208C133.887 134.711 133.611 134.041 133.611 133.342ZM120.26 133.342C120.258 132.996 120.323 132.653 120.454 132.333C120.584 132.012 120.777 131.721 121.02 131.475C121.263 131.229 121.552 131.034 121.871 130.9C122.19 130.766 122.532 130.696 122.878 130.695C123.224 130.696 123.567 130.765 123.886 130.899C124.206 131.033 124.496 131.228 124.74 131.474C124.984 131.72 125.177 132.011 125.308 132.332C125.44 132.652 125.506 132.995 125.505 133.342C125.505 134.04 125.229 134.711 124.737 135.207C124.245 135.702 123.577 135.984 122.878 135.989C122.532 135.987 122.19 135.917 121.872 135.783C121.553 135.649 121.264 135.453 121.021 135.208C120.777 134.962 120.585 134.671 120.455 134.35C120.324 134.03 120.258 133.688 120.26 133.342ZM106.895 133.342C106.892 132.995 106.958 132.652 107.089 132.331C107.22 132.01 107.412 131.718 107.656 131.472C107.9 131.226 108.19 131.031 108.51 130.898C108.83 130.764 109.173 130.695 109.519 130.695C109.865 130.696 110.208 130.765 110.528 130.899C110.847 131.033 111.137 131.228 111.381 131.474C111.625 131.72 111.818 132.011 111.949 132.332C112.08 132.652 112.147 132.995 112.145 133.342C112.146 134.041 111.871 134.712 111.379 135.209C110.887 135.705 110.218 135.987 109.519 135.992C108.82 135.988 108.151 135.706 107.659 135.209C107.167 134.713 106.892 134.041 106.895 133.342ZM93.537 133.342C93.5342 132.995 93.6 132.652 93.7307 132.331C93.8614 132.01 94.0543 131.718 94.2983 131.472C94.5423 131.226 94.8326 131.03 95.1525 130.897C95.4724 130.764 95.8154 130.695 96.162 130.695C96.861 130.698 97.5302 130.979 98.0224 131.475C98.5146 131.971 98.7896 132.643 98.787 133.342C98.7875 134.04 98.5119 134.711 98.0203 135.207C97.5286 135.704 96.8606 135.986 96.162 135.992C95.4625 135.988 94.793 135.707 94.3008 135.21C93.8085 134.713 93.5338 134.041 93.537 133.342ZM80.182 133.342C80.1784 132.997 80.2431 132.654 80.3724 132.334C80.5016 132.014 80.6929 131.722 80.9352 131.476C81.1774 131.23 81.4659 131.035 81.784 130.901C82.1022 130.766 82.4437 130.697 82.789 130.695C83.1356 130.695 83.4788 130.764 83.7988 130.897C84.1187 131.03 84.4092 131.226 84.6533 131.472C84.8975 131.718 85.0906 132.01 85.2215 132.331C85.3524 132.652 85.4185 132.995 85.416 133.342C85.4178 133.688 85.3514 134.031 85.2205 134.352C85.0896 134.673 84.8968 134.964 84.6531 135.211C84.4094 135.457 84.1196 135.652 83.8003 135.786C83.4809 135.92 83.1383 135.99 82.792 135.992C82.4466 135.989 82.1051 135.919 81.787 135.784C81.4689 135.649 81.1805 135.453 80.9381 135.207C80.6957 134.961 80.5042 134.67 80.3745 134.35C80.2448 134.03 80.1793 133.687 80.182 133.342ZM66.809 133.342C66.8071 132.996 66.8736 132.652 67.0045 132.332C67.1354 132.012 67.3283 131.72 67.572 131.474C67.8157 131.228 68.1056 131.033 68.4249 130.899C68.7442 130.765 69.0868 130.696 69.433 130.695C69.7794 130.695 70.1223 130.764 70.442 130.898C70.7617 131.031 71.0518 131.226 71.2957 131.472C71.5396 131.718 71.7324 132.01 71.8631 132.331C71.9937 132.652 72.0596 132.995 72.057 133.342C72.0602 134.041 71.7855 134.713 71.2935 135.21C70.8015 135.707 70.1323 135.988 69.433 135.992C68.734 135.987 68.0654 135.706 67.5736 135.209C67.0818 134.712 66.8069 134.041 66.809 133.342ZM53.451 133.342C53.449 132.996 53.5153 132.653 53.646 132.333C53.7767 132.012 53.9692 131.721 54.2127 131.475C54.4561 131.229 54.7456 131.034 55.0647 130.9C55.3837 130.766 55.726 130.696 56.072 130.695C56.4186 130.696 56.7617 130.765 57.0814 130.899C57.4011 131.033 57.6912 131.229 57.935 131.475C58.1787 131.722 58.3714 132.014 58.5018 132.335C58.6322 132.656 58.6979 133 58.695 133.347C58.6968 134.045 58.4216 134.716 57.9297 135.212C57.4378 135.708 56.7694 135.988 56.071 135.992C55.3726 135.986 54.7049 135.704 54.2139 135.208C53.7229 134.711 53.4486 134.04 53.451 133.342ZM40.091 133.347C40.0874 133 40.1527 132.655 40.2832 132.334C40.4136 132.012 40.6066 131.719 40.8509 131.472C41.0952 131.226 41.3861 131.03 41.7065 130.897C42.027 130.763 42.3708 130.695 42.718 130.695C43.064 130.696 43.4063 130.766 43.7254 130.9C44.0445 131.034 44.3341 131.229 44.5777 131.475C44.8213 131.721 45.014 132.012 45.145 132.333C45.2759 132.653 45.3425 132.996 45.341 133.342C45.3418 134.041 45.066 134.712 44.5738 135.208C44.0816 135.705 43.4131 135.987 42.714 135.992C42.0161 135.988 41.3483 135.707 40.8573 135.211C40.3662 134.715 40.092 134.045 40.095 133.347H40.091ZM26.733 133.347C26.7291 133 26.7941 132.656 26.9242 132.334C27.0543 132.013 27.2469 131.72 27.4909 131.473C27.7348 131.227 28.0253 131.031 28.3455 130.897C28.6656 130.764 29.0091 130.695 29.356 130.695C29.7022 130.696 30.0447 130.766 30.364 130.899C30.6834 131.033 30.9732 131.229 31.217 131.474C31.4608 131.72 31.6537 132.012 31.7848 132.332C31.9159 132.652 31.9826 132.996 31.981 133.342C31.9826 134.041 31.7073 134.712 31.2154 135.209C30.7235 135.705 30.055 135.987 29.356 135.992C29.01 135.991 28.6676 135.921 28.3485 135.788C28.0294 135.654 27.7397 135.459 27.4961 135.213C27.2525 134.967 27.0596 134.676 26.9287 134.356C26.7978 134.036 26.7313 133.693 26.733 133.347ZM13.374 133.342C13.3712 132.995 13.437 132.652 13.5676 132.331C13.6982 132.01 13.891 131.718 14.1349 131.472C14.3789 131.226 14.669 131.031 14.9888 130.897C15.3085 130.764 15.6515 130.695 15.998 130.695C16.3442 130.696 16.6867 130.765 17.0061 130.899C17.3254 131.033 17.6152 131.228 17.8589 131.474C18.1026 131.72 18.2953 132.011 18.4261 132.332C18.5569 132.652 18.6231 132.996 18.621 133.342C18.6223 134.04 18.3473 134.711 17.8558 135.208C17.3644 135.704 16.6965 135.986 15.998 135.992C15.6516 135.99 15.3089 135.921 14.9895 135.787C14.6701 135.653 14.3802 135.457 14.1365 135.211C13.8928 134.965 13.7 134.673 13.5692 134.352C13.4383 134.032 13.372 133.688 13.374 133.342Z" fill="#FF5A3C"/>
</g>
</g>
<g id="Group 4227">
<g id="Group 4226">
<path id="Path 56883" d="M149.595 135.989C148.899 135.983 148.234 135.703 147.743 135.21C147.252 134.711 146.974 134.041 146.969 133.342C146.962 132.992 147.025 132.644 147.154 132.319C147.284 131.994 147.476 131.697 147.721 131.448C147.966 131.198 148.259 130.999 148.581 130.864C148.904 130.728 149.251 130.658 149.6 130.658C149.95 130.658 150.297 130.728 150.62 130.864C150.942 130.999 151.235 131.198 151.48 131.448C151.725 131.697 151.917 131.994 152.047 132.319C152.176 132.644 152.239 132.992 152.232 133.342C152.226 134.041 151.948 134.712 151.457 135.21C151.213 135.456 150.923 135.651 150.604 135.785C150.284 135.918 149.941 135.988 149.595 135.989Z" fill="#FF5A3C"/>
</g>
</g>
</g>
<g id="Group 4235">
<g id="Group 4230">
<g id="Group 4229">
<path id="Path 56884" d="M2.63998 150.108C1.94206 150.105 1.27276 149.83 0.774959 149.341C0.529058 149.097 0.333581 148.807 0.199672 148.488C0.0657624 148.169 -0.00393518 147.826 -0.00546735 147.48C-0.00699951 147.134 0.0596823 146.791 0.190761 146.47C0.321839 146.15 0.514746 145.858 0.758479 145.612C1.00221 145.366 1.29198 145.171 1.61126 145.037C1.93054 144.903 2.2731 144.833 2.61932 144.832C2.96554 144.83 3.30866 144.897 3.62912 145.028C3.94957 145.159 4.24106 145.352 4.48696 145.596C4.97733 146.096 5.25204 146.768 5.25204 147.468C5.25204 148.169 4.97733 148.841 4.48696 149.341C3.99529 149.828 3.33226 150.103 2.63998 150.108Z" fill="#FF5A3C"/>
</g>
</g>
<g id="Group 4232">
<g id="Group 4231">
<path id="Path 56885" d="M133.613 147.46C133.611 146.761 133.887 146.089 134.379 145.593C134.871 145.096 135.54 144.815 136.239 144.81C136.938 144.814 137.607 145.095 138.099 145.592C138.591 146.089 138.865 146.761 138.862 147.46C138.865 147.806 138.799 148.15 138.669 148.471C138.539 148.792 138.346 149.084 138.102 149.33C137.858 149.576 137.568 149.772 137.248 149.905C136.928 150.039 136.585 150.108 136.239 150.108C135.893 150.106 135.55 150.037 135.231 149.903C134.911 149.769 134.621 149.574 134.378 149.328C134.134 149.082 133.941 148.79 133.809 148.47C133.678 148.149 133.612 147.806 133.613 147.46ZM120.254 147.46C120.252 146.761 120.527 146.09 121.019 145.593C121.511 145.097 122.179 144.815 122.878 144.81C123.577 144.815 124.246 145.097 124.738 145.593C125.23 146.09 125.506 146.761 125.505 147.46C125.508 148.16 125.232 148.832 124.74 149.329C124.247 149.826 123.578 150.107 122.878 150.111C122.179 150.106 121.511 149.824 121.019 149.327C120.527 148.83 120.252 148.159 120.254 147.46ZM106.894 147.46C106.891 146.76 107.166 146.089 107.658 145.592C108.15 145.095 108.82 144.814 109.519 144.81C110.218 144.816 110.886 145.098 111.379 145.594C111.871 146.09 112.147 146.761 112.148 147.46C112.15 148.16 111.874 148.831 111.381 149.328C110.888 149.825 110.219 150.107 109.519 150.111C109.172 150.11 108.83 150.04 108.51 149.906C108.191 149.772 107.901 149.576 107.657 149.33C107.413 149.084 107.22 148.792 107.09 148.471C106.959 148.15 106.893 147.806 106.895 147.46H106.894ZM93.541 147.46C93.5387 147.113 93.6049 146.77 93.7356 146.449C93.8664 146.128 94.0592 145.836 94.3029 145.59C94.5467 145.344 94.8367 145.148 95.1562 145.014C95.4757 144.881 95.8185 144.811 96.165 144.81C96.8633 144.816 97.531 145.098 98.0221 145.594C98.5132 146.091 98.7878 146.761 98.786 147.46C98.7877 147.806 98.7211 148.149 98.5901 148.47C98.459 148.79 98.2661 149.082 98.0223 149.328C97.7785 149.574 97.4887 149.769 97.1693 149.903C96.8499 150.037 96.5073 150.107 96.161 150.108C95.8146 150.108 95.4717 150.039 95.1521 149.905C94.8326 149.772 94.5426 149.576 94.299 149.33C94.0554 149.084 93.863 148.792 93.7329 148.471C93.6028 148.15 93.5375 147.806 93.541 147.46ZM80.166 147.46C80.1646 146.761 80.4397 146.091 80.9311 145.594C81.4225 145.098 82.0904 144.816 82.789 144.81C83.1355 144.811 83.4783 144.881 83.7979 145.015C84.1174 145.149 84.4075 145.345 84.6514 145.591C84.8954 145.837 85.0885 146.128 85.2197 146.449C85.3508 146.77 85.4175 147.113 85.416 147.46C85.4189 147.806 85.3532 148.15 85.2226 148.471C85.0921 148.792 84.8993 149.084 84.6553 149.33C84.4114 149.576 84.1212 149.772 83.8014 149.905C83.4816 150.039 83.1385 150.108 82.7919 150.108C82.4456 150.107 82.1029 150.037 81.7835 149.903C81.4641 149.769 81.1741 149.574 80.9303 149.328C80.6864 149.082 80.4933 148.79 80.3622 148.47C80.2311 148.149 80.1644 147.806 80.166 147.46ZM66.809 147.46C66.8068 146.761 67.0816 146.09 67.5732 145.593C68.0648 145.096 68.7332 144.815 69.432 144.81C69.7785 144.812 70.1213 144.882 70.4408 145.016C70.7603 145.15 71.0502 145.346 71.2939 145.593C71.5377 145.839 71.7305 146.131 71.8614 146.452C71.9924 146.773 72.0588 147.116 72.057 147.463C72.0589 147.809 71.9926 148.152 71.8617 148.473C71.7308 148.794 71.538 149.085 71.2943 149.331C71.0505 149.577 70.7607 149.773 70.4413 149.906C70.1219 150.04 69.7793 150.11 69.433 150.111C68.7338 150.106 68.0651 149.824 67.5732 149.327C67.0814 148.831 66.8066 148.159 66.809 147.46ZM53.45 147.46C53.4489 146.761 53.7239 146.091 54.215 145.595C54.7062 145.098 55.3737 144.816 56.072 144.81C56.4185 144.811 56.7614 144.881 57.081 145.015C57.4007 145.149 57.6908 145.344 57.9347 145.59C58.1787 145.836 58.3718 146.128 58.5029 146.449C58.634 146.77 58.7007 147.113 58.699 147.46C58.7017 147.806 58.6359 148.15 58.5053 148.471C58.3747 148.792 58.182 149.084 57.9381 149.33C57.6942 149.576 57.404 149.771 57.0842 149.905C56.7645 150.039 56.4215 150.107 56.075 150.108C55.7287 150.107 55.3861 150.037 55.0667 149.903C54.7473 149.769 54.4574 149.574 54.2136 149.328C53.9698 149.082 53.7769 148.79 53.6458 148.47C53.5148 148.149 53.4483 147.806 53.45 147.46ZM40.091 147.46C40.0894 146.761 40.3643 146.09 40.8558 145.594C41.3473 145.097 42.0154 144.815 42.714 144.81C43.4129 144.815 44.0813 145.096 44.573 145.593C45.0648 146.09 45.3398 146.761 45.338 147.46C45.3402 147.806 45.274 148.15 45.1433 148.47C45.0125 148.791 44.8196 149.083 44.5759 149.329C44.3321 149.575 44.0421 149.77 43.7226 149.904C43.4031 150.038 43.0603 150.107 42.714 150.108C42.3681 150.106 42.0259 150.036 41.707 149.902C41.3881 149.768 41.0988 149.573 40.8556 149.327C40.6123 149.081 40.42 148.789 40.2895 148.469C40.159 148.149 40.0929 147.806 40.095 147.46H40.091ZM26.733 147.46C26.7311 147.113 26.7976 146.77 26.9286 146.449C27.0597 146.128 27.2526 145.836 27.4965 145.59C27.7404 145.344 28.0305 145.149 28.3501 145.015C28.6696 144.881 29.0125 144.811 29.359 144.81C30.0567 144.816 30.7239 145.097 31.215 145.593C31.7062 146.088 31.9815 146.758 31.981 147.456C31.9828 147.803 31.9162 148.146 31.7851 148.468C31.6539 148.789 31.4606 149.081 31.2164 149.327C30.9723 149.573 30.6819 149.769 30.362 149.903C30.042 150.037 29.6988 150.107 29.352 150.108C29.0057 150.107 28.663 150.038 28.3436 149.905C28.0242 149.771 27.7344 149.575 27.4909 149.329C27.2475 149.083 27.0551 148.791 26.925 148.47C26.7949 148.149 26.7297 147.806 26.733 147.46ZM13.373 147.46C13.3709 147.113 13.4371 146.77 13.568 146.449C13.6989 146.128 13.8917 145.836 14.1356 145.59C14.3794 145.344 14.6695 145.148 14.989 145.014C15.3086 144.881 15.6515 144.811 15.998 144.81C16.6964 144.817 17.3638 145.099 17.8554 145.595C18.3469 146.091 18.6227 146.761 18.623 147.46C18.6248 148.159 18.3497 148.83 17.8577 149.327C17.3658 149.824 16.6971 150.106 15.998 150.111C15.6515 150.109 15.3086 150.04 14.9891 149.906C14.6696 149.772 14.3796 149.576 14.1358 149.33C13.892 149.083 13.6992 148.791 13.5683 148.471C13.4374 148.15 13.371 147.806 13.373 147.46Z" fill="#FF5A3C"/>
</g>
</g>
<g id="Group 4234">
<g id="Group 4233">
<path id="Path 56886" d="M149.595 150.108C148.901 150.105 148.236 149.83 147.743 149.341C147.253 148.837 146.975 148.163 146.968 147.46C146.973 147.03 147.084 146.607 147.29 146.23C147.497 145.853 147.793 145.532 148.152 145.295C148.512 145.059 148.924 144.915 149.352 144.875C149.78 144.836 150.212 144.902 150.609 145.068C151.005 145.235 151.355 145.496 151.627 145.829C151.9 146.162 152.086 146.557 152.17 146.979C152.253 147.401 152.232 147.837 152.108 148.249C151.984 148.661 151.76 149.036 151.457 149.341C150.96 149.83 150.292 150.105 149.595 150.108Z" fill="#FF5A3C"/>
</g>
</g>
</g>
</g>
</g>
</g>
</svg>
