<svg width="13" height="17" viewBox="0 0 13 17" fill="none" xmlns="http://www.w3.org/2000/svg">
<g id="Group 2017">
<g id="Group 2016">
<g id="Group 2015">
<path id="Path 20858" d="M6.02001 0C4.41346 0.0124226 2.87745 0.661663 1.74903 1.80527C0.620613 2.94887 -0.00804107 4.4934 0.00101197 6.09998C0.0367012 6.90599 0.209507 7.70005 0.51201 8.448C0.710328 8.90412 0.942649 9.34469 1.20701 9.76599L5.33501 16.1C5.40176 16.2236 5.50072 16.3269 5.6214 16.3989C5.74208 16.4709 5.87998 16.5089 6.02051 16.5089C6.16103 16.5089 6.29894 16.4709 6.41962 16.3989C6.5403 16.3269 6.63926 16.2236 6.70601 16.1L10.834 9.76498C11.0997 9.34361 11.3337 8.90307 11.534 8.44699C11.8356 7.69879 12.008 6.90487 12.044 6.099C12.0528 4.49174 11.4233 2.94669 10.2939 1.80316C9.1644 0.65963 7.62726 0.0111046 6.02001 0ZM10.877 8.16699C10.6956 8.58228 10.4833 8.98338 10.242 9.36697L6.11501 15.702C6.03401 15.827 6.00801 15.827 5.92601 15.702L1.79901 9.36697C1.55763 8.98359 1.34569 8.58245 1.16501 8.16699C0.899564 7.50731 0.745472 6.80814 0.709012 6.09799C0.699357 5.39434 0.829607 4.69579 1.0922 4.04291C1.3548 3.39002 1.7445 2.7958 2.23868 2.2948C2.73286 1.7938 3.32166 1.39598 3.97088 1.12445C4.6201 0.852922 5.31679 0.713104 6.02051 0.713104C6.72422 0.713104 7.42093 0.852922 8.07015 1.12445C8.71937 1.39598 9.30817 1.7938 9.80234 2.2948C10.2965 2.7958 10.6862 3.39002 10.9488 4.04291C11.2114 4.69579 11.3417 5.39434 11.332 6.09799C11.2948 6.80803 11.1417 7.50708 10.877 8.16699Z" fill="white"/>
<path id="Path 20859" d="M6.02002 2.8699C5.37962 2.86157 4.75121 3.04387 4.21468 3.39361C3.67816 3.74336 3.25776 4.24475 3.00694 4.83404C2.75612 5.42334 2.68621 6.07393 2.8061 6.70306C2.92599 7.3322 3.23027 7.91146 3.68023 8.36722C4.1302 8.82297 4.70553 9.13462 5.33309 9.26254C5.96064 9.39046 6.61205 9.3289 7.20451 9.08563C7.79696 8.84236 8.3037 8.4284 8.66028 7.89639C9.01685 7.36438 9.20717 6.73835 9.20702 6.0979C9.21155 5.24749 8.87854 4.43 8.28106 3.82483C7.68357 3.21966 6.87042 2.87625 6.02002 2.8699ZM6.02002 8.60889C5.52208 8.61523 5.0335 8.47338 4.61638 8.20135C4.19926 7.92933 3.87244 7.53941 3.67748 7.08118C3.48251 6.62295 3.42819 6.1171 3.52144 5.62793C3.61468 5.13875 3.85127 4.68836 4.20113 4.33398C4.55099 3.9796 4.99832 3.73723 5.48626 3.63772C5.9742 3.53821 6.48071 3.58604 6.94141 3.77511C7.4021 3.96419 7.79617 4.28599 8.07352 4.69958C8.35087 5.11318 8.49898 5.59992 8.49902 6.0979C8.50196 6.75922 8.24274 7.39477 7.77812 7.86539C7.31349 8.336 6.68133 8.60334 6.02002 8.60889Z" fill="white"/>
</g>
</g>
</g>
</svg>
