<svg width="10" height="13" viewBox="0 0 10 13" fill="none" xmlns="http://www.w3.org/2000/svg">
<g id="Group 2510">
<path id="Path 2560" d="M5.29896 0.659007C4.71887 0.630236 4.13891 0.71837 3.59356 0.918193C3.04821 1.11802 2.5486 1.42544 2.12443 1.82218C1.70025 2.21893 1.36017 2.69691 1.1244 3.2277C0.888621 3.7585 0.761963 4.33128 0.751953 4.912C0.751953 7.635 3.45195 9.61201 4.96295 12.453C4.98129 12.4857 5.00801 12.5129 5.04034 12.5318C5.07268 12.5507 5.10948 12.5607 5.14696 12.5607C5.18443 12.5607 5.22122 12.5507 5.25356 12.5318C5.2859 12.5129 5.31261 12.4857 5.33096 12.453C6.69896 9.89601 9.03795 8.18099 9.47195 5.71699C9.57263 5.10413 9.54102 4.47682 9.37925 3.87718C9.21748 3.27754 8.92929 2.71944 8.53404 2.24037C8.13879 1.76129 7.64562 1.37234 7.08764 1.09959C6.52966 0.826836 5.91979 0.676612 5.29896 0.659007ZM5.14696 7.14201C4.70911 7.12826 4.285 6.98584 3.92758 6.73255C3.57016 6.47927 3.29526 6.12631 3.13719 5.71775C2.97912 5.3092 2.94488 4.86314 3.03875 4.43525C3.13262 4.00736 3.35044 3.61658 3.66502 3.31172C3.97959 3.00685 4.377 2.8014 4.80762 2.72099C5.23825 2.64058 5.68302 2.68877 6.08642 2.85957C6.48982 3.03037 6.83398 3.31619 7.07594 3.68138C7.3179 4.04656 7.44693 4.47494 7.44695 4.913C7.43669 5.51322 7.18878 6.08487 6.75761 6.50254C6.32643 6.92022 5.7472 7.14983 5.14696 7.141V7.14201Z" fill="white"/>
</g>
</svg>
