<svg width="7" height="13" viewBox="0 0 7 13" fill="none" xmlns="http://www.w3.org/2000/svg">
<path d="M6.28906 4.0755L6.07812 6.138H4.41406V12.138H1.95312V6.138H0.710938V4.0755H1.92969V2.83331C1.92969 2.41144 1.96875 2.03644 2.04688 1.70831C2.14062 1.36456 2.29688 1.08331 2.51562 0.864563C2.73438 0.630188 3.00781 0.4505 3.33594 0.3255C3.67969 0.2005 4.10156 0.138 4.60156 0.138H6.26562V2.2005H5.23438C5.03125 2.2005 4.875 2.22394 4.76562 2.27081C4.65625 2.30206 4.57031 2.35675 4.50781 2.43488C4.46094 2.49738 4.42969 2.58331 4.41406 2.69269C4.39844 2.78644 4.39062 2.90363 4.39062 3.04425V4.0755H6.26562H6.28906Z" fill="white"/>
</svg>
