<svg width="17" height="13" viewBox="0 0 17 13" fill="none" xmlns="http://www.w3.org/2000/svg">
<g id="Group 2020">
<g id="Group 2019">
<path id="Path 20865" d="M15.386 0.3739H1.40002C1.04212 0.361193 0.693787 0.490904 0.43136 0.734587C0.168932 0.97827 0.0138181 1.31603 1.52588e-05 1.67389L1.52588e-05 10.7739C0.0138181 11.1317 0.168932 11.4695 0.43136 11.7132C0.693787 11.9569 1.04212 12.0866 1.40002 12.0739H15.386C15.7439 12.0866 16.0922 11.9569 16.3547 11.7132C16.6171 11.4695 16.7722 11.1317 16.786 10.7739V1.67389C16.7722 1.31603 16.6171 0.97827 16.3547 0.734587C16.0922 0.490904 15.7439 0.361193 15.386 0.3739ZM1.39802 1.02389H15.386C15.4351 1.02789 15.4837 1.03695 15.531 1.0509C14.32 2.0809 10.305 5.49289 8.89902 6.66989C8.76183 6.7995 8.58025 6.87173 8.39152 6.87173C8.20278 6.87173 8.0212 6.7995 7.88402 6.66989C6.47902 5.49389 2.46302 2.08091 1.25202 1.05191C1.30023 1.03741 1.34984 1.02801 1.40002 1.02389H1.39802ZM0.698015 10.7699V1.66989C0.701776 1.60858 0.714929 1.54822 0.737015 1.4909C1.66402 2.2789 4.46602 4.65989 6.28302 6.19089C4.47302 7.64289 1.67102 10.1109 0.736015 10.9429C0.71534 10.8874 0.703202 10.8291 0.700015 10.7699H0.698015ZM15.385 11.4199H1.40002C1.34637 11.416 1.29335 11.4059 1.24202 11.3899C2.20802 10.5349 5.02802 8.05191 6.80702 6.63891L7.41802 7.15191C7.68741 7.38995 8.03452 7.52133 8.39402 7.52133C8.75351 7.52133 9.10062 7.38995 9.37002 7.15191L9.98102 6.63791C11.76 8.05191 14.581 10.5379 15.546 11.3889C15.494 11.4051 15.4403 11.4152 15.386 11.4189L15.385 11.4199ZM16.085 10.7699C16.0809 10.8277 16.0684 10.8847 16.048 10.9389C15.113 10.1109 12.311 7.6389 10.5 6.1979C12.317 4.6629 15.118 2.28189 16.046 1.49789C16.0684 1.55548 16.0815 1.61621 16.085 1.67789V10.7699Z" fill="white"/>
</g>
</g>
</svg>
