<svg width="21" height="18" viewBox="0 0 21 18" fill="none" xmlns="http://www.w3.org/2000/svg">
<path id="Path 61120" d="M19.342 10.7368H18.883V10.1708C18.8848 9.78038 18.7763 9.39738 18.57 9.06586C18.9263 8.13761 19.083 7.14471 19.03 6.15186C18.9876 4.75948 18.4997 3.41741 17.638 2.32285C17.2673 1.83085 16.7904 1.42884 16.2427 1.14679C15.6951 0.864738 15.0908 0.709915 14.475 0.693848C12.9929 0.800513 11.6046 1.45881 10.584 2.53885C9.57352 1.43992 8.17452 0.778087 6.68401 0.693848C6.0682 0.709915 5.46395 0.864738 4.9163 1.14679C4.36865 1.42884 3.8917 1.83085 3.52101 2.32285C2.65915 3.41768 2.17124 4.76014 2.12901 6.15286C2.07608 7.14539 2.23281 8.13793 2.58901 9.06586C2.38299 9.39749 2.27451 9.78042 2.27601 10.1708V10.7318H1.81201C1.37783 10.7782 0.976135 10.9835 0.68423 11.3083C0.392326 11.633 0.230835 12.0542 0.230835 12.4908C0.230835 12.9275 0.392326 13.3487 0.68423 13.6735C0.976135 13.9982 1.37783 14.2035 1.81201 14.2498H2.27101V14.8109C2.2467 15.2961 2.41508 15.7712 2.73947 16.1329C3.06386 16.4946 3.518 16.7134 4.00301 16.7419C4.41509 16.7389 4.81056 16.579 5.10901 16.2949C5.23505 16.6053 5.44872 16.8723 5.72396 17.0634C5.99919 17.2545 6.32409 17.3613 6.65901 17.3708C7.14401 17.3424 7.59815 17.1236 7.92254 16.7619C8.24693 16.4002 8.41531 15.9251 8.391 15.4398V15.3348C9.51 16.2208 10.349 16.8508 10.359 16.8578C10.424 16.9073 10.5034 16.9341 10.585 16.9341C10.6667 16.9341 10.746 16.9073 10.811 16.8578C10.821 16.8508 11.654 16.2259 12.765 15.3459V15.4398C12.7404 15.9248 12.9084 16.3998 13.2325 16.7615C13.5565 17.1232 14.0103 17.3422 14.495 17.3708C14.8294 17.3617 15.1538 17.2556 15.429 17.0655C15.7042 16.8754 15.9182 16.6093 16.045 16.2998C16.3434 16.5841 16.7389 16.744 17.151 16.7469C17.636 16.7185 18.0901 16.4996 18.4145 16.1379C18.7389 15.7762 18.9073 15.3011 18.883 14.8159V14.2559H19.342C19.7755 14.2084 20.1763 14.0026 20.4674 13.6779C20.7585 13.3532 20.9195 12.9324 20.9195 12.4963C20.9195 12.0602 20.7585 11.6395 20.4674 11.3148C20.1763 10.9901 19.7755 10.7843 19.342 10.7368ZM2.93401 6.19986C3.04301 3.66086 4.72401 1.59985 6.68101 1.59985C7.37491 1.65845 8.05033 1.85397 8.66823 2.17511C9.28614 2.49625 9.83429 2.93665 10.281 3.47086C10.3165 3.51695 10.3618 3.55446 10.4138 3.5806C10.4657 3.60674 10.5229 3.62084 10.581 3.62186C10.6384 3.62233 10.6951 3.60988 10.747 3.58548C10.799 3.56107 10.8448 3.52531 10.881 3.48083C11.8012 2.42274 13.0869 1.75099 14.481 1.59985C16.438 1.59985 18.119 3.66586 18.228 6.19986C18.2687 6.96133 18.1669 7.72368 17.928 8.44785C17.6925 8.31672 17.4275 8.2479 17.158 8.24786C16.7459 8.25086 16.3505 8.41069 16.052 8.69485C15.9252 8.38535 15.7112 8.11934 15.436 7.9292C15.1608 7.73906 14.8364 7.63298 14.502 7.62384C14.0171 7.65199 13.563 7.87064 13.2385 8.23215C12.9141 8.59365 12.7457 9.06874 12.77 9.55386V10.7389H8.391V9.55084C8.4153 9.06572 8.2469 8.59066 7.92248 8.22916C7.59806 7.86765 7.14392 7.649 6.65901 7.62085C6.32466 7.62999 6.00016 7.73607 5.72499 7.92621C5.44981 8.11635 5.23581 8.38236 5.10901 8.69186C4.81056 8.4077 4.41509 8.24784 4.00301 8.24484C3.73348 8.24474 3.46841 8.3136 3.23301 8.44485C2.99481 7.72158 2.89341 6.96027 2.93401 6.19986ZM8.39301 11.6339H12.766V13.3568H8.391L8.39301 11.6339ZM1.81501 13.3568C1.6033 13.3329 1.40782 13.2318 1.26589 13.0729C1.12396 12.914 1.04551 12.7084 1.04551 12.4954C1.04551 12.2823 1.12396 12.0767 1.26589 11.9178C1.40782 11.7589 1.6033 11.6578 1.81501 11.6339H2.27401V13.3568H1.81501ZM4.00501 15.8478C3.74587 15.8324 3.50336 15.7151 3.33029 15.5216C3.15722 15.3282 3.06762 15.0741 3.08101 14.8148V10.1708C3.06762 9.91159 3.15722 9.65757 3.33029 9.46408C3.50336 9.27059 3.74587 9.15333 4.00501 9.13785C4.26404 9.15359 4.5064 9.27093 4.67942 9.46436C4.85244 9.65778 4.94213 9.91165 4.92901 10.1708V14.8109C4.94347 15.0711 4.8541 15.3265 4.68049 15.5209C4.50688 15.7153 4.26323 15.8329 4.00301 15.8478H4.00501ZM7.58501 15.4398C7.59867 15.6993 7.50919 15.9536 7.33609 16.1473C7.16299 16.341 6.92032 16.4584 6.66101 16.4738C6.40169 16.4584 6.15902 16.341 5.98592 16.1473C5.81282 15.9536 5.72334 15.6993 5.73701 15.4398V9.55084C5.72362 9.29159 5.81322 9.03757 5.98629 8.84409C6.15936 8.6506 6.40187 8.53334 6.66101 8.51785C6.92014 8.53334 7.16266 8.6506 7.33573 8.84409C7.5088 9.03757 7.59839 9.29159 7.58501 9.55084V15.4398ZM10.585 15.9398C10.204 15.6509 9.385 15.0228 8.42301 14.2528H12.745C11.785 15.0238 10.964 15.6529 10.585 15.9398ZM15.419 15.4398C15.4332 15.5696 15.4199 15.7009 15.3799 15.8251C15.34 15.9494 15.2743 16.0638 15.1872 16.161C15.1 16.2582 14.9934 16.3359 14.8742 16.3891C14.7551 16.4423 14.626 16.4698 14.4955 16.4698C14.365 16.4698 14.2359 16.4423 14.1168 16.3891C13.9976 16.3359 13.891 16.2582 13.8038 16.161C13.7167 16.0638 13.651 15.9494 13.6111 15.8251C13.5711 15.7009 13.5578 15.5696 13.572 15.4398V9.55084C13.5578 9.4211 13.5711 9.28984 13.6111 9.16559C13.651 9.04134 13.7167 8.92688 13.8038 8.82971C13.891 8.73254 13.9976 8.65483 14.1168 8.60162C14.2359 8.54842 14.365 8.5209 14.4955 8.5209C14.626 8.5209 14.7551 8.54842 14.8742 8.60162C14.9934 8.65483 15.1 8.73254 15.1872 8.82971C15.2743 8.92688 15.34 9.04134 15.3799 9.16559C15.4199 9.28984 15.4332 9.4211 15.419 9.55084V15.4398ZM18.075 14.8159C18.0899 14.946 18.077 15.0779 18.0374 15.2028C17.9977 15.3276 17.9321 15.4428 17.8449 15.5405C17.7577 15.6383 17.6507 15.7165 17.5312 15.7701C17.4116 15.8236 17.282 15.8513 17.151 15.8513C17.02 15.8513 16.8904 15.8236 16.7708 15.7701C16.6513 15.7165 16.5443 15.6383 16.4571 15.5405C16.3699 15.4428 16.3043 15.3276 16.2646 15.2028C16.225 15.0779 16.2121 14.946 16.227 14.8159V10.1708C16.2121 10.0407 16.225 9.90882 16.2646 9.78394C16.3043 9.65905 16.3699 9.54393 16.4571 9.44617C16.5443 9.3484 16.6513 9.27017 16.7708 9.21661C16.8904 9.16305 17.02 9.13538 17.151 9.13538C17.282 9.13538 17.4116 9.16305 17.5312 9.21661C17.6507 9.27017 17.7577 9.3484 17.8449 9.44617C17.9321 9.54393 17.9977 9.65905 18.0374 9.78394C18.077 9.90882 18.0899 10.0407 18.075 10.1708V14.8159ZM19.342 13.3578H18.883V11.6349H19.342C19.5537 11.6588 19.7492 11.7599 19.8911 11.9188C20.0331 12.0777 20.1115 12.2833 20.1115 12.4963C20.1115 12.7094 20.0331 12.915 19.8911 13.0739C19.7492 13.2328 19.5537 13.3339 19.342 13.3578Z" fill="#FF5A3C"/>
</svg>
