<svg width="11" height="12" viewBox="0 0 11 12" fill="none" xmlns="http://www.w3.org/2000/svg">
<path d="M10.1172 4.52081C10.1172 5.19269 10.0234 5.81769 9.83594 6.39581C9.66406 6.97394 9.41406 7.47394 9.08594 7.89581C8.75781 8.30206 8.36719 8.63019 7.91406 8.88019C7.46094 9.11456 6.96094 9.22394 6.41406 9.20831C6.22656 9.22394 6.03906 9.20831 5.85156 9.16144C5.67969 9.09894 5.51562 9.03644 5.35938 8.97394C5.21875 8.89581 5.09375 8.80206 4.98438 8.69269C4.875 8.58331 4.78906 8.48175 4.72656 8.388C4.63281 8.763 4.55469 9.0755 4.49219 9.3255C4.42969 9.5755 4.375 9.77081 4.32812 9.91144C4.29688 10.0364 4.27344 10.1302 4.25781 10.1927C4.25781 10.2396 4.25781 10.2552 4.25781 10.2396C4.21094 10.3802 4.16406 10.513 4.11719 10.638C4.07031 10.763 4.01562 10.8958 3.95312 11.0364C3.89062 11.1614 3.82031 11.2786 3.74219 11.388C3.67969 11.4974 3.61719 11.6068 3.55469 11.7161C3.36719 11.8411 3.21875 11.8958 3.10938 11.8802C3.01562 11.8802 2.9375 11.8411 2.875 11.763C2.82812 11.6849 2.79688 11.6068 2.78125 11.5286C2.76562 11.4661 2.75781 11.4271 2.75781 11.4114C2.74219 11.3021 2.73438 11.1849 2.73438 11.0599C2.73438 10.9193 2.73438 10.7864 2.73438 10.6614C2.75 10.5208 2.76562 10.3802 2.78125 10.2396C2.8125 10.0989 2.84375 9.97394 2.875 9.86456C2.875 9.84894 2.88281 9.80206 2.89844 9.72394C2.92969 9.63019 2.97656 9.4505 3.03906 9.18488C3.10156 8.90363 3.1875 8.52081 3.29688 8.03644C3.40625 7.55206 3.55469 6.91144 3.74219 6.11456C3.69531 6.02081 3.65625 5.90363 3.625 5.763C3.59375 5.62238 3.57031 5.50519 3.55469 5.41144C3.53906 5.30206 3.53125 5.20831 3.53125 5.13019C3.53125 5.05206 3.53125 5.02081 3.53125 5.03644C3.53125 4.77081 3.5625 4.53644 3.625 4.33331C3.70312 4.11456 3.79688 3.92706 3.90625 3.77081C4.03125 3.59894 4.17188 3.47394 4.32812 3.39581C4.5 3.30206 4.67188 3.24738 4.84375 3.23175C5 3.24738 5.13281 3.27863 5.24219 3.3255C5.36719 3.37238 5.46875 3.4505 5.54688 3.55988C5.625 3.66925 5.67969 3.78644 5.71094 3.91144C5.75781 4.02081 5.78125 4.15363 5.78125 4.30988C5.78125 4.4505 5.75781 4.62238 5.71094 4.8255C5.66406 5.013 5.60938 5.20831 5.54688 5.41144C5.48438 5.61456 5.41406 5.83331 5.33594 6.06769C5.27344 6.28644 5.21875 6.49738 5.17188 6.7005C5.125 6.90363 5.11719 7.08331 5.14844 7.23956C5.19531 7.38019 5.26562 7.52081 5.35938 7.66144C5.46875 7.78644 5.60156 7.88019 5.75781 7.94269C5.91406 8.00519 6.07812 8.04425 6.25 8.05988C6.57812 8.04425 6.875 7.94269 7.14062 7.75519C7.40625 7.56769 7.63281 7.30206 7.82031 6.95831C8.02344 6.61456 8.17188 6.23175 8.26562 5.80988C8.375 5.37238 8.42969 4.89581 8.42969 4.38019C8.42969 4.02081 8.36719 3.67706 8.24219 3.34894C8.11719 3.02081 7.92969 2.74738 7.67969 2.52863C7.44531 2.29425 7.14844 2.10675 6.78906 1.96613C6.44531 1.8255 6.03906 1.763 5.57031 1.77863C5.05469 1.763 4.58594 1.84894 4.16406 2.03644C3.75781 2.22394 3.40625 2.46613 3.10938 2.763C2.8125 3.05988 2.58594 3.41144 2.42969 3.81769C2.27344 4.20831 2.19531 4.61456 2.19531 5.03644C2.19531 5.20831 2.20312 5.35675 2.21875 5.48175C2.25 5.59113 2.28125 5.70831 2.3125 5.83331C2.35938 5.94269 2.40625 6.04425 2.45312 6.138C2.51562 6.21613 2.58594 6.30988 2.66406 6.41925C2.69531 6.43488 2.71875 6.46613 2.73438 6.513C2.75 6.54425 2.75781 6.56769 2.75781 6.58331C2.77344 6.59894 2.78125 6.63019 2.78125 6.67706C2.78125 6.70831 2.77344 6.73956 2.75781 6.77081C2.74219 6.81769 2.72656 6.86456 2.71094 6.91144C2.71094 6.94269 2.70312 6.98956 2.6875 7.05206C2.67188 7.11456 2.65625 7.16925 2.64062 7.21613C2.625 7.24738 2.61719 7.28644 2.61719 7.33331C2.60156 7.36456 2.57812 7.40363 2.54688 7.4505C2.53125 7.48175 2.50781 7.50519 2.47656 7.52081C2.44531 7.52081 2.41406 7.52863 2.38281 7.54425C2.35156 7.54425 2.3125 7.52863 2.26562 7.49738C2.03125 7.40363 1.82031 7.27081 1.63281 7.09894C1.46094 6.91144 1.32031 6.70831 1.21094 6.48956C1.10156 6.27081 1.01562 6.02081 0.953125 5.73956C0.890625 5.45831 0.859375 5.17706 0.859375 4.89581C0.859375 4.39581 0.960938 3.89581 1.16406 3.39581C1.38281 2.89581 1.69531 2.43488 2.10156 2.013C2.50781 1.59113 3.01562 1.25519 3.625 1.00519C4.23438 0.739563 4.94531 0.598938 5.75781 0.583313C6.41406 0.598938 7.00781 0.716125 7.53906 0.934875C8.08594 1.138 8.54688 1.42706 8.92188 1.80206C9.29688 2.17706 9.58594 2.59894 9.78906 3.06769C10.0078 3.52081 10.1172 4.00519 10.1172 4.52081Z" fill="white"/>
</svg>
