<svg xmlns="http://www.w3.org/2000/svg" width="542" height="352" viewBox="0 0 542 352" fill="none">
  <path opacity="0.15" d="M18.043 78.8635L16.2257 80.5443C16.2048 80.5671 16.1795 80.5854 16.1512 80.598C16.1229 80.6107 16.0924 80.6174 16.0614 80.6177C16.0304 80.618 15.9997 80.612 15.9712 80.5999C15.9427 80.5879 15.9169 80.57 15.8955 80.5476C15.8746 80.5264 15.8583 80.5011 15.8475 80.4733C15.8367 80.4455 15.8317 80.4157 15.8327 80.3859C15.8338 80.3561 15.8409 80.3268 15.8536 80.2998C15.8663 80.2729 15.8844 80.2488 15.9067 80.229L17.391 78.8597L15.393 78.7897C15.3481 78.788 15.3048 78.7732 15.2683 78.7469C15.2319 78.7207 15.204 78.6843 15.1882 78.6423C15.1723 78.6003 15.1692 78.5546 15.1793 78.5108C15.1894 78.4671 15.2121 78.4272 15.2447 78.3964C15.2906 78.3545 15.3509 78.3322 15.413 78.3343L17.8745 78.4205L18.014 78.2923C18.0357 78.2713 18.0615 78.255 18.0897 78.2441C18.1179 78.2332 18.1481 78.2282 18.1783 78.2292C18.2085 78.2303 18.2382 78.2374 18.2656 78.2503C18.293 78.2631 18.3175 78.2812 18.3377 78.3037C18.3547 78.3217 18.3679 78.3431 18.3764 78.3665C18.3848 78.3898 18.3884 78.4147 18.3869 78.4395L23.9014 78.6327L21.3045 75.8721L19.3747 77.6539C19.3303 77.695 19.2715 77.7169 19.211 77.7148C19.1506 77.7127 19.0934 77.6867 19.052 77.6426C19.0312 77.6212 19.015 77.5957 19.0043 77.5678C18.9935 77.54 18.9885 77.5102 18.9896 77.4803C18.9906 77.4505 18.9977 77.4212 19.0103 77.3941C19.023 77.3671 19.041 77.3429 19.0632 77.3229L20.9921 75.54L19.1888 73.6235C19.1477 73.5793 19.1259 73.5206 19.128 73.4603C19.1301 73.4 19.156 73.343 19.2001 73.3018C19.2447 73.2611 19.3034 73.2396 19.3637 73.2417C19.424 73.2438 19.4811 73.2694 19.5228 73.3131L21.3262 75.2257L24.3488 72.4309L22.9697 70.9663C22.9284 70.9214 22.9065 70.862 22.9086 70.8011C22.9107 70.7401 22.9368 70.6825 22.9812 70.6406C23.0264 70.6 23.0856 70.5785 23.1463 70.5807C23.207 70.5828 23.2646 70.6084 23.3068 70.6521L24.6848 72.1166L27.7074 69.3219L26.5657 68.1076C26.5454 68.0859 26.5296 68.0604 26.5192 68.0326C26.5088 68.0048 26.5039 67.9752 26.505 67.9455C26.506 67.9158 26.5129 67.8866 26.5252 67.8595C26.5376 67.8325 26.5551 67.8081 26.5769 67.7879C26.6219 67.7468 26.6812 67.7251 26.7421 67.7272C26.8029 67.7293 26.8606 67.7552 26.9026 67.7993L28.0424 69.0115L55.3628 43.7678L45.3194 40.7153C45.2996 40.7106 45.2903 40.6883 45.2736 40.6797C45.2569 40.6711 45.2293 40.6611 45.2186 40.6528C45.2079 40.6444 45.2152 40.6356 45.2086 40.6234C45.1939 40.6012 45.1836 40.5764 45.1782 40.5503C45.1677 40.5228 45.1653 40.4929 45.1712 40.464C45.1746 40.4522 45.1659 40.4429 45.1662 40.4339C45.1798 40.3969 45.2015 40.3635 45.2297 40.3361L56.1433 30.2541C56.1717 30.2264 56.2069 30.2066 56.2453 30.1966C56.2564 30.195 56.2671 30.2024 56.2751 30.2026C56.3043 30.2001 56.3338 30.2049 56.3606 30.2166C56.3875 30.224 56.4133 30.2347 56.4376 30.2484C56.4441 30.2606 56.4534 30.2529 56.4651 30.2613C56.4745 30.2805 56.4812 30.301 56.485 30.322C56.4964 30.3384 56.5151 30.3471 56.5214 30.3683L58.8806 40.5113L138.462 -33.0179L136.661 -34.9304C136.64 -34.952 136.624 -34.9775 136.613 -35.0055C136.603 -35.0334 136.598 -35.0633 136.599 -35.0932C136.6 -35.123 136.607 -35.1524 136.619 -35.1795C136.632 -35.2066 136.65 -35.2309 136.672 -35.251C136.717 -35.2918 136.776 -35.3133 136.836 -35.3112C136.897 -35.3091 136.954 -35.2834 136.996 -35.2397L138.797 -33.3252L141.82 -36.12L140.441 -37.5846C140.418 -37.6061 140.401 -37.6319 140.389 -37.6605C140.377 -37.689 140.371 -37.7197 140.371 -37.7506C140.371 -37.7815 140.378 -37.8121 140.39 -37.8404C140.403 -37.8687 140.421 -37.8941 140.443 -37.9152C140.466 -37.9363 140.493 -37.9525 140.522 -37.963C140.551 -37.9734 140.582 -37.9779 140.613 -37.976C140.644 -37.9741 140.674 -37.966 140.701 -37.952C140.729 -37.9381 140.754 -37.9186 140.773 -37.895L142.153 -36.4304L146.073 -40.0509L149.26 -42.9969L147.46 -44.9114C147.439 -44.9333 147.424 -44.9591 147.413 -44.9871C147.403 -45.0152 147.398 -45.045 147.399 -45.0749C147.4 -45.1048 147.407 -45.1343 147.419 -45.1615C147.432 -45.1887 147.45 -45.2131 147.472 -45.2335C147.493 -45.2539 147.519 -45.2698 147.547 -45.2802C147.575 -45.2906 147.605 -45.2954 147.635 -45.2943C147.665 -45.2932 147.694 -45.2863 147.722 -45.2739C147.749 -45.2614 147.773 -45.2437 147.794 -45.2218L149.753 -43.1407L152.727 -39.9788L154.238 -41.3782L168.566 -54.6173L170.241 -56.1679L182.83 -67.7976L184.509 -69.3481L186.185 -70.8969L189.541 -74L236.533 -117.413L239.887 -120.512L241.401 -121.91L231.882 -132.027C231.862 -132.049 231.845 -132.074 231.835 -132.102C231.824 -132.13 231.819 -132.16 231.82 -132.19C231.821 -132.22 231.828 -132.249 231.841 -132.276C231.853 -132.303 231.871 -132.328 231.894 -132.348L241.961 -141.648C241.982 -141.669 242.008 -141.685 242.036 -141.695C242.064 -141.706 242.094 -141.711 242.124 -141.709C242.154 -141.708 242.183 -141.701 242.21 -141.689C242.237 -141.677 242.262 -141.659 242.282 -141.637L251.8 -131.521L253.144 -132.765L251.543 -134.471L250.562 -135.506L250.171 -135.919L248.606 -137.583C248.585 -137.605 248.569 -137.63 248.559 -137.658C248.548 -137.686 248.543 -137.715 248.544 -137.745C248.545 -137.774 248.552 -137.803 248.565 -137.83C248.577 -137.857 248.595 -137.881 248.617 -137.901C248.638 -137.922 248.664 -137.938 248.692 -137.948C248.72 -137.959 248.75 -137.964 248.78 -137.963C248.809 -137.962 248.839 -137.955 248.866 -137.942C248.893 -137.93 248.917 -137.912 248.938 -137.89L250.347 -136.391L253.538 -139.34L259.293 -144.659L257.917 -146.123C257.876 -146.168 257.854 -146.226 257.856 -146.287C257.858 -146.347 257.884 -146.405 257.928 -146.446C257.973 -146.487 258.032 -146.509 258.093 -146.507C258.154 -146.504 258.211 -146.479 258.253 -146.435L259.632 -144.973L262.821 -147.916C262.843 -147.937 262.868 -147.953 262.897 -147.964C262.925 -147.974 262.955 -147.979 262.985 -147.978C263.015 -147.977 263.045 -147.97 263.072 -147.957C263.1 -147.945 263.124 -147.927 263.145 -147.905L265.9 -144.977L266.194 -153.391C266.195 -153.421 266.202 -153.45 266.214 -153.477C266.227 -153.504 266.245 -153.529 266.267 -153.548C266.289 -153.569 266.314 -153.585 266.342 -153.595C266.37 -153.606 266.399 -153.611 266.429 -153.61C266.489 -153.607 266.546 -153.581 266.588 -153.537C266.63 -153.494 266.652 -153.435 266.652 -153.375L266.357 -144.963L286.012 -163.123L287.29 -164.304L286.691 -164.325C286.661 -164.325 286.632 -164.332 286.605 -164.344C286.578 -164.356 286.553 -164.373 286.533 -164.395C286.512 -164.417 286.496 -164.442 286.486 -164.47C286.476 -164.498 286.471 -164.528 286.472 -164.557C286.472 -164.587 286.479 -164.616 286.491 -164.643C286.503 -164.67 286.521 -164.694 286.544 -164.714C286.587 -164.754 286.644 -164.776 286.704 -164.774L287.303 -164.753L286.115 -166.016C286.094 -166.038 286.078 -166.063 286.068 -166.091C286.057 -166.119 286.052 -166.148 286.053 -166.178C286.054 -166.208 286.061 -166.237 286.074 -166.264C286.086 -166.292 286.104 -166.316 286.126 -166.336C286.148 -166.356 286.174 -166.372 286.202 -166.383C286.23 -166.393 286.26 -166.398 286.29 -166.397C286.32 -166.396 286.349 -166.389 286.377 -166.377C286.404 -166.364 286.429 -166.346 286.449 -166.324L287.857 -164.825L289.37 -166.222L291.049 -167.773L299.518 -175.596L302.706 -178.543L302.223 -179.05C302.203 -179.071 302.187 -179.097 302.176 -179.125C302.166 -179.153 302.161 -179.182 302.162 -179.212C302.163 -179.242 302.17 -179.271 302.182 -179.298C302.195 -179.325 302.212 -179.349 302.234 -179.369C302.279 -179.41 302.338 -179.432 302.398 -179.43C302.459 -179.428 302.516 -179.402 302.557 -179.358L303.039 -178.847L306.064 -181.642L303.87 -183.976C303.85 -183.998 303.834 -184.023 303.824 -184.05C303.813 -184.078 303.808 -184.107 303.809 -184.137C303.81 -184.166 303.817 -184.195 303.83 -184.222C303.842 -184.249 303.86 -184.273 303.881 -184.293C303.925 -184.333 303.983 -184.354 304.043 -184.352C304.102 -184.35 304.159 -184.325 304.2 -184.282L306.396 -181.948L333.087 -206.578L336.443 -209.681L338.122 -211.231L338.961 -212.001L339.8 -212.772L340.636 -213.543L341.476 -214.32L343.155 -215.869L343.991 -216.64L345.673 -218.191L346.343 -218.81L344.74 -220.517C344.72 -220.539 344.703 -220.565 344.693 -220.593C344.682 -220.621 344.677 -220.651 344.678 -220.681C344.679 -220.711 344.686 -220.741 344.699 -220.768C344.712 -220.796 344.729 -220.82 344.752 -220.841C344.797 -220.881 344.857 -220.901 344.917 -220.898C344.978 -220.895 345.035 -220.869 345.076 -220.824L346.837 -218.955L347.03 -218.748L348.009 -217.707L348.401 -217.293L349.184 -216.465L349.809 -215.8L371.414 -235.765C371.458 -235.806 371.516 -235.827 371.576 -235.825C371.636 -235.823 371.693 -235.797 371.734 -235.754C371.755 -235.733 371.771 -235.707 371.782 -235.68C371.793 -235.652 371.798 -235.622 371.796 -235.593C371.795 -235.563 371.788 -235.534 371.776 -235.507C371.763 -235.48 371.745 -235.456 371.723 -235.436L350.119 -215.47L350.748 -214.802L351.531 -213.975L353.095 -212.312L353.878 -211.478L355.443 -209.817L356.223 -208.989L357.791 -207.32L358.573 -206.492L360.14 -204.828L360.923 -204L362.489 -202.336L363.272 -201.502L364.837 -199.84L365.617 -199.013L367.186 -197.347L367.968 -196.519L369.535 -194.855L370.317 -194.027L371.878 -192.365L372.665 -191.528L374.226 -189.866L375.01 -189.039L376.58 -187.373L377.362 -186.54L378.144 -185.712L428.24 -132.452L429.808 -130.786L430.59 -129.958L432.153 -128.297L432.938 -127.463L434.502 -125.801L435.284 -124.968L436.852 -123.303L437.636 -122.468L439.201 -120.806L439.982 -119.978L440.607 -119.312L462.211 -139.277C462.257 -139.317 462.317 -139.337 462.377 -139.334C462.438 -139.331 462.495 -139.304 462.536 -139.259C462.556 -139.237 462.572 -139.212 462.582 -139.184C462.593 -139.157 462.598 -139.127 462.597 -139.098C462.596 -139.068 462.589 -139.039 462.576 -139.013C462.564 -138.986 462.546 -138.962 462.525 -138.942L440.925 -118.991L441.551 -118.326L442.336 -117.492L443.9 -115.829C443.92 -115.807 443.936 -115.782 443.946 -115.754C443.957 -115.726 443.962 -115.697 443.961 -115.667C443.96 -115.637 443.953 -115.608 443.94 -115.581C443.928 -115.554 443.91 -115.53 443.889 -115.509L443.253 -114.921L443.481 -114.676C443.502 -114.655 443.518 -114.629 443.529 -114.601C443.54 -114.573 443.545 -114.543 443.544 -114.513C443.542 -114.483 443.535 -114.454 443.523 -114.426C443.51 -114.399 443.492 -114.375 443.47 -114.355C443.425 -114.314 443.366 -114.292 443.306 -114.294C443.245 -114.297 443.187 -114.322 443.145 -114.366L442.914 -114.611L442.208 -113.96L441.367 -113.182L439.691 -111.634L438.852 -110.857L437.173 -109.305L433.897 -106.282C433.892 -106.242 433.875 -106.204 433.849 -106.172C433.816 -106.147 433.776 -106.133 433.735 -106.131L430.458 -103.106L410.487 -84.6512L457.106 -35.0972L458.198 -36.1062C458.219 -36.1268 458.245 -36.1428 458.273 -36.1534C458.301 -36.1639 458.331 -36.1689 458.361 -36.1679C458.391 -36.1668 458.42 -36.1598 458.447 -36.1472C458.475 -36.1347 458.499 -36.117 458.519 -36.0949C458.54 -36.0736 458.556 -36.0483 458.567 -36.0206C458.577 -35.9929 458.582 -35.9633 458.581 -35.9336C458.58 -35.904 458.573 -35.8749 458.561 -35.8481C458.548 -35.8212 458.53 -35.7971 458.508 -35.7772L457.416 -34.7693L472.799 -18.4166L484.201 -28.9507L484.907 -29.6021C484.753 -29.8325 484.676 -30.1053 484.686 -30.382C484.695 -30.6588 484.792 -30.9255 484.961 -31.1445L484.303 -31.8438C484.282 -31.8652 484.266 -31.8907 484.256 -31.9186C484.245 -31.9465 484.24 -31.9762 484.241 -32.006C484.242 -32.0359 484.249 -32.0652 484.262 -32.0922C484.274 -32.1193 484.292 -32.1436 484.314 -32.1635C484.359 -32.2046 484.418 -32.2266 484.478 -32.2244C484.539 -32.2223 484.596 -32.1963 484.637 -32.1522L485.295 -31.4539C485.529 -31.6051 485.804 -31.6808 486.082 -31.6711C486.361 -31.6613 486.629 -31.5665 486.852 -31.3994L487.556 -32.0499L489.237 -33.6014L490.212 -34.5045C490.257 -34.5452 490.315 -34.5668 490.376 -34.5647C490.436 -34.5625 490.494 -34.5369 490.535 -34.4931C490.577 -34.4491 490.598 -34.3906 490.596 -34.3305C490.594 -34.2703 490.568 -34.2134 490.524 -34.1724L489.548 -33.2724L487.867 -31.722L487.163 -31.0704C487.316 -30.8399 487.394 -30.5669 487.384 -30.2901C487.374 -30.0132 487.278 -29.7463 487.109 -29.5269L487.767 -28.8248L489.333 -27.1605L492.396 -23.9055C492.417 -23.8839 492.433 -23.8583 492.443 -23.8304C492.454 -23.8024 492.459 -23.7727 492.458 -23.7428C492.457 -23.713 492.45 -23.6836 492.437 -23.6565C492.425 -23.6293 492.407 -23.605 492.385 -23.5848C492.34 -23.5442 492.282 -23.5226 492.221 -23.5247C492.161 -23.5269 492.104 -23.5525 492.062 -23.5961L489.001 -26.8522L487.434 -28.5153L486.774 -29.2177C486.541 -29.0647 486.266 -28.9877 485.988 -28.9975C485.71 -29.0072 485.441 -29.1032 485.219 -29.2721L484.513 -28.6177L472.944 -17.9305L465.35 -10.9149L463.041 -8.78229L481.672 11.0227L484.649 14.1857L486.369 12.5967C486.414 12.5561 486.472 12.5345 486.532 12.5366C486.592 12.5387 486.649 12.5643 486.691 12.6079C486.712 12.6296 486.728 12.6551 486.739 12.6831C486.749 12.7112 486.754 12.741 486.753 12.7711C486.752 12.8011 486.745 12.8307 486.733 12.8579C486.72 12.8851 486.702 12.9094 486.68 12.9295L484.959 14.5197L486.368 16.0183L487.934 17.6816L498.895 29.3302L500.458 30.9953L514.548 45.9722L516.113 47.6374L519.245 50.9658L538.032 70.9345L539.519 72.5159L541.163 74.2648L541.475 74.5958C541.496 74.6171 541.512 74.6425 541.523 74.6704C541.534 74.6983 541.539 74.7282 541.538 74.7581C541.537 74.7881 541.53 74.8174 541.517 74.8445C541.504 74.8716 541.486 74.8957 541.464 74.9155C541.442 74.9361 541.416 74.9522 541.388 74.9628C541.36 74.9733 541.33 74.9783 541.301 74.9772C541.271 74.9762 541.241 74.9692 541.214 74.9566C541.187 74.9441 541.162 74.9263 541.142 74.9043L540.986 74.7377L537.796 77.6847L504.634 108.324L513.126 108.622C513.186 108.624 513.243 108.65 513.284 108.694C513.325 108.738 513.348 108.796 513.346 108.856C513.344 108.917 513.318 108.974 513.273 109.014C513.229 109.055 513.17 109.077 513.11 109.075L504.618 108.778L516.769 121.694L517.342 122.303L519.301 124.385L519.903 125.022C519.923 125.043 519.94 125.069 519.95 125.097C519.961 125.125 519.966 125.154 519.965 125.184C519.964 125.214 519.957 125.244 519.944 125.271C519.932 125.298 519.914 125.322 519.892 125.342L519.375 125.824L517.276 127.761L516.7 128.291L536.145 148.961C536.165 148.983 536.181 149.008 536.192 149.036C536.202 149.064 536.207 149.093 536.206 149.123C536.205 149.153 536.198 149.182 536.186 149.209C536.173 149.236 536.156 149.261 536.134 149.281C536.089 149.322 536.03 149.344 535.97 149.342C535.91 149.339 535.852 149.314 535.811 149.269L516.366 128.601L516.228 128.728L514.129 130.667L432.623 205.971L429.433 208.918L431.111 210.713C431.152 210.757 431.174 210.815 431.172 210.876C431.169 210.936 431.144 210.992 431.1 211.034C431.055 211.074 430.996 211.096 430.935 211.094C430.875 211.092 430.817 211.066 430.775 211.022L429.092 209.235L402.41 233.887L400.732 235.439L399.894 236.21L399.222 236.832L418.668 257.5C418.688 257.521 418.704 257.547 418.715 257.575C418.726 257.603 418.731 257.633 418.73 257.663C418.729 257.693 418.722 257.722 418.709 257.749C418.696 257.777 418.678 257.801 418.656 257.821C418.612 257.862 418.554 257.883 418.494 257.881C418.434 257.879 418.377 257.854 418.336 257.81L398.89 237.171L398.217 237.793L397.379 238.564L395.7 240.113L394.861 240.884L393.184 242.434L392.344 243.209L390.665 244.759L389.828 245.53L388.15 247.081L387.313 247.852L385.632 249.404L384.792 250.174L383.116 251.726L382.28 252.497L380.598 254.048L379.76 254.825L378.082 256.375L377.244 257.146L375.565 258.694L363.84 269.529L362.306 270.947L363.392 272.102C363.412 272.123 363.428 272.149 363.438 272.177C363.449 272.204 363.454 272.234 363.453 272.263C363.452 272.293 363.445 272.322 363.432 272.349C363.42 272.376 363.402 272.4 363.38 272.42C363.336 272.461 363.277 272.483 363.217 272.481C363.157 272.479 363.1 272.453 363.059 272.409L361.972 271.255L361.743 271.466C361.699 271.507 361.64 271.529 361.579 271.527C361.518 271.524 361.461 271.499 361.419 271.455C361.398 271.433 361.382 271.407 361.371 271.379C361.361 271.351 361.356 271.321 361.357 271.291C361.358 271.261 361.365 271.232 361.377 271.205C361.39 271.177 361.408 271.153 361.43 271.133L361.657 270.923L361.099 270.328L360.119 269.287L358.166 267.209L346.313 254.611L328.726 270.855L327.048 272.407L325.771 273.585L326.371 273.606C326.4 273.607 326.43 273.614 326.457 273.626C326.484 273.639 326.508 273.656 326.529 273.678C326.549 273.699 326.565 273.725 326.575 273.753C326.586 273.781 326.59 273.81 326.589 273.84C326.586 273.9 326.56 273.956 326.516 273.997C326.472 274.037 326.414 274.059 326.355 274.058L325.755 274.037L326.946 275.302C326.967 275.324 326.983 275.349 326.993 275.377C327.004 275.405 327.009 275.435 327.008 275.465C327.007 275.494 327 275.524 326.987 275.551C326.975 275.578 326.957 275.602 326.935 275.623C326.89 275.664 326.831 275.685 326.77 275.683C326.71 275.681 326.652 275.655 326.61 275.611L325.203 274.112L323.691 275.508L269.277 325.783L266 328.81C265.996 328.85 265.978 328.888 265.95 328.918C265.918 328.943 265.879 328.958 265.838 328.96L262.633 331.923L262.323 340.788C262.32 340.849 262.293 340.906 262.249 340.947C262.205 340.988 262.146 341.011 262.085 341.009C262.025 341.007 261.968 340.981 261.927 340.937C261.885 340.893 261.863 340.834 261.864 340.774L262.175 331.909L259.266 328.814L249.286 338.037L249.196 338.327C249.188 338.347 249.173 338.356 249.16 338.373C249.148 338.389 249.141 338.421 249.134 338.428C249.126 338.434 249.116 338.434 249.107 338.434C249.083 338.45 249.055 338.461 249.026 338.466C248.998 338.474 248.969 338.477 248.94 338.474C248.931 338.469 248.931 338.482 248.91 338.473C248.889 338.464 248.882 338.446 248.865 338.433C248.861 338.433 248.857 338.433 248.852 338.433L242.055 344.715L240.375 346.269L239.669 346.917C239.823 347.147 239.901 347.42 239.891 347.697C239.881 347.974 239.785 348.241 239.615 348.46L240.274 349.161L241.841 350.823C241.861 350.845 241.877 350.87 241.887 350.898C241.898 350.926 241.902 350.955 241.901 350.985C241.9 351.014 241.893 351.043 241.881 351.07C241.869 351.097 241.851 351.122 241.83 351.142C241.785 351.183 241.726 351.205 241.665 351.203C241.604 351.201 241.546 351.175 241.505 351.13L239.94 349.465L239.282 348.766C239.048 348.918 238.774 348.994 238.495 348.985C238.216 348.975 237.947 348.879 237.725 348.711L237.017 349.363C236.973 349.403 236.914 349.425 236.854 349.423C236.794 349.421 236.737 349.395 236.696 349.351C236.676 349.33 236.66 349.304 236.65 349.277C236.639 349.249 236.634 349.219 236.635 349.19C236.636 349.16 236.643 349.131 236.656 349.104C236.668 349.077 236.686 349.053 236.707 349.033L237.417 348.38C237.264 348.149 237.187 347.876 237.197 347.6C237.207 347.323 237.303 347.056 237.471 346.837L236.815 346.141C236.773 346.096 236.751 346.037 236.753 345.976C236.756 345.916 236.782 345.858 236.826 345.817C236.871 345.775 236.93 345.753 236.991 345.756C237.052 345.758 237.109 345.784 237.151 345.829L237.807 346.53C238.041 346.378 238.316 346.301 238.594 346.311C238.873 346.321 239.142 346.416 239.365 346.584L240.07 345.931L241.748 344.381L248.537 338.111L238.639 327.594C238.621 327.574 238.627 327.556 238.616 327.537C238.604 327.517 238.591 327.499 238.582 327.491C238.574 327.482 238.583 327.476 238.583 327.468C238.576 327.432 238.578 327.396 238.589 327.361C238.599 327.327 238.618 327.295 238.643 327.27C238.672 327.242 238.707 327.223 238.745 327.212L253.292 323.891C253.319 323.884 253.352 323.904 253.368 323.905C253.384 323.905 253.394 323.891 253.407 323.895C253.419 323.899 253.422 323.912 253.432 323.917C253.458 323.929 253.481 323.947 253.498 323.97C253.518 323.989 253.535 324.011 253.548 324.036C253.549 324.048 253.56 324.046 253.564 324.064C253.567 324.081 253.555 324.102 253.555 324.121C253.554 324.14 253.56 324.156 253.56 324.177L249.554 337.172L258.96 328.484L255.985 325.321L249.724 318.663L246.748 315.5L246.495 315.734C246.45 315.774 246.391 315.796 246.33 315.794C246.27 315.791 246.212 315.766 246.17 315.723C246.15 315.701 246.134 315.675 246.123 315.648C246.112 315.62 246.107 315.59 246.108 315.56C246.11 315.53 246.117 315.501 246.129 315.474C246.142 315.447 246.159 315.422 246.181 315.402L246.432 315.17L245.178 313.836L234.978 323.26C234.956 323.281 234.93 323.297 234.902 323.307C234.874 323.318 234.844 323.323 234.814 323.322C234.784 323.321 234.754 323.314 234.727 323.301C234.7 323.289 234.675 323.271 234.655 323.249L219 306.61C218.959 306.565 218.938 306.507 218.94 306.446C218.942 306.386 218.968 306.329 219.011 306.287L229.213 296.862L227.805 295.368L224.673 292.035L215.277 282.053L212.303 278.888L212.001 279.17C211.956 279.21 211.897 279.232 211.837 279.23C211.777 279.228 211.72 279.202 211.678 279.158C211.658 279.136 211.642 279.111 211.631 279.083C211.621 279.055 211.616 279.025 211.617 278.995C211.618 278.965 211.625 278.936 211.637 278.909C211.65 278.881 211.667 278.857 211.689 278.837L211.991 278.556L187.099 252.097L184.122 248.934L163.265 268.199C163.22 268.24 163.162 268.261 163.101 268.259C163.041 268.257 162.984 268.231 162.942 268.188C162.901 268.144 162.879 268.085 162.882 268.025C162.884 267.965 162.91 267.908 162.954 267.867L183.81 248.601L180.835 245.44L169.876 233.791L166.898 230.626L165.179 232.215C165.135 232.256 165.076 232.277 165.016 232.275C164.956 232.273 164.899 232.247 164.858 232.204C164.837 232.182 164.821 232.157 164.81 232.129C164.799 232.101 164.794 232.072 164.795 232.042C164.796 232.012 164.803 231.983 164.816 231.956C164.829 231.929 164.847 231.905 164.869 231.885L166.589 230.293L165.544 229.179L133.221 222.671C133.192 222.666 133.164 222.654 133.139 222.637C133.114 222.621 133.093 222.599 133.076 222.574C133.059 222.549 133.048 222.521 133.042 222.492C133.036 222.463 133.036 222.432 133.042 222.403L133.404 220.635C134.009 215.363 136.487 210.484 140.387 206.886C141.138 206.197 141.935 205.559 142.772 204.977L141.692 203.829L138.562 200.5L124.472 185.531L118.365 179.035L97.5104 198.303C97.4664 198.344 97.4078 198.366 97.3477 198.364C97.2876 198.362 97.2307 198.336 97.1897 198.292C97.1481 198.247 97.126 198.188 97.1281 198.127C97.1303 198.066 97.1565 198.008 97.2011 197.966L118.055 178.704L58.7608 115.676C58.7532 115.665 58.7677 115.649 58.754 115.643C58.7402 115.636 58.7251 115.638 58.7165 115.627L55.7544 112.47L54.0313 114.06C53.9855 114.1 53.9257 114.121 53.8647 114.118C53.8037 114.115 53.7463 114.088 53.7048 114.044C53.6845 114.022 53.6686 113.997 53.6582 113.969C53.6477 113.942 53.6429 113.912 53.6439 113.883C53.6449 113.853 53.6518 113.824 53.6642 113.798C53.6766 113.771 53.6941 113.747 53.7159 113.727L55.438 112.136L42.298 98.1785L37.9643 112.245C37.9595 112.266 37.936 112.28 37.9256 112.294C37.9151 112.307 37.9081 112.336 37.9018 112.345C37.8955 112.353 37.8825 112.353 37.8735 112.353C37.8494 112.37 37.8216 112.381 37.7923 112.385C37.7659 112.394 37.7378 112.397 37.71 112.394C37.6972 112.387 37.7028 112.4 37.682 112.393C37.6613 112.386 37.6529 112.368 37.6353 112.356C37.6177 112.345 37.5937 112.344 37.5803 112.328L27.4021 101.504C27.3837 101.486 27.3845 101.465 27.3761 101.447C27.3678 101.428 27.3484 101.41 27.3457 101.401C27.343 101.393 27.3512 101.388 27.3515 101.379C27.3453 101.344 27.3475 101.309 27.3577 101.275C27.3679 101.242 27.3859 101.211 27.4103 101.186C27.4394 101.156 27.4767 101.136 27.5173 101.128L41.9761 97.8301L40.7166 96.4927L39.5257 95.2287L39.505 95.8171C39.5043 95.8471 39.4975 95.8767 39.4853 95.9041C39.4731 95.9315 39.4555 95.9562 39.4337 95.9768C39.4119 95.9974 39.3862 96.0135 39.3582 96.0242C39.3301 96.0348 39.3002 96.0398 39.2702 96.0389C39.2399 96.0384 39.21 96.0317 39.1824 96.0194C39.1547 96.0071 39.1298 95.9893 39.1092 95.9671C39.0886 95.9449 39.0727 95.9187 39.0624 95.8902C39.0521 95.8617 39.0478 95.8314 39.0495 95.8011L39.0701 95.2127L37.7936 96.3903L36.116 97.9389C36.0944 97.9597 36.0688 97.9761 36.0409 97.987C36.0129 97.9979 35.9831 98.0032 35.9531 98.0025C35.9231 98.0018 35.8935 97.9951 35.8661 97.9829C35.8387 97.9707 35.8139 97.9532 35.7933 97.9314C35.7727 97.9096 35.7567 97.8839 35.7461 97.8558C35.7355 97.8277 35.7305 97.7978 35.7316 97.7678C35.7326 97.7378 35.7396 97.7083 35.7521 97.6811C35.7646 97.6538 35.7824 97.6292 35.8044 97.6089L37.4822 96.0573L38.9914 94.6608L37.5835 93.1642L30.5392 85.6777L27.5634 82.5128L6.7129 101.776C6.66854 101.817 6.6097 101.839 6.54923 101.837C6.48877 101.835 6.4316 101.809 6.39023 101.765C6.34961 101.721 6.32797 101.663 6.33005 101.603C6.33214 101.544 6.35778 101.488 6.40135 101.447L10.6534 97.5059L9.2435 96.0081L7.83271 94.5084L6.77214 95.4885L6.32253 95.9028C6.30058 95.9236 6.27471 95.9398 6.24643 95.9505C6.21815 95.9612 6.18803 95.9662 6.15781 95.9652C6.12759 95.9641 6.09789 95.957 6.07043 95.9443C6.04297 95.9317 6.0183 95.9137 5.99785 95.8914C5.97732 95.8699 5.9613 95.8444 5.95072 95.8166C5.94015 95.7887 5.93525 95.759 5.93629 95.7293C5.93733 95.6995 5.9443 95.6702 5.9568 95.6432C5.96929 95.6161 5.98706 95.5918 6.00905 95.5718L6.4607 95.1565L7.28759 94.3943L6.68819 94.3733C6.65827 94.3725 6.62879 94.3658 6.60145 94.3536C6.57411 94.3415 6.54943 94.324 6.52883 94.3023C6.50823 94.2806 6.4921 94.255 6.48138 94.2271C6.47932 94.2217 6.47746 94.2163 6.47582 94.2108C6.45257 94.6569 6.24918 95.0569 5.86566 95.4107C4.85887 96.3404 3.62033 96.0242 2.15004 94.4623C0.679749 92.9005 0.448663 91.6548 1.45678 90.7252C1.78144 90.414 2.20786 90.2309 2.65711 90.2099C3.10636 90.1889 3.54802 90.3312 3.90035 90.6108L4.17207 90.6203L2.98411 89.3554L1.42108 87.6903C1.40011 87.6687 1.38372 87.6431 1.3729 87.6151C1.36207 87.587 1.35703 87.5571 1.35808 87.5271C1.35914 87.497 1.36626 87.4675 1.37902 87.4403C1.39178 87.413 1.40993 87.3887 1.43235 87.3686C1.47706 87.3274 1.53623 87.3054 1.59703 87.3075C1.65782 87.3097 1.71532 87.3357 1.75703 87.38L3.32105 89.0452L4.73091 90.5429L5.43079 89.8943L5.85238 89.5089L4.49554 88.0681L5.06214 87.5408L6.42073 88.9887L6.47864 88.9347L7.91858 87.6039L8.57603 86.9957C8.62062 86.9542 8.67984 86.9321 8.74072 86.9343C8.80159 86.9364 8.85913 86.9626 8.9007 87.0071C8.92136 87.0286 8.9375 87.0541 8.94814 87.082C8.95879 87.1098 8.96374 87.1395 8.9627 87.1693C8.96166 87.1991 8.95464 87.2284 8.94207 87.2555C8.92949 87.2825 8.91162 87.3068 8.8895 87.3268L8.23102 87.9359L6.79011 89.2657L6.73221 89.3197L8.44487 91.1391C8.49084 90.5343 8.66095 89.9454 8.94457 89.4092L9.4566 89.9542C9.09976 90.6985 9.00877 91.5426 9.19877 92.3458L8.83188 92.683L6.16458 89.8479L5.74199 90.2332L5.27376 90.6649L5.87316 90.6859C5.93304 90.688 5.98963 90.7138 6.03049 90.7576C6.07135 90.8014 6.09312 90.8597 6.09103 90.9196C6.08766 90.9789 6.06145 91.0346 6.01789 91.0751C5.97433 91.1155 5.9168 91.1375 5.85738 91.1365L5.25798 91.1155L6.45093 92.3805L7.85976 93.8792L8.55971 93.2286L9.36901 92.4827L9.6078 92.2621L11.0477 90.9322L11.7052 90.3231C11.75 90.2821 11.8091 90.2603 11.8698 90.2625C11.9306 90.2646 11.988 90.2904 12.0299 90.3345C12.0505 90.3563 12.0665 90.3819 12.0771 90.4099C12.0877 90.4379 12.0926 90.4678 12.0916 90.4977C12.0905 90.5276 12.0835 90.557 12.071 90.5842C12.0585 90.6114 12.0407 90.6359 12.0186 90.6561L11.3591 91.2642L9.91628 92.5929L9.67749 92.8136L8.86808 93.5625L8.40296 93.9912L8.99636 94.012C9.05637 94.0141 9.11309 94.04 9.15404 94.0839C9.19499 94.1278 9.21681 94.1862 9.21471 94.2462C9.21261 94.3063 9.18675 94.363 9.14283 94.4039C9.09891 94.4449 9.04052 94.4667 8.98051 94.4646L8.3871 94.4438L9.57775 95.7178L10.9866 97.2165L27.2548 82.183L24.4353 79.1835L22.5044 80.9652C22.4598 81.0068 22.4006 81.0289 22.3397 81.0267C22.2788 81.0246 22.2213 80.9984 22.1797 80.9539C22.1594 80.9322 22.1436 80.9067 22.1332 80.8789C22.1228 80.851 22.118 80.8214 22.119 80.7917C22.1201 80.762 22.1269 80.7328 22.1393 80.7058C22.1516 80.6787 22.1692 80.6544 22.1909 80.6342L23.8842 79.0682L18.043 78.8635Z" fill="black"/>
</svg>