<svg width="22" height="18" viewBox="0 0 22 18" fill="none" xmlns="http://www.w3.org/2000/svg">
<g id="Group 7221">
<g id="Group 7220">
<path id="Path 61100" d="M6.14503 11.3841V10.9691C6.14503 10.8852 6.11174 10.8049 6.05248 10.7456C5.99322 10.6864 5.91284 10.6531 5.82903 10.6531C5.74522 10.6531 5.66485 10.6864 5.60559 10.7456C5.54632 10.8049 5.51303 10.8852 5.51303 10.9691V11.3841C5.51303 11.4679 5.54632 11.5483 5.60559 11.6075C5.66485 11.6668 5.74522 11.7001 5.82903 11.7001C5.91284 11.7001 5.99322 11.6668 6.05248 11.6075C6.11174 11.5483 6.14503 11.4679 6.14503 11.3841Z" fill="#FF5A3C"/>
<path id="Path 61101" d="M7.95803 10.1152C7.999 10.1157 8.03968 10.1081 8.07773 10.093C8.11579 10.0778 8.15048 10.0552 8.17983 10.0266C8.20917 9.99801 8.23259 9.96392 8.24876 9.92627C8.26492 9.88862 8.27351 9.84813 8.27403 9.80716V9.39215C8.27403 9.30834 8.24074 9.22796 8.18147 9.1687C8.12221 9.10944 8.04184 9.07617 7.95803 9.07617C7.87422 9.07617 7.79384 9.10944 7.73458 9.1687C7.67532 9.22796 7.64203 9.30834 7.64203 9.39215V9.80716C7.64255 9.84813 7.65114 9.88862 7.6673 9.92627C7.68347 9.96392 7.70689 9.99801 7.73623 10.0266C7.76558 10.0552 7.80027 10.0778 7.83832 10.093C7.87638 10.1081 7.91706 10.1157 7.95803 10.1152Z" fill="#FF5A3C"/>
<path id="Path 61102" d="M10.534 10.969V10.554C10.534 10.4702 10.5007 10.3899 10.4415 10.3306C10.3822 10.2713 10.3018 10.238 10.218 10.238C10.1342 10.238 10.0539 10.2713 9.99459 10.3306C9.93533 10.3899 9.90204 10.4702 9.90204 10.554V10.969C9.90204 11.0528 9.93533 11.1332 9.99459 11.1925C10.0539 11.2517 10.1342 11.285 10.218 11.285C10.3018 11.285 10.3822 11.2517 10.4415 11.1925C10.5007 11.1332 10.534 11.0528 10.534 10.969Z" fill="#FF5A3C"/>
<path id="Path 61103" d="M15.196 10.1221C15.155 10.1214 15.1143 10.1289 15.0762 10.1441C15.0381 10.1592 15.0033 10.1817 14.9739 10.2104C14.9446 10.239 14.9212 10.2731 14.905 10.3109C14.8889 10.3486 14.8804 10.3891 14.88 10.4301V10.8441C14.88 10.9279 14.9133 11.0083 14.9726 11.0675C15.0319 11.1268 15.1122 11.1601 15.196 11.1601C15.2798 11.1601 15.3602 11.1268 15.4195 11.0675C15.4787 11.0083 15.512 10.9279 15.512 10.8441V10.4301C15.5116 10.3891 15.5031 10.3486 15.487 10.3109C15.4709 10.2731 15.4475 10.239 15.4181 10.2104C15.3888 10.1817 15.354 10.1592 15.3159 10.1441C15.2778 10.1289 15.237 10.1214 15.196 10.1221Z" fill="#FF5A3C"/>
<path id="Path 61104" d="M16.583 12.089V12.5039C16.583 12.5877 16.6163 12.6681 16.6756 12.7274C16.7349 12.7866 16.8152 12.8199 16.899 12.8199C16.9828 12.8199 17.0632 12.7866 17.1225 12.7274C17.1817 12.6681 17.215 12.5877 17.215 12.5039V12.089C17.215 12.0052 17.1817 11.9248 17.1225 11.8655C17.0632 11.8062 16.9828 11.7729 16.899 11.7729C16.8152 11.7729 16.7349 11.8062 16.6756 11.8655C16.6163 11.9248 16.583 12.0052 16.583 12.089Z" fill="#FF5A3C"/>
<path id="Path 61105" d="M18.158 13.6651V14.0801C18.158 14.1639 18.1913 14.2443 18.2506 14.3036C18.3098 14.3629 18.3902 14.3961 18.474 14.3961C18.5578 14.3961 18.6382 14.3629 18.6975 14.3036C18.7567 14.2443 18.79 14.1639 18.79 14.0801V13.6651C18.79 13.5813 18.7567 13.5009 18.6975 13.4417C18.6382 13.3824 18.5578 13.3491 18.474 13.3491C18.3902 13.3491 18.3098 13.3824 18.2506 13.4417C18.1913 13.5009 18.158 13.5813 18.158 13.6651Z" fill="#FF5A3C"/>
<path id="Path 61106" d="M12.063 13.126V12.711C12.063 12.6272 12.0297 12.5468 11.9705 12.4875C11.9112 12.4283 11.8308 12.395 11.747 12.395C11.6632 12.395 11.5828 12.4283 11.5236 12.4875C11.4643 12.5468 11.431 12.6272 11.431 12.711V13.126C11.431 13.2098 11.4643 13.2902 11.5236 13.3495C11.5828 13.4087 11.6632 13.442 11.747 13.442C11.8308 13.442 11.9112 13.4087 11.9705 13.3495C12.0297 13.2902 12.063 13.2098 12.063 13.126Z" fill="#FF5A3C"/>
<path id="Path 61107" d="M7.55704 13.25C7.55704 13.3338 7.59033 13.4142 7.64959 13.4734C7.70885 13.5327 7.78923 13.566 7.87304 13.566C7.95685 13.566 8.03722 13.5327 8.09648 13.4734C8.15574 13.4142 8.18904 13.3338 8.18904 13.25V12.836C8.18904 12.7522 8.15574 12.6718 8.09648 12.6125C8.03722 12.5533 7.95685 12.52 7.87304 12.52C7.78923 12.52 7.70885 12.5533 7.64959 12.6125C7.59033 12.6718 7.55704 12.7522 7.55704 12.836V13.25Z" fill="#FF5A3C"/>
<path id="Path 61108" d="M4.29702 13.8491C4.33799 13.8496 4.37867 13.842 4.41672 13.8268C4.45478 13.8117 4.48947 13.7891 4.51881 13.7605C4.54816 13.7319 4.57158 13.6978 4.58774 13.6602C4.60391 13.6225 4.6125 13.5821 4.61302 13.5411V13.1261C4.61302 13.0423 4.57973 12.9619 4.52046 12.9026C4.4612 12.8434 4.38083 12.8101 4.29702 12.8101C4.21321 12.8101 4.13283 12.8434 4.07357 12.9026C4.01431 12.9619 3.98102 13.0423 3.98102 13.1261V13.5411C3.98154 13.5821 3.99013 13.6225 4.00629 13.6602C4.02246 13.6978 4.04588 13.7319 4.07522 13.7605C4.10457 13.7891 4.13926 13.8117 4.17731 13.8268C4.21537 13.842 4.25604 13.8496 4.29702 13.8491Z" fill="#FF5A3C"/>
<path id="Path 61109" d="M17.94 3.85215C17.7903 3.74033 17.6126 3.67185 17.4266 3.65421C17.2405 3.63657 17.0531 3.67045 16.885 3.75214C16.8483 3.76973 16.8154 3.79447 16.7884 3.82493C16.7613 3.85538 16.7406 3.89092 16.7275 3.92948C16.7144 3.96804 16.7091 4.00884 16.7119 4.04947C16.7147 4.09011 16.7257 4.12978 16.744 4.16614C16.783 4.2396 16.8491 4.29499 16.9283 4.32056C17.0074 4.34613 17.0934 4.33988 17.168 4.30314C17.2543 4.26051 17.3538 4.25326 17.4454 4.28296C17.5369 4.31267 17.6132 4.37697 17.658 4.46213C17.6854 4.51335 17.7263 4.55618 17.7761 4.58603C17.8259 4.61588 17.8829 4.63163 17.941 4.63163C17.9991 4.63163 18.0561 4.61588 18.106 4.58603C18.1558 4.55618 18.1966 4.51335 18.224 4.46213C18.2686 4.37704 18.3448 4.31277 18.4362 4.28305C18.5275 4.25334 18.6269 4.26055 18.713 4.30314C18.7878 4.33993 18.8739 4.34622 18.9533 4.32065C19.0326 4.29509 19.0988 4.23968 19.138 4.16614C19.1564 4.12978 19.1673 4.09011 19.1702 4.04947C19.173 4.00884 19.1677 3.96804 19.1546 3.92948C19.1414 3.89092 19.1207 3.85538 19.0937 3.82493C19.0666 3.79447 19.0338 3.76973 18.997 3.75214C18.7596 3.63614 18.4863 3.61712 18.235 3.69913C18.1272 3.73262 18.0258 3.78401 17.935 3.85114L17.94 3.85215Z" fill="#FF5A3C"/>
<path id="Path 61110" d="M14.275 2.61002C14.3615 2.5676 14.4611 2.56048 14.5527 2.59015C14.6443 2.61982 14.7208 2.68396 14.766 2.76901C14.7933 2.82026 14.834 2.86311 14.8837 2.89301C14.9335 2.9229 14.9905 2.93869 15.0485 2.93869C15.1066 2.93869 15.1635 2.9229 15.2133 2.89301C15.2631 2.86311 15.3038 2.82026 15.331 2.76901C15.3758 2.68385 15.4521 2.61955 15.5437 2.58984C15.6352 2.56014 15.7347 2.56739 15.821 2.61002C15.8956 2.64676 15.9816 2.65302 16.0608 2.62744C16.1399 2.60187 16.206 2.54648 16.245 2.47302C16.2634 2.43666 16.2743 2.39699 16.2772 2.35635C16.28 2.31572 16.2747 2.27492 16.2616 2.23636C16.2484 2.1978 16.2277 2.16226 16.2007 2.13181C16.1736 2.10135 16.1408 2.07661 16.104 2.05902C15.8669 1.94297 15.5939 1.92395 15.343 2.00601C15.2351 2.03927 15.1337 2.09068 15.043 2.15802C14.8931 2.04622 14.7153 1.97775 14.529 1.96011C14.3428 1.94248 14.1553 1.97635 13.987 2.05801C13.9503 2.0756 13.9174 2.10034 13.8904 2.1308C13.8633 2.16125 13.8426 2.19679 13.8295 2.23535C13.8163 2.27391 13.811 2.31471 13.8139 2.35535C13.8167 2.39598 13.8277 2.43566 13.846 2.47202C13.885 2.54548 13.9511 2.60086 14.0303 2.62643C14.1094 2.65201 14.1954 2.64576 14.27 2.60901L14.275 2.61002Z" fill="#FF5A3C"/>
<path id="Path 61111" d="M16.319 0.653037C16.4054 0.610929 16.5047 0.603972 16.5961 0.633628C16.6875 0.663285 16.7639 0.727238 16.809 0.812034C16.8363 0.863282 16.877 0.906135 16.9268 0.936027C16.9765 0.965918 17.0335 0.981712 17.0915 0.981712C17.1496 0.981712 17.2066 0.965918 17.2563 0.936027C17.3061 0.906135 17.3468 0.863282 17.374 0.812034C17.419 0.727054 17.4954 0.662942 17.5868 0.633262C17.6783 0.603582 17.7777 0.610671 17.864 0.653037C17.9388 0.690093 18.025 0.69651 18.1044 0.670921C18.1838 0.645331 18.25 0.589763 18.289 0.516044C18.3081 0.479902 18.3196 0.440236 18.3228 0.399497C18.326 0.358759 18.3208 0.317808 18.3076 0.279136C18.2944 0.240464 18.2734 0.204894 18.246 0.174613C18.2186 0.144333 18.1852 0.119956 18.148 0.103019C17.9798 0.0211316 17.7923 -0.0128564 17.606 0.00478298C17.4197 0.0224223 17.2419 0.0910141 17.092 0.203025C16.9422 0.0910141 16.7644 0.0224223 16.5781 0.00478298C16.3918 -0.0128564 16.2043 0.0211316 16.036 0.103019C15.9989 0.119956 15.9655 0.144333 15.9381 0.174613C15.9106 0.204894 15.8897 0.240464 15.8765 0.279136C15.8633 0.317808 15.8581 0.358759 15.8613 0.399497C15.8645 0.440236 15.876 0.479902 15.895 0.516044C15.9341 0.589506 16.0001 0.644889 16.0793 0.670463C16.1584 0.696037 16.2444 0.689785 16.319 0.653037Z" fill="#FF5A3C"/>
<path id="Path 61112" d="M21.813 15.572C21.812 15.5171 21.7969 15.4634 21.769 15.416L19.134 11.097C19.09 11.0264 19.0201 10.9756 18.9392 10.9557C18.8584 10.9357 18.7729 10.948 18.701 10.99C18.6652 11.0096 18.6337 11.0363 18.6085 11.0684C18.5833 11.1006 18.5649 11.1376 18.5545 11.1771C18.5441 11.2166 18.5419 11.2578 18.548 11.2982C18.5541 11.3386 18.5684 11.3774 18.59 11.412L20.938 15.266H16.398L13.265 10.122L13.818 9.21405L14.338 9.02203L15.425 9.42202C15.4971 9.44798 15.576 9.44798 15.648 9.42202L16.735 9.02203L17.255 9.21405L17.841 10.176C17.8851 10.2469 17.9551 10.2979 18.0361 10.3181C18.1172 10.3382 18.2029 10.326 18.275 10.284C18.3108 10.2644 18.3422 10.2376 18.3673 10.2054C18.3924 10.1732 18.4107 10.1362 18.4209 10.0967C18.4312 10.0572 18.4334 10.016 18.4272 9.97567C18.421 9.93532 18.4067 9.89664 18.385 9.86203L16.174 6.23303C16.1066 6.12473 16.0127 6.03539 15.9011 5.97345C15.7896 5.91151 15.6641 5.87902 15.5365 5.87902C15.4089 5.87902 15.2835 5.91151 15.1719 5.97345C15.0604 6.03539 14.9665 6.12473 14.899 6.23303L12.899 9.51904L12.067 8.15204C12.7357 7.92346 13.3002 7.46272 13.6581 6.85342C14.016 6.24412 14.1435 5.52667 14.0175 4.83136C13.8916 4.13604 13.5204 3.50898 12.9715 3.06396C12.4226 2.61895 11.7324 2.3855 11.026 2.40603C10.2891 2.40464 9.5761 2.66714 9.01603 3.14602C8.94715 3.04006 8.85268 2.95319 8.74134 2.8934C8.63 2.8336 8.50539 2.80282 8.37901 2.80392C8.25264 2.80502 8.12858 2.83794 8.0183 2.89965C7.90801 2.96137 7.81506 3.0499 7.74803 3.15704L4.03003 9.25705C4.00839 9.29166 3.99404 9.33034 3.98786 9.37069C3.98169 9.41105 3.98381 9.45222 3.99411 9.49173C4.00441 9.53123 4.02266 9.56822 4.04775 9.60043C4.07284 9.63264 4.10424 9.65939 4.14003 9.67904C4.21206 9.72097 4.2976 9.73315 4.37846 9.71298C4.45933 9.69281 4.52913 9.64188 4.57303 9.57104L6.05903 7.13302L6.81103 6.85504L8.27403 7.39505C8.34626 7.42203 8.4258 7.42203 8.49803 7.39505L9.96103 6.85504L10.713 7.13302L15.665 15.2621H9.12103C9.03934 15.2621 8.961 15.2945 8.90324 15.3523C8.84548 15.41 8.81303 15.4883 8.81303 15.57C8.81303 15.6517 8.84548 15.7301 8.90324 15.7878C8.961 15.8456 9.03934 15.878 9.12103 15.878H21.181V16.589H0.86603V15.878H7.64603C7.72772 15.878 7.80606 15.8456 7.86382 15.7878C7.92158 15.7301 7.95403 15.6517 7.95403 15.57C7.95403 15.4883 7.92158 15.41 7.86382 15.3523C7.80606 15.2945 7.72772 15.2621 7.64603 15.2621H1.10503L3.81803 10.808C3.83967 10.7734 3.85402 10.7347 3.8602 10.6944C3.86637 10.654 3.86425 10.6128 3.85395 10.5733C3.84365 10.5338 3.8254 10.4968 3.80031 10.4646C3.77522 10.4324 3.74382 10.4057 3.70803 10.386C3.63612 10.344 3.55067 10.3317 3.46982 10.3517C3.38897 10.3717 3.31909 10.4224 3.27503 10.493L0.27503 15.412C0.246882 15.4628 0.232731 15.52 0.23403 15.578V16.905C0.234552 16.946 0.24314 16.9865 0.259303 17.0241C0.275467 17.0618 0.298889 17.0959 0.328233 17.1245C0.357577 17.1531 0.392268 17.1756 0.430324 17.1908C0.46838 17.206 0.509056 17.2136 0.55003 17.213H21.497C21.538 17.2136 21.5787 17.206 21.6167 17.1908C21.6548 17.1756 21.6895 17.1531 21.7188 17.1245C21.7482 17.0959 21.7716 17.0618 21.7878 17.0241C21.8039 16.9865 21.8125 16.946 21.813 16.905V15.576V15.572ZM15.442 6.54702C15.4521 6.53112 15.4661 6.51804 15.4826 6.50897C15.4991 6.4999 15.5177 6.49514 15.5365 6.49514C15.5554 6.49514 15.5739 6.4999 15.5904 6.50897C15.607 6.51804 15.6209 6.53112 15.631 6.54702L16.75 8.38504C16.7068 8.38318 16.6636 8.38997 16.623 8.40503L15.537 8.80505L14.45 8.40503C14.4095 8.38997 14.3663 8.38318 14.323 8.38504L15.442 6.54702ZM13.432 5.36905C13.4263 5.87557 13.258 6.36683 12.9519 6.77047C12.6458 7.17412 12.2182 7.4688 11.732 7.61105L9.34403 3.68704C9.79836 3.25865 10.3996 3.02065 11.024 3.02203C11.6547 3.01402 12.2628 3.25673 12.7147 3.6968C13.1666 4.13688 13.4253 4.73834 13.434 5.36905H13.432ZM10.071 6.24203C9.99863 6.216 9.91943 6.216 9.84703 6.24203L8.38403 6.78204L6.92003 6.24203C6.80324 6.21134 6.67908 6.2275 6.57403 6.28705L8.28903 3.47204C8.29873 3.45563 8.31267 3.44213 8.32939 3.43298C8.34611 3.42383 8.36498 3.41937 8.38403 3.42004C8.40302 3.41887 8.42196 3.42313 8.43861 3.43234C8.45526 3.44155 8.46893 3.45533 8.47803 3.47204L8.67803 3.80505L10.187 6.28305L10.071 6.24203Z" fill="#FF5A3C"/>
</g>
</g>
</svg>
