<svg width="18" height="18" viewBox="0 0 18 18" fill="none" xmlns="http://www.w3.org/2000/svg">
<g id="Group 7227">
<path id="Path 61132" d="M15.672 16.265H14.357C14.214 16.259 14.0789 16.1979 13.9799 16.0946C13.8809 15.9913 13.8256 15.8537 13.8256 15.7105C13.8256 15.5674 13.8809 15.4298 13.9799 15.3265C14.0789 15.2232 14.214 15.1621 14.357 15.156H15.672C15.915 15.1534 16.147 15.0546 16.3172 14.8812C16.4874 14.7078 16.5819 14.474 16.58 14.231V2.03104C16.5816 1.78825 16.487 1.55473 16.3168 1.38156C16.1466 1.20839 15.9148 1.1097 15.672 1.10706H2.23401C1.99115 1.10943 1.75916 1.20803 1.58893 1.38126C1.4187 1.55448 1.32415 1.78817 1.32601 2.03104V14.231C1.32388 14.4741 1.41832 14.708 1.58857 14.8815C1.75883 15.0549 1.99098 15.1537 2.23401 15.156H3.54701C3.69 15.1621 3.82512 15.2232 3.92414 15.3265C4.02317 15.4298 4.07846 15.5674 4.07846 15.7105C4.07846 15.8537 4.02317 15.9913 3.92414 16.0946C3.82512 16.1979 3.69 16.259 3.54701 16.265H2.23401C1.69915 16.2603 1.18805 16.0434 0.813031 15.662C0.438011 15.2806 0.22975 14.7659 0.234012 14.231V2.03104C0.230016 1.49634 0.438395 0.981917 0.813386 0.600739C1.18838 0.21956 1.69932 0.00280142 2.23401 -0.00195312H15.674C16.2087 0.00280142 16.7196 0.21956 17.0946 0.600739C17.4696 0.981917 17.678 1.49634 17.674 2.03104V14.231C17.6761 14.4961 17.626 14.7589 17.5265 15.0045C17.4271 15.2502 17.2802 15.4738 17.0943 15.6627C16.9084 15.8516 16.6871 16.002 16.4431 16.1053C16.199 16.2087 15.937 16.263 15.672 16.265Z" fill="#FF5A3C"/>
<path id="Path 61133" d="M17.125 3.69714H0.779005C0.636017 3.69107 0.500902 3.63 0.401874 3.52667C0.302845 3.42335 0.247559 3.28576 0.247559 3.14264C0.247559 2.99952 0.302845 2.86193 0.401874 2.75861C0.500902 2.65528 0.636017 2.59421 0.779005 2.58813H17.125C17.268 2.59421 17.4031 2.65528 17.5021 2.75861C17.6012 2.86193 17.6565 2.99952 17.6565 3.14264C17.6565 3.28576 17.6012 3.42335 17.5021 3.52667C17.4031 3.63 17.268 3.69107 17.125 3.69714Z" fill="#FF5A3C"/>
<path id="Path 61134" d="M8.95202 17.743C8.87878 17.7429 8.80632 17.7279 8.73902 17.699C8.57002 17.626 4.59302 15.864 4.59302 12.238V9.26803C4.59251 9.15293 4.62787 9.04052 4.69418 8.94644C4.76049 8.85235 4.85445 8.78127 4.96302 8.74304L8.77702 7.42303C8.89027 7.38308 9.01378 7.38308 9.12702 7.42303L12.941 8.74304C13.0498 8.78101 13.1439 8.85205 13.2102 8.94619C13.2766 9.04034 13.3118 9.15286 13.311 9.26803V12.238C13.311 15.864 9.33402 17.626 9.16502 17.699C9.09767 17.7278 9.02525 17.7427 8.95202 17.743ZM5.68302 9.66504V12.238C5.68302 14.714 8.19302 16.187 8.95102 16.575C9.70802 16.185 12.221 14.704 12.221 12.238V9.66504L8.95202 8.53305L5.68302 9.66504Z" fill="#FF5A3C"/>
<path id="Path 61135" d="M8.77 14.416C8.69829 14.4159 8.62731 14.4016 8.56121 14.3737C8.4951 14.3459 8.4352 14.3052 8.385 14.254L6.934 12.775C6.83163 12.6702 6.77432 12.5295 6.77432 12.383C6.77432 12.2365 6.83163 12.0958 6.934 11.991C6.98413 11.9395 7.04407 11.8986 7.11029 11.8706C7.1765 11.8427 7.24764 11.8283 7.3195 11.8283C7.39137 11.8283 7.46251 11.8427 7.52872 11.8706C7.59493 11.8986 7.65487 11.9395 7.705 11.991L8.714 13.018L10.514 10.572C10.5562 10.5138 10.6096 10.4647 10.6711 10.4275C10.7326 10.3903 10.801 10.3658 10.8721 10.3555C10.9432 10.3451 11.0157 10.3491 11.0852 10.3672C11.1548 10.3854 11.22 10.4172 11.277 10.461C11.3927 10.5507 11.4687 10.682 11.4889 10.827C11.5091 10.972 11.4718 11.1191 11.385 11.237L9.205 14.195C9.15844 14.2587 9.0985 14.3113 9.02939 14.3494C8.96029 14.3874 8.8837 14.4098 8.805 14.415L8.77 14.416Z" fill="#FF5A3C"/>
</g>
</svg>
