<svg width="65" height="65" viewBox="0 0 65 65" fill="none" xmlns="http://www.w3.org/2000/svg">
<g id="Group 12967">
<path id="Path 62216" d="M63.375 61.75H58.5V35.75H61.75C62.3929 35.75 63.0214 35.5595 63.5561 35.2024C64.0907 34.8453 64.5075 34.3377 64.7536 33.7438C64.9998 33.1498 65.0644 32.4963 64.9391 31.8656C64.8139 31.235 64.5045 30.6557 64.05 30.201L34.8 0.950951C34.4981 0.648709 34.1395 0.40894 33.7449 0.24535C33.3502 0.0817603 32.9272 -0.00244141 32.5 -0.00244141C32.0728 -0.00244141 31.6498 0.0817603 31.2551 0.24535C30.8605 0.40894 30.5019 0.648709 30.2 0.950951L21.123 10.027V6.49995C21.123 5.638 20.7806 4.81135 20.1711 4.20185C19.5616 3.59236 18.735 3.24995 17.873 3.24995H14.623C13.761 3.24995 12.9344 3.59236 12.3249 4.20185C11.7154 4.81135 11.373 5.638 11.373 6.49995V19.778L0.952 30.2C0.497543 30.6547 0.188133 31.234 0.0628896 31.8646C-0.0623542 32.4953 0.00219226 33.1488 0.248368 33.7428C0.494544 34.3367 0.911295 34.8443 1.44593 35.2014C1.98056 35.5585 2.60908 35.749 3.252 35.749H6.5V61.749H1.625C1.19402 61.749 0.780698 61.9202 0.475951 62.2249C0.171205 62.5296 0 62.943 0 63.374C0 63.8049 0.171205 64.2183 0.475951 64.523C0.780698 64.8278 1.19402 64.999 1.625 64.999H63.375C63.806 64.999 64.2193 64.8278 64.524 64.523C64.8288 64.2183 65 63.8049 65 63.374C65 62.943 64.8288 62.5296 64.524 62.2249C64.2193 61.9202 63.806 61.75 63.375 61.75ZM14.625 6.49995H17.875V13.278L14.625 16.528V6.49995ZM55.25 61.75H9.75V32.5H3.25L32.5 3.24995L61.75 32.5H55.25V61.75Z" fill="#FF5A3C"/>
<path id="Path 62217" d="M44.3496 27.2358L18.3496 52.4358L20.6496 54.6628L46.6496 29.4628L44.3496 27.2358Z" fill="#FF5A3C"/>
<path id="Path 62218" d="M24.3754 26.7748C23.1386 26.8141 21.9408 27.2167 20.9315 27.9324C19.9221 28.6481 19.1458 29.6452 18.6995 30.7993C18.2532 31.9534 18.1566 33.2133 18.4218 34.4219C18.687 35.6305 19.3022 36.7343 20.1908 37.5955C21.0793 38.4567 22.2017 39.0371 23.418 39.2644C24.6343 39.4917 25.8907 39.3559 27.0302 38.8737C28.1698 38.3916 29.1422 37.5845 29.826 36.5532C30.5098 35.522 30.8748 34.3122 30.8754 33.0748C30.8467 31.3781 30.1463 29.7621 28.9278 28.5811C27.7093 27.4001 26.0721 26.7505 24.3754 26.7748ZM24.3754 36.2248C23.7564 36.2056 23.1569 36.0044 22.6515 35.6465C22.1462 35.2886 21.7575 34.7897 21.5339 34.2122C21.3104 33.6347 21.2619 33.0042 21.3945 32.3993C21.5272 31.7944 21.835 31.242 22.2797 30.811C22.7244 30.38 23.2861 30.0896 23.8949 29.9759C24.5036 29.8622 25.1323 29.9304 25.7025 30.1719C26.2728 30.4134 26.7592 30.8175 27.1012 31.3337C27.4432 31.85 27.6255 32.4556 27.6254 33.0748C27.6189 33.4951 27.5296 33.9099 27.3628 34.2957C27.1959 34.6814 26.9547 35.0305 26.6529 35.323C26.3511 35.6156 25.9946 35.8458 25.6038 36.0005C25.2131 36.1552 24.7956 36.2314 24.3754 36.2248Z" fill="#FF5A3C"/>
<path id="Path 62219" d="M40.6254 42.5251C39.3886 42.5644 38.1908 42.967 37.1815 43.6827C36.1721 44.3984 35.3958 45.3955 34.9495 46.5495C34.5032 47.7036 34.4066 48.9636 34.6718 50.1722C34.937 51.3808 35.5522 52.4845 36.4408 53.3457C37.3293 54.2069 38.4517 54.7874 39.668 55.0147C40.8843 55.242 42.1407 55.1061 43.2802 54.6239C44.4198 54.1418 45.3922 53.3347 46.076 52.3035C46.7598 51.2722 47.1248 50.0624 47.1254 48.8251C47.0967 47.1284 46.3963 45.5123 45.1778 44.3313C43.9593 43.1503 42.3221 42.5007 40.6254 42.5251ZM40.6254 51.9751C40.0064 51.9558 39.4069 51.7547 38.9015 51.3967C38.3962 51.0388 38.0075 50.54 37.7839 49.9625C37.5604 49.385 37.5119 48.7544 37.6445 48.1495C37.7772 47.5447 38.085 46.9922 38.5297 46.5612C38.9744 46.1303 39.5361 45.8398 40.1449 45.7261C40.7536 45.6125 41.3823 45.6806 41.9525 45.9221C42.5228 46.1636 43.0092 46.5677 43.3512 47.084C43.6932 47.6003 43.8755 48.2058 43.8754 48.8251C43.8689 49.2453 43.7796 49.6602 43.6128 50.0459C43.4459 50.4317 43.2047 50.7808 42.9029 51.0733C42.6011 51.3658 42.2446 51.596 41.8538 51.7507C41.4631 51.9055 41.0456 51.9817 40.6254 51.9751Z" fill="#FF5A3C"/>
</g>
</svg>
