<svg width="58" height="61" viewBox="0 0 58 61" fill="none" xmlns="http://www.w3.org/2000/svg">
<g id="official-documents">
<path id="Ellipse 1" d="M24.5 43C25.3284 43 26 42.3284 26 41.5C26 40.6716 25.3284 40 24.5 40C23.6716 40 23 40.6716 23 41.5C23 42.3284 23.6716 43 24.5 43Z" fill="#FF5A3C"/>
<path id="Path 62236" d="M4.49056 16.668V21.378C4.48331 21.6831 4.59754 21.9786 4.80814 22.1995C5.01873 22.4204 5.30844 22.5486 5.61356 22.556H38.0576C38.3627 22.5486 38.6524 22.4204 38.863 22.1995C39.0736 21.9786 39.1878 21.6831 39.1806 21.378V16.668C39.1878 16.3629 39.0736 16.0674 38.863 15.8465C38.6524 15.6256 38.3627 15.4973 38.0576 15.49H5.61356C5.30844 15.4973 5.01873 15.6256 4.80814 15.8465C4.59754 16.0674 4.48331 16.3629 4.49056 16.668ZM16.3906 17.846H36.9346V20.201H16.3906V17.846ZM6.73556 17.846H14.1446V20.201H6.73556V17.846Z" fill="#FF5A3C"/>
<path id="Path 62237" d="M5.61369 27.2661H38.0577C38.3597 27.2509 38.6443 27.1202 38.8527 26.901C39.061 26.6819 39.1772 26.391 39.1772 26.0886C39.1772 25.7862 39.061 25.4954 38.8527 25.2762C38.6443 25.0571 38.3597 24.9264 38.0577 24.9111H5.61369C5.31168 24.9264 5.02707 25.0571 4.8187 25.2762C4.61034 25.4954 4.49414 25.7862 4.49414 26.0886C4.49414 26.391 4.61034 26.6819 4.8187 26.901C5.02707 27.1202 5.31168 27.2509 5.61369 27.2661Z" fill="#FF5A3C"/>
<path id="Path 62238" d="M5.61369 31.9761H38.0577C38.3597 31.9608 38.6443 31.8301 38.8527 31.611C39.061 31.3918 39.1772 31.101 39.1772 30.7986C39.1772 30.4962 39.061 30.2054 38.8527 29.9862C38.6443 29.7671 38.3597 29.6363 38.0577 29.6211H5.61369C5.31168 29.6363 5.02707 29.7671 4.8187 29.9862C4.61034 30.2054 4.49414 30.4962 4.49414 30.7986C4.49414 31.101 4.61034 31.3918 4.8187 31.611C5.02707 31.8301 5.31168 31.9608 5.61369 31.9761Z" fill="#FF5A3C"/>
<path id="Path 62239" d="M5.61369 36.687H24.2487C24.5507 36.6718 24.8353 36.5411 25.0437 36.3219C25.252 36.1028 25.3682 35.8119 25.3682 35.5095C25.3682 35.2071 25.252 34.9163 25.0437 34.6971C24.8353 34.478 24.5507 34.3473 24.2487 34.332H5.61369C5.31168 34.3473 5.02707 34.478 4.8187 34.6971C4.61034 34.9163 4.49414 35.2071 4.49414 35.5095C4.49414 35.8119 4.61034 36.1028 4.8187 36.3219C5.02707 36.5411 5.31168 36.6718 5.61369 36.687Z" fill="#FF5A3C"/>
<path id="Path 62240" d="M5.61369 41.397H19.7587C20.0607 41.3818 20.3453 41.251 20.5537 41.0319C20.762 40.8127 20.8782 40.5219 20.8782 40.2195C20.8782 39.9171 20.762 39.6263 20.5537 39.4071C20.3453 39.188 20.0607 39.0572 19.7587 39.042H5.61369C5.31168 39.0572 5.02707 39.188 4.8187 39.4071C4.61034 39.6263 4.49414 39.9171 4.49414 40.2195C4.49414 40.5219 4.61034 40.8127 4.8187 41.0319C5.02707 41.251 5.31168 41.3818 5.61369 41.397Z" fill="#FF5A3C"/>
<path id="Path 62241" d="M15.268 50.8192H20.994C21.2231 52.1199 21.8968 53.3007 22.9 54.1597C23.9032 55.0188 25.1735 55.5029 26.494 55.5292C28.0059 55.4554 29.4315 54.8029 30.4755 53.7068C31.5195 52.6106 32.1018 51.1549 32.1018 49.6412C32.1018 48.1274 31.5195 46.6717 30.4755 45.5756C29.4315 44.4795 28.0059 43.8269 26.494 43.7532C25.1735 43.7795 23.9032 44.2635 22.9 45.1226C21.8968 45.9817 21.2231 47.1625 20.994 48.4632H15.268C14.966 48.4784 14.6814 48.6091 14.473 48.8283C14.2646 49.0474 14.1484 49.3383 14.1484 49.6407C14.1484 49.9431 14.2646 50.2339 14.473 50.4531C14.6814 50.6722 14.966 50.8029 15.268 50.8182V50.8192ZM26.494 48.4642H23.319C23.5351 47.7887 23.9578 47.1981 24.5274 46.7756C25.097 46.3531 25.7849 46.12 26.494 46.1092C27.4019 46.1524 28.2583 46.5435 28.8856 47.2013C29.5129 47.8592 29.8628 48.7332 29.8628 49.6422C29.8628 50.5511 29.5129 51.4252 28.8856 52.083C28.2583 52.7409 27.4019 53.132 26.494 53.1752C25.7849 53.1643 25.097 52.9312 24.5274 52.5087C23.9578 52.0862 23.5351 51.4956 23.319 50.8202H26.494C26.796 50.8049 27.0806 50.6742 27.289 50.455C27.4973 50.2359 27.6135 49.9451 27.6135 49.6427C27.6135 49.3403 27.4973 49.0494 27.289 48.8303C27.0806 48.6111 26.796 48.4804 26.494 48.4652V48.4642Z" fill="#FF5A3C"/>
<path id="Path 62242" d="M38.0579 10.073C38.3599 10.0578 38.6445 9.92706 38.8529 9.7079C39.0613 9.48875 39.1775 9.19792 39.1775 8.89552C39.1775 8.59312 39.0613 8.30228 38.8529 8.08313C38.6445 7.86398 38.3599 7.73327 38.0579 7.71802H35.8129C35.5109 7.73327 35.2263 7.86398 35.0179 8.08313C34.8095 8.30228 34.6934 8.59312 34.6934 8.89552C34.6934 9.19792 34.8095 9.48875 35.0179 9.7079C35.2263 9.92706 35.5109 10.0578 35.8129 10.073H38.0579Z" fill="#FF5A3C"/>
<path id="Path 62243" d="M31.3216 10.073C31.6236 10.0578 31.9082 9.92706 32.1166 9.7079C32.3249 9.48875 32.4411 9.19792 32.4411 8.89552C32.4411 8.59312 32.3249 8.30228 32.1166 8.08313C31.9082 7.86398 31.6236 7.73327 31.3216 7.71802H29.0766C28.7746 7.73327 28.49 7.86398 28.2816 8.08313C28.0732 8.30228 27.957 8.59312 27.957 8.89552C27.957 9.19792 28.0732 9.48875 28.2816 9.7079C28.49 9.92706 28.7746 10.0578 29.0766 10.073H31.3216Z" fill="#FF5A3C"/>
<path id="Path 62244" d="M24.5872 10.073C24.8892 10.0578 25.1738 9.92706 25.3822 9.7079C25.5906 9.48875 25.7068 9.19792 25.7068 8.89552C25.7068 8.59312 25.5906 8.30228 25.3822 8.08313C25.1738 7.86398 24.8892 7.73327 24.5872 7.71802H22.3422C22.0402 7.73327 21.7556 7.86398 21.5472 8.08313C21.3389 8.30228 21.2227 8.59312 21.2227 8.89552C21.2227 9.19792 21.3389 9.48875 21.5472 9.7079C21.7556 9.92706 22.0402 10.0578 22.3422 10.073H24.5872Z" fill="#FF5A3C"/>
<path id="Ellipse 2" d="M21 61C22.1046 61 23 60.5523 23 60C23 59.4477 22.1046 59 21 59C19.8954 59 19 59.4477 19 60C19 60.5523 19.8954 61 21 61Z" fill="#FF5A3C"/>
<path id="Path 62245" d="M1.12332 60.9461H16.9523C17.2543 60.9309 17.5389 60.8001 17.7473 60.581C17.9557 60.3618 18.0719 60.071 18.0719 59.7686C18.0719 59.4662 17.9557 59.1754 17.7473 58.9562C17.5389 58.7371 17.2543 58.6063 16.9523 58.5911H2.24532V12.4281H10.1033C10.4081 12.4208 10.6975 12.2928 10.908 12.0723C11.1186 11.8519 11.233 11.5569 11.2263 11.2521V3.0071H41.4263V36.2931C40.9173 36.9251 40.4413 37.4801 40.0263 37.9231L37.6463 35.4231C37.1387 34.8781 36.5242 34.4436 35.8413 34.1464C35.1584 33.8492 34.4216 33.6959 33.6768 33.6959C32.932 33.6959 32.1953 33.8492 31.5123 34.1464C30.8294 34.4436 30.215 34.8781 29.7073 35.4231L28.1203 37.0881C27.9092 37.3139 27.7918 37.6115 27.7918 37.9206C27.7918 38.2297 27.9092 38.5273 28.1203 38.7531L41.4203 52.7071V58.5881H27.0553C26.7533 58.6033 26.4687 58.7341 26.2603 58.9532C26.052 59.1724 25.9358 59.4632 25.9358 59.7656C25.9358 60.068 26.052 60.3588 26.2603 60.578C26.4687 60.7971 26.7533 60.9279 27.0553 60.9431H42.5483C42.8534 60.9358 43.1432 60.8075 43.3537 60.5866C43.5643 60.3657 43.6786 60.0702 43.6713 59.7651V55.0651L44.0003 55.4101C44.1019 55.519 44.2249 55.6058 44.3615 55.6652C44.498 55.7245 44.6454 55.7552 44.7943 55.7552C44.9433 55.7552 45.0906 55.7245 45.2272 55.6652C45.3638 55.6058 45.4867 55.519 45.5883 55.4101L47.1753 53.7451C48.2323 52.6164 48.8205 51.1279 48.8205 49.5816C48.8205 48.0353 48.2323 46.5468 47.1753 45.4181L44.7953 42.9181C47.5613 40.2055 50.6812 37.8791 54.0703 36.0021C54.9241 35.5858 55.668 34.9747 56.2421 34.2179C56.8161 33.4611 57.2041 32.58 57.3748 31.6456C57.5456 30.7113 57.4942 29.7498 57.2248 28.839C56.9555 27.9281 56.4757 27.0934 55.8243 26.4021C55.185 25.7254 54.3843 25.2221 53.4974 24.9393C52.6105 24.6565 51.6663 24.6034 50.7532 24.7851C49.8402 24.9668 48.9882 25.3772 48.2771 25.978C47.5659 26.5788 47.0189 27.3502 46.6873 28.2201C45.8404 30.0007 44.8298 31.6987 43.6683 33.2921V1.8301C43.6756 1.52549 43.5618 1.23043 43.3518 1.00961C43.1419 0.788783 42.8529 0.66022 42.5483 0.6521L10.1043 0.6521C9.95561 0.653427 9.80867 0.684654 9.67227 0.743923C9.53587 0.803192 9.41278 0.889291 9.31032 0.9971L0.329325 10.4181C0.117413 10.6436 -0.000284139 10.9416 0.000324973 11.2511V59.7681C-0.00692272 60.0732 0.107311 60.3687 0.317905 60.5896C0.528498 60.8105 0.818208 60.9388 1.12332 60.9461ZM45.5873 47.0831C46.2225 47.7606 46.576 48.6544 46.576 49.5831C46.576 50.5118 46.2225 51.4056 45.5873 52.0831L44.7943 52.9151L30.5043 37.9231L31.2983 37.0901C31.6029 36.7632 31.9715 36.5025 32.3813 36.3242C32.791 36.146 33.233 36.054 33.6798 36.054C34.1266 36.054 34.5687 36.146 34.9784 36.3242C35.3881 36.5025 35.7567 36.7632 36.0613 37.0901L45.5873 47.0831ZM43.4283 37.4521C45.5041 34.8996 47.287 32.1222 48.7433 29.1721C48.9427 28.6495 49.2714 28.1859 49.6985 27.8247C50.1256 27.4635 50.6373 27.2164 51.1858 27.1066C51.7343 26.9967 52.3016 27.0277 52.8349 27.1965C53.3682 27.3654 53.85 27.6666 54.2353 28.0721C54.6256 28.4887 54.9126 28.9912 55.0733 29.539C55.234 30.0867 55.2639 30.6646 55.1606 31.226C55.0573 31.7875 54.8237 32.3169 54.4785 32.7716C54.1334 33.2263 53.6863 33.5936 53.1733 33.8441C49.5201 35.8334 46.1651 38.3272 43.2073 41.2521L41.6173 39.5841C42.1493 39.0131 42.7713 38.2841 43.4283 37.4491V37.4521ZM8.98133 4.6731V10.0731H3.83332L8.98133 4.6731Z" fill="#FF5A3C"/>
</g>
</svg>
