<svg width="73" height="66" viewBox="0 0 73 66" fill="none" xmlns="http://www.w3.org/2000/svg">
<path id="Path 62215" d="M72.223 41.1119C71.5342 40.1527 70.5023 39.4958 69.3418 39.2775C68.1812 39.0593 66.9812 39.2965 65.991 39.9399L56.675 46.0039L56.648 27.1289L59.885 30.0779C60.5767 30.7062 61.4785 31.053 62.413 31.0499H62.419C62.9213 31.0497 63.4184 30.9489 63.8811 30.7534C64.3438 30.558 64.7627 30.2719 65.113 29.9119C65.4444 29.5714 65.7035 29.1674 65.8749 28.7243C66.0463 28.2811 66.1264 27.8079 66.1105 27.333C66.0945 26.8581 65.9828 26.3914 65.782 25.9607C65.5812 25.5301 65.2955 25.1445 64.942 24.8269L58.806 19.2369C58.602 19.0529 58.3347 18.955 58.06 18.9637C57.7854 18.9725 57.5249 19.0873 57.333 19.2839C57.2396 19.3799 57.1665 19.4937 57.1182 19.6186C57.0698 19.7435 57.0472 19.8768 57.0517 20.0107C57.0562 20.1445 57.0877 20.2761 57.1443 20.3974C57.2008 20.5188 57.2814 20.6275 57.381 20.7169L63.517 26.3069C63.6713 26.4456 63.796 26.614 63.8836 26.802C63.9713 26.99 64.02 27.1938 64.0269 27.4012C64.0338 27.6085 63.9988 27.8151 63.9239 28.0086C63.849 28.202 63.7357 28.3783 63.591 28.5269C63.439 28.6857 63.2562 28.812 63.0539 28.8979C62.8516 28.9839 62.6338 29.0278 62.414 29.0269C62.0073 29.0276 61.615 28.8764 61.314 28.6029L36.945 6.39994C36.7495 6.22293 36.4952 6.12491 36.2315 6.12491C35.9678 6.12491 35.7135 6.22293 35.518 6.39994L11.218 28.6649C10.9028 28.9509 10.4891 29.1038 10.0637 29.0915C9.63829 29.0792 9.23415 28.9027 8.936 28.5989C8.79096 28.451 8.67725 28.2754 8.60169 28.0825C8.52612 27.8896 8.49025 27.6834 8.49623 27.4763C8.5022 27.2692 8.5499 27.0655 8.63646 26.8773C8.72302 26.6891 8.84667 26.5203 9 26.3809L35.121 2.45194C35.4243 2.17851 35.8182 2.02719 36.2265 2.02719C36.6348 2.02719 37.0287 2.17851 37.332 2.45194L52.612 16.3739C52.816 16.558 53.0833 16.6559 53.358 16.6471C53.6326 16.6384 53.8931 16.5236 54.085 16.3269C54.1784 16.231 54.2515 16.1172 54.2998 15.9923C54.3482 15.8674 54.3708 15.7341 54.3663 15.6002C54.3618 15.4664 54.3303 15.3348 54.2737 15.2135C54.2172 15.0921 54.1366 14.9834 54.037 14.8939L38.757 0.969943C38.0615 0.344291 37.1587 -0.00128931 36.2232 3.61484e-06C35.2876 0.00129654 34.3858 0.349371 33.692 0.976943L25.331 8.63694V7.27094C25.3307 7.05807 25.2875 6.84745 25.2038 6.65173C25.1201 6.456 24.9977 6.2792 24.844 6.13194C24.5305 5.82814 24.1106 5.65908 23.674 5.66094L17.693 5.66894C17.2557 5.66752 16.8352 5.83771 16.522 6.14294C16.3686 6.29069 16.2466 6.46793 16.1635 6.664C16.0803 6.86008 16.0376 7.07095 16.038 7.28394L16.055 17.1419L7.575 24.9059C7.22252 25.2245 6.93802 25.6109 6.73855 26.0421C6.53907 26.4733 6.42874 26.9404 6.41418 27.4152C6.39961 27.8901 6.4811 28.363 6.65377 28.8056C6.82643 29.2482 7.08671 29.6514 7.419 29.9909C8.0974 30.6926 9.02435 31.0995 10 31.1239H10.113C11.0504 31.1277 11.9548 30.7781 12.646 30.1449L15.875 27.1859L15.888 36.1009C14.8399 35.9515 13.7827 35.876 12.724 35.8749H10.942V35.2669C10.927 34.2729 10.5186 33.3254 9.80637 32.6319C9.09412 31.9384 8.13604 31.5555 7.142 31.5669H3.8C2.80596 31.5555 1.84788 31.9384 1.13563 32.6319C0.423374 33.3254 0.0150159 34.2729 0 35.2669L0 51.1469C0.00182603 51.2819 0.0302281 51.4153 0.0835841 51.5393C0.13694 51.6633 0.214205 51.7756 0.310966 51.8698C0.407727 51.9639 0.522089 52.0381 0.647521 52.0881C0.772953 52.138 0.906998 52.1628 1.042 52.1609C1.177 52.1628 1.31105 52.138 1.43648 52.0881C1.56191 52.0381 1.67627 51.9639 1.77303 51.8698C1.8698 51.7756 1.94706 51.6633 2.00042 51.5393C2.05377 51.4153 2.08217 51.2819 2.084 51.1469V35.2659C2.09111 34.817 2.27555 34.3891 2.59705 34.0756C2.91856 33.7622 3.35101 33.5887 3.8 33.5929H7.138C7.58768 33.5876 8.02116 33.7606 8.34353 34.0742C8.6659 34.3878 8.85089 34.8163 8.858 35.2659V59.2659C8.85089 59.7156 8.6659 60.1441 8.34353 60.4577C8.02116 60.7712 7.58768 60.9443 7.138 60.9389H3.8C3.35032 60.9443 2.91684 60.7712 2.59447 60.4577C2.2721 60.1441 2.08711 59.7156 2.08 59.2659V57.4909C2.07605 57.2185 1.96407 56.9587 1.76868 56.7688C1.57329 56.5788 1.31048 56.4742 1.038 56.4779C0.766209 56.4753 0.504422 56.5803 0.309899 56.7702C0.115377 56.96 0.00395287 57.2192 0 57.4909L0 59.2639C0.0150159 60.2579 0.423374 61.2055 1.13563 61.899C1.84788 62.5925 2.80596 62.9754 3.8 62.9639H7.138C8.13204 62.9754 9.09012 62.5925 9.80237 61.899C10.5146 61.2055 10.923 60.2579 10.938 59.2639V59.1239L26.2 64.7469C26.228 64.7569 26.257 64.7669 26.286 64.7739C26.9311 64.9537 27.5974 65.0458 28.267 65.0479C28.6199 65.0481 28.9722 65.0214 29.321 64.9679L51.748 61.8239H51.764C53.6641 61.5303 55.4557 60.7492 56.964 59.5569L57 59.5239L71.49 46.8499C72.3039 46.156 72.83 45.1836 72.9656 44.1226C73.1011 43.0616 72.8364 41.9882 72.223 41.1119ZM23.246 7.68794V10.5429L18.126 15.2339L18.113 7.69394L23.246 7.68794ZM36.235 8.52994L54.562 25.2239L54.594 47.3549L51.644 49.2749L48.52 49.1039L48.437 48.2969C48.2838 46.9059 47.6849 45.6018 46.7297 44.579C45.7745 43.5563 44.5143 42.8698 43.137 42.6219L43.118 29.4559C43.1096 28.9634 42.9064 28.4942 42.553 28.1511C42.1995 27.808 41.7246 27.6188 41.232 27.6249L31.301 27.6389C30.8032 27.6371 30.3246 27.8306 29.968 28.1779C29.7935 28.3464 29.6548 28.5484 29.5603 28.7718C29.4657 28.9952 29.4174 29.2354 29.418 29.4779L29.435 40.9569C27.4709 40.5211 25.5833 39.7934 23.835 38.7979C23.6157 38.6733 23.3943 38.5526 23.171 38.4359C23.084 38.3899 22.996 38.3479 22.908 38.3029C22.772 38.2339 22.637 38.1649 22.5 38.1029C22.391 38.0499 22.28 38.0029 22.17 37.9489C22.06 37.8949 21.937 37.8409 21.819 37.7889C21.701 37.7369 21.579 37.6889 21.458 37.6349C21.337 37.5809 21.238 37.5419 21.127 37.4979C21.016 37.4539 20.878 37.3979 20.753 37.3529C20.628 37.3079 20.531 37.2689 20.42 37.2279C20.309 37.1869 20.172 37.1399 20.048 37.0969C19.924 37.0539 19.814 37.0179 19.697 36.9799C19.58 36.9419 19.458 36.9039 19.338 36.8669C19.218 36.8299 19.082 36.7899 18.953 36.7529C18.842 36.7209 18.732 36.6899 18.621 36.6599C18.476 36.6209 18.33 36.5839 18.184 36.5479C18.116 36.5309 18.048 36.5119 17.984 36.4949L17.968 25.2799L36.235 8.52994ZM41.051 42.3739L32.336 41.3979L31.515 41.3059L31.5 29.6699L41.035 29.6569L41.051 42.3739ZM70.1 45.3389L55.629 57.9989C54.4129 58.9547 52.9714 59.5815 51.443 59.8189L29.027 62.9609H29.013H28.997C28.2955 63.0637 27.5803 63.0191 26.897 62.8299L10.942 56.9589V37.8999H12.725C14.2366 37.8999 15.7434 38.0676 17.218 38.3999L17.382 38.4379C17.562 38.4799 17.742 38.5239 17.921 38.5709L17.968 38.5839C18.1473 38.6319 18.3263 38.6823 18.505 38.7349L18.605 38.7629C18.7943 38.8196 18.983 38.8793 19.171 38.9419L19.229 38.9619C19.6203 39.0953 20.0073 39.2386 20.39 39.3919L20.453 39.4169C20.6437 39.4949 20.833 39.5756 21.021 39.6589L21.036 39.6659C21.218 39.7473 21.3987 39.8313 21.578 39.9179L21.641 39.9479C21.8163 40.0333 21.9903 40.1213 22.163 40.2119L22.263 40.2639C22.437 40.3569 22.611 40.4509 22.783 40.5489C25.2574 41.9582 27.9787 42.8804 30.8 43.2659H30.827L42.5 44.5759C42.5667 44.5853 42.631 44.5956 42.693 44.6069C43.5179 44.7502 44.2859 45.1222 44.9098 45.6805C45.5337 46.2388 45.9884 46.961 46.222 47.7649C46.2903 48.0064 46.3374 48.2533 46.363 48.5029L46.409 48.9559L24.529 47.0919C24.2574 47.0654 23.9862 47.1473 23.7747 47.3198C23.5632 47.4923 23.4285 47.7415 23.4 48.0129C23.3894 48.1475 23.4055 48.2828 23.4474 48.411C23.4893 48.5393 23.5563 48.658 23.6443 48.7603C23.7323 48.8625 23.8398 48.9463 23.9604 49.0069C24.081 49.0674 24.2124 49.1035 24.347 49.1129L47.48 51.0819H47.5H47.516L51.879 51.3199H51.937C51.958 51.3199 51.978 51.3199 51.999 51.3199C52.02 51.3199 52.045 51.3199 52.069 51.3199C52.093 51.3199 52.13 51.3099 52.161 51.3029C52.192 51.2959 52.205 51.2949 52.226 51.2889C52.2599 51.279 52.2933 51.2673 52.326 51.2539C52.343 51.2469 52.361 51.2419 52.379 51.2339C52.4279 51.2123 52.475 51.1869 52.52 51.1579L56.22 48.7479L67.152 41.6239C67.6838 41.278 68.3285 41.1503 68.9521 41.2674C69.5756 41.3846 70.13 41.7375 70.5 42.2529C70.8291 42.7249 70.9705 43.3026 70.8965 43.8733C70.8226 44.4439 70.5386 44.9665 70.1 45.3389Z" fill="#0A2C3D"/>
</svg>
