<svg width="56" height="69" viewBox="0 0 56 69" fill="none" xmlns="http://www.w3.org/2000/svg">
<g id="Group 12968">
<path id="Path 62220" d="M56 57.11C55.837 47.732 45.638 44.962 38.191 42.939C37.322 42.703 36.491 42.476 35.704 42.249V38.381C37.2109 37.4963 38.5437 36.3441 39.637 34.981H44.173C45.2077 35.0112 46.2123 34.6304 46.967 33.9218C47.7217 33.2132 48.165 32.2346 48.2 31.2V26.616C48.476 26.0136 48.619 25.3587 48.619 24.696V23.271C48.6191 22.6086 48.4762 21.954 48.2 21.352V18.989C48.2 8.518 39.137 0 28 0C16.863 0 7.806 8.518 7.806 18.989V21.289C7.806 21.307 7.806 21.324 7.806 21.342C7.52591 21.9479 7.38089 22.6075 7.381 23.275V24.7C7.42437 26.0354 7.99507 27.2992 8.96816 28.2147C9.94125 29.1303 11.2374 29.623 12.573 29.585H13.76C14.1884 31.4215 14.9897 33.1503 16.1143 34.6641C17.2388 36.178 18.6625 37.4445 20.297 38.385V42.254C19.514 42.481 18.678 42.708 17.81 42.944C10.362 44.962 0.163 47.733 0 57.11C0 57.117 0 57.125 0 57.132V67.652C0.0117544 68.0208 0.16935 68.3699 0.438198 68.6226C0.707047 68.8753 1.06518 69.011 1.434 69H5.684C6.04204 69 6.38542 68.8578 6.63859 68.6046C6.89177 68.3514 7.034 68.008 7.034 67.65C7.034 67.292 6.89177 66.9486 6.63859 66.6954C6.38542 66.4422 6.04204 66.3 5.684 66.3H2.867V57.143C2.927 53.871 4.526 51.419 7.898 49.425C10.3084 48.1084 12.8694 47.0886 15.525 46.388L18.989 52.732C19.0915 52.9023 19.2269 53.0505 19.3872 53.168C19.5476 53.2855 19.7297 53.37 19.9229 53.4165C20.1162 53.463 20.3167 53.4707 20.513 53.439C20.7092 53.4073 20.8972 53.337 21.066 53.232L22.61 52.253L23.936 56.938L21.663 66.3H18.557C18.199 66.3 17.8556 66.4422 17.6024 66.6954C17.3492 66.9486 17.207 67.292 17.207 67.65C17.207 68.008 17.3492 68.3514 17.6024 68.6046C17.8556 68.8578 18.199 69 18.557 69H54.567C54.9356 69.0108 55.2935 68.8749 55.5622 68.6222C55.8308 68.3695 55.9882 68.0206 56 67.652V57.132C56 57.125 56 57.117 56 57.11ZM37.4 45.528L37.686 45.606L35.2 50.15L30.562 47.21L34.492 44.718C35.407 44.988 36.378 45.252 37.395 45.528H37.4ZM28 48.835L30.875 50.657L29.486 55.566H26.514L25.125 50.658L28 48.835ZM28 45.584L23.163 42.518V39.681C26.3036 40.7199 29.6954 40.7199 32.836 39.681V42.517L28 45.584ZM39.679 19.235L39.62 19.2C36.678 17.44 34.138 15.919 30.157 16.99C30.12 17 30.083 17.011 30.047 17.024C29.203 17.324 28.436 17.6 27.693 17.868C23.16 19.508 20.684 20.404 16.32 20.289V19.21C16.32 13.156 21.559 8.23 27.999 8.23C34.439 8.23 39.678 13.155 39.678 19.21L39.679 19.235ZM45.331 31.2C45.3211 31.4979 45.1936 31.7797 44.9763 31.9838C44.7591 32.1879 44.4699 32.2976 44.172 32.289H41.316C41.723 31.4238 42.0332 30.5163 42.241 29.583H43.426C44.0771 29.5835 44.7229 29.4674 45.333 29.24V31.2H45.331ZM45.75 24.7C45.7309 25.2983 45.4755 25.8647 45.0398 26.2752C44.604 26.6856 44.0234 26.9067 43.425 26.89H42.545C42.545 26.857 42.545 21.09 42.545 21.09H43.424C44.0219 21.0727 44.6022 21.2931 45.038 21.7028C45.4737 22.1125 45.7294 22.6782 45.749 23.276L45.75 24.7ZM12.575 26.89C11.9766 26.9067 11.396 26.6856 10.9602 26.2752C10.5244 25.8647 10.2691 25.2983 10.25 24.7V23.271C10.2696 22.6732 10.5253 22.1075 10.961 21.6978C11.3968 21.2881 11.9771 21.0677 12.575 21.085H13.454C13.454 21.085 13.454 26.852 13.454 26.885L12.575 26.89ZM13.48 18.39H12.574C11.9255 18.3894 11.2821 18.5045 10.674 18.73C10.824 9.864 18.538 2.7 28 2.7C37.462 2.7 45.181 9.87 45.328 18.735C44.72 18.5092 44.0766 18.3937 43.428 18.394H42.522C42.066 11.23 35.728 5.535 28 5.535C20.272 5.535 13.934 11.23 13.481 18.39H13.48ZM16.407 28.1C16.3508 27.6666 16.3221 27.23 16.321 26.793V22.993C21.221 23.105 24.151 22.047 28.721 20.393C29.441 20.132 30.186 19.863 30.997 19.576C33.705 18.865 35.263 19.798 38.078 21.483C38.566 21.775 39.102 22.096 39.678 22.425V26.795C39.6756 28.7398 39.1286 30.6451 38.099 32.295H28C27.642 32.295 27.2986 32.4372 27.0454 32.6904C26.7922 32.9436 26.65 33.287 26.65 33.645C26.65 34.003 26.7922 34.3464 27.0454 34.5996C27.2986 34.8528 27.642 34.995 28 34.995H35.759C33.5781 36.8007 30.8313 37.7813 28 37.765C25.225 37.8305 22.5205 36.887 20.3885 35.1095C18.2565 33.3321 16.8418 30.8415 16.407 28.1ZM20.8 50.15L18.32 45.606L18.605 45.528C19.622 45.252 20.593 44.988 21.505 44.718L25.436 47.21L20.8 50.15ZM24.6 66.3L26.551 58.257H29.441L31.4 66.3H24.6ZM53.129 66.3H34.34L32.065 56.934L33.391 52.247L34.939 53.228C35.1078 53.333 35.2958 53.4033 35.492 53.435C35.6883 53.4667 35.8888 53.459 36.0821 53.4125C36.2754 53.366 36.4574 53.2815 36.6178 53.164C36.7781 53.0465 36.9135 52.8983 37.016 52.728L40.476 46.385C43.1307 47.0869 45.6907 48.1076 48.1 49.425C51.472 51.419 53.071 53.871 53.131 57.143V66.3H53.129Z" fill="#0A2C3D"/>
<path id="Path 62221" d="M47.4715 59.5659H40.2465C39.8884 59.5659 39.5451 59.7081 39.2919 59.9613C39.0387 60.2145 38.8965 60.5579 38.8965 60.9159C38.8965 61.274 39.0387 61.6173 39.2919 61.8705C39.5451 62.1237 39.8884 62.2659 40.2465 62.2659H47.4715C47.8295 62.2659 48.1729 62.1237 48.4261 61.8705C48.6793 61.6173 48.8215 61.274 48.8215 60.9159C48.8215 60.5579 48.6793 60.2145 48.4261 59.9613C48.1729 59.7081 47.8295 59.5659 47.4715 59.5659Z" fill="#0A2C3D"/>
<path id="Path 62222" d="M12.1195 66.3C11.7615 66.3 11.4181 66.4423 11.1649 66.6954C10.9118 66.9486 10.7695 67.292 10.7695 67.65C10.7695 68.0081 10.9118 68.3515 11.1649 68.6046C11.4181 68.8578 11.7615 69 12.1195 69C12.4776 69 12.821 68.8578 13.0741 68.6046C13.3273 68.3515 13.4695 68.0081 13.4695 67.65C13.4695 67.292 13.3273 66.9486 13.0741 66.6954C12.821 66.4423 12.4776 66.3 12.1195 66.3Z" fill="#0A2C3D"/>
</g>
</svg>
