<svg width="60" height="65" viewBox="0 0 60 65" fill="none" xmlns="http://www.w3.org/2000/svg">
<g id="Group 12970">
<g id="Group 12972">
<path id="Path 62231" d="M37.4741 44.406L31.8181 40.511V34.583C31.8163 34.4405 31.7863 34.2997 31.73 34.1688C31.6737 34.0378 31.5922 33.9193 31.49 33.8199C31.3878 33.7205 31.2671 33.6422 31.1346 33.5896C31.0021 33.5369 30.8606 33.5109 30.7181 33.513H26.3331C26.1906 33.5109 26.049 33.5369 25.9166 33.5896C25.7841 33.6422 25.6633 33.7205 25.5612 33.8199C25.459 33.9193 25.3774 34.0378 25.3211 34.1688C25.2648 34.2997 25.2349 34.4405 25.2331 34.583V35.974L20.3801 32.634C20.1939 32.5066 19.9736 32.4385 19.7481 32.4385C19.5225 32.4385 19.3022 32.5066 19.1161 32.634L2.02908 44.404C1.70496 44.6274 1.4291 44.9136 1.2179 45.2458C1.0067 45.5779 0.864495 45.9491 0.799742 46.3374C0.734989 46.7256 0.749015 47.1229 0.840984 47.5056C0.932953 47.8883 1.10099 48.2486 1.33508 48.565C1.81936 49.2096 2.53531 49.6406 3.33159 49.767C4.12786 49.8933 4.94206 49.7051 5.60208 49.242L7.68608 47.751V62.403C7.69346 62.9777 7.9287 63.5259 8.34011 63.9272C8.75152 64.3285 9.30542 64.55 9.88008 64.543H29.6241C30.1987 64.55 30.7526 64.3285 31.164 63.9272C31.5755 63.5259 31.8107 62.9777 31.8181 62.403V47.752L33.9021 49.243C34.3406 49.5561 34.8528 49.7503 35.3887 49.8068C35.9246 49.8632 36.4659 49.7799 36.9601 49.565C37.4497 49.3563 37.8746 49.0204 38.1909 48.5923C38.5072 48.1642 38.7034 47.6594 38.7591 47.13C38.8096 46.6022 38.717 46.0706 38.4911 45.5909C38.2652 45.1112 37.9142 44.7012 37.4751 44.404L37.4741 44.406ZM27.4301 35.653H29.6241V39L27.4301 37.49V35.653ZM14.2671 62.403V55.983H18.6591V62.403H14.2671ZM29.6231 62.403H20.8491V54.913C20.8473 54.7705 20.8173 54.6297 20.761 54.4988C20.7047 54.3678 20.6232 54.2493 20.521 54.1499C20.4188 54.0505 20.2981 53.9722 20.1656 53.9196C20.0331 53.8669 19.8916 53.8409 19.7491 53.843H13.1711C13.0286 53.8409 12.887 53.8669 12.7546 53.9196C12.6221 53.9722 12.5013 54.0505 12.3992 54.1499C12.297 54.2493 12.2154 54.3678 12.1591 54.4988C12.1028 54.6297 12.0729 54.7705 12.0711 54.913V62.403H9.88008V46.182L19.7521 39.12L29.6241 46.182L29.6231 62.403ZM36.4231 47.303C36.3568 47.3978 36.2725 47.4784 36.1749 47.5403C36.0773 47.6023 35.9685 47.6443 35.8546 47.6639C35.7407 47.6835 35.624 47.6804 35.5113 47.6546C35.3987 47.6289 35.2922 47.5811 35.1981 47.514L20.3981 36.921C20.2084 36.7857 19.9811 36.7129 19.7481 36.7129C19.515 36.7129 19.2878 36.7857 19.0981 36.921L4.29808 47.518C4.17518 47.6185 4.02735 47.6839 3.87029 47.7071C3.71324 47.7304 3.55282 47.7106 3.40608 47.65C3.25923 47.593 3.13159 47.4955 3.038 47.3687C2.94441 47.242 2.88872 47.0913 2.87741 46.9342C2.86609 46.7771 2.89962 46.62 2.97409 46.4812C3.04856 46.3423 3.16091 46.2275 3.29808 46.15L19.7521 34.823L36.2051 46.153C36.2958 46.214 36.3736 46.2924 36.4338 46.3837C36.4941 46.4749 36.5356 46.5772 36.5561 46.6846C36.5765 46.792 36.5755 46.9024 36.553 47.0095C36.5305 47.1165 36.487 47.2179 36.4251 47.308L36.4231 47.303Z" fill="#0A2C3D"/>
<path id="Path 62232" d="M21.9453 54.9141V59.1941C21.9471 59.3366 21.9771 59.4774 22.0333 59.6084C22.0896 59.7393 22.1712 59.8579 22.2734 59.9573C22.3756 60.0566 22.4963 60.1349 22.6288 60.1876C22.7612 60.2402 22.9028 60.2662 23.0453 60.2641H27.4293C27.5718 60.2662 27.7134 60.2402 27.8458 60.1876C27.9783 60.1349 28.0991 60.0566 28.2012 59.9573C28.3034 59.8579 28.385 59.7393 28.4413 59.6084C28.4976 59.4774 28.5275 59.3366 28.5293 59.1941V54.9141C28.5275 54.7716 28.4976 54.6308 28.4413 54.4999C28.385 54.3689 28.3034 54.2504 28.2012 54.151C28.0991 54.0516 27.9783 53.9733 27.8458 53.9207C27.7134 53.868 27.5718 53.842 27.4293 53.8441H23.0413C22.7542 53.8409 22.4775 53.9518 22.272 54.1524C22.0665 54.353 21.949 54.627 21.9453 54.9141ZM24.1393 55.9841H26.3333V58.1241H24.1383L24.1393 55.9841Z" fill="#0A2C3D"/>
<path id="Path 62233" d="M15.3646 47.4231C15.343 48.2956 15.5819 49.1546 16.0508 49.8906C16.5198 50.6266 17.1975 51.2061 17.9974 51.555C18.7973 51.904 19.683 52.0065 20.5415 51.8496C21.3999 51.6927 22.1921 51.2834 22.8169 50.6741C23.4416 50.0647 23.8705 49.283 24.0487 48.4287C24.227 47.5744 24.1465 46.6863 23.8176 45.878C23.4887 45.0697 22.9263 44.3777 22.2023 43.8906C21.4782 43.4034 20.6253 43.1432 19.7526 43.1432C18.6032 43.129 17.4953 43.5719 16.6724 44.3746C15.8495 45.1772 15.3791 46.2738 15.3646 47.4231ZM21.9456 47.4231C21.9564 47.8592 21.8369 48.2886 21.6024 48.6564C21.368 49.0243 21.0292 49.3139 20.6293 49.4882C20.2295 49.6626 19.7868 49.7138 19.3577 49.6354C18.9286 49.5569 18.5326 49.3523 18.2204 49.0477C17.9081 48.7432 17.6937 48.3524 17.6046 47.9254C17.5155 47.4984 17.5556 47.0546 17.72 46.6505C17.8843 46.2464 18.1654 45.9005 18.5273 45.657C18.8892 45.4134 19.3154 45.2833 19.7516 45.2832C20.3263 45.2762 20.8802 45.4977 21.2916 45.899C21.703 46.3003 21.9383 46.8485 21.9456 47.4231Z" fill="#0A2C3D"/>
<path id="Path 62235" d="M54.8518 45.2841H43.8828C43.3081 45.2772 42.7542 45.4987 42.3428 45.8999C41.9314 46.3012 41.6962 46.8494 41.6888 47.4241V49.5641C41.6918 49.659 41.7015 49.7536 41.7178 49.8471C41.3804 50.0267 41.0977 50.294 40.8995 50.6208C40.7013 50.9476 40.595 51.3219 40.5918 51.7041V53.8441C40.595 54.2263 40.7013 54.6006 40.8995 54.9274C41.0977 55.2542 41.3804 55.5215 41.7178 55.7011C41.7018 55.7946 41.6924 55.8892 41.6898 55.9841V58.1241C41.6927 58.219 41.7024 58.3136 41.7188 58.4071C41.3814 58.5867 41.0987 58.854 40.9005 59.1808C40.7023 59.5076 40.596 59.8819 40.5928 60.2641V62.4041C40.6002 62.9787 40.8354 63.527 41.2468 63.9282C41.6582 64.3295 42.2121 64.551 42.7868 64.5441H53.7558C54.3305 64.551 54.8844 64.3295 55.2958 63.9282C55.7072 63.527 55.9424 62.9787 55.9498 62.4041V60.2641C55.9464 60.1702 55.9364 60.0766 55.9198 59.9841C56.2572 59.8045 56.5399 59.5372 56.7381 59.2104C56.9363 58.8836 57.0426 58.5093 57.0458 58.1271V55.9841C57.0426 55.6019 56.9363 55.2276 56.7381 54.9008C56.5399 54.574 56.2572 54.3067 55.9198 54.1271C55.9362 54.0336 55.9459 53.939 55.9488 53.8441V51.7041C55.9458 51.6092 55.9361 51.5146 55.9198 51.4211C56.2572 51.2415 56.5399 50.9742 56.7381 50.6474C56.9363 50.3206 57.0426 49.9463 57.0458 49.5641V47.4241C57.0384 46.8494 56.8032 46.3012 56.3918 45.8999C55.9804 45.4987 55.4265 45.2772 54.8518 45.2841ZM43.8828 47.4241H54.8518V49.5641H43.8828V47.4241ZM53.7548 53.8441H42.7868V51.7041H53.7558L53.7548 53.8441ZM54.8548 55.9841V58.1241H43.8828V55.9841H54.8548ZM53.7548 62.4041H42.7868V60.2641H53.7558L53.7548 62.4041Z" fill="#0A2C3D"/>
</g>
<g id="Group 12971">
<path id="Path 62230" d="M58.1433 0.343918H49.3683C49.2257 0.341803 49.0842 0.367816 48.9517 0.42047C48.8193 0.473125 48.6985 0.551385 48.5963 0.650772C48.4942 0.75016 48.4126 0.868722 48.3563 0.999673C48.3 1.13062 48.2701 1.27139 48.2683 1.41392V3.55392H47.1883L39.7153 0.430918C39.5798 0.373602 39.4343 0.344019 39.2873 0.343918H27.7483C25.722 0.343632 23.7754 1.13277 22.3213 2.54392L13.3893 11.2439C12.6877 11.9018 12.2365 12.7831 12.1128 13.7369C11.9891 14.6907 12.2007 15.6578 12.7113 16.4729C12.8817 16.7193 13.0774 16.9472 13.2953 17.1529C12.4965 18.5546 12.0751 20.1396 12.0723 21.7529C12.0821 23.7874 12.7346 25.7668 13.9366 27.4083C15.1386 29.0497 16.8287 30.2694 18.7653 30.8929C20.7147 31.5449 22.8175 31.5815 24.7885 30.9978C26.7595 30.4141 28.5032 29.2383 29.7833 27.6299C31.0373 26.0434 31.7486 24.0961 31.8123 22.0748C31.876 20.0536 31.2888 18.0653 30.1373 16.4029H32.8623C33.6473 18.9709 37.1753 20.6829 40.3803 20.6829C43.5853 20.6829 47.1113 18.9709 47.8973 16.4029H48.2713V18.5429C48.2731 18.6854 48.303 18.8262 48.3593 18.9572C48.4156 19.0881 48.4972 19.2067 48.5993 19.3061C48.7015 19.4055 48.8223 19.4837 48.9547 19.5364C49.0872 19.589 49.2287 19.615 49.3713 19.6129H58.1463C58.2888 19.615 58.4303 19.589 58.5628 19.5364C58.6952 19.4837 58.816 19.4055 58.9182 19.3061C59.0204 19.2067 59.1019 19.0881 59.1582 18.9572C59.2145 18.8262 59.2444 18.6854 59.2463 18.5429V1.41392C59.2444 1.27113 59.2144 1.13012 59.1579 0.998969C59.1015 0.867819 59.0196 0.749122 58.9171 0.649696C58.8146 0.550269 58.6935 0.472072 58.5607 0.419597C58.4279 0.367122 58.286 0.341404 58.1433 0.343918ZM29.6233 21.7439C29.5674 23.7431 28.7339 25.6416 27.3001 27.0359C25.8663 28.4302 23.9452 29.2103 21.9453 29.2103C19.9453 29.2103 18.0242 28.4302 16.5904 27.0359C15.1566 25.6416 14.3232 23.7431 14.2673 21.7439C14.2642 20.2184 14.7418 18.7306 15.6323 17.4919C16.3273 16.5151 17.2405 15.7138 18.2994 15.1517C19.3584 14.5896 20.5338 14.2822 21.7323 14.2539H21.9403C22.0773 14.2539 22.2113 14.2709 22.3483 14.2779C22.7342 14.9312 23.2858 15.471 23.9472 15.8427C24.6087 16.2145 25.3566 16.405 26.1153 16.3949H27.3023C28.0319 17.0823 28.614 17.911 29.013 18.8307C29.4121 19.7503 29.6197 20.7415 29.6233 21.7439ZM46.9613 14.2539C46.8187 14.2518 46.6772 14.2778 46.5447 14.3305C46.4123 14.3831 46.2915 14.4614 46.1893 14.5608C46.0872 14.6602 46.0056 14.7787 45.9493 14.9097C45.893 15.0406 45.8631 15.1814 45.8613 15.3239C45.8613 16.9439 43.1443 18.5339 40.3773 18.5339C37.6103 18.5339 34.8933 16.9439 34.8933 15.3239C34.8914 15.1814 34.8615 15.0406 34.8052 14.9097C34.7489 14.7787 34.6674 14.6602 34.5652 14.5608C34.463 14.4614 34.3422 14.3831 34.2098 14.3305C34.0773 14.2778 33.9358 14.2518 33.7933 14.2539H26.1203C25.8337 14.2627 25.5484 14.2138 25.2811 14.1102C25.0138 14.0066 24.77 13.8504 24.5642 13.6508C24.3585 13.4512 24.1949 13.2123 24.0831 12.9483C23.9714 12.6843 23.9138 12.4006 23.9138 12.1139C23.9138 11.8273 23.9714 11.5435 24.0831 11.2795C24.1949 11.0155 24.3585 10.7766 24.5642 10.577C24.77 10.3775 25.0138 10.2212 25.2811 10.1176C25.5484 10.014 25.8337 9.96516 26.1203 9.97392H38.1863V7.83392H26.1203C24.9709 7.81977 23.8629 8.26271 23.04 9.06533C22.2172 9.86795 21.7468 10.9645 21.7323 12.1139H21.7123C20.3679 12.1424 19.0431 12.4427 17.8178 12.9966C16.5925 13.5505 15.4919 14.3465 14.5823 15.3369C14.5733 15.3249 14.5623 15.3159 14.5533 15.3029C14.319 14.8969 14.23 14.4233 14.3009 13.96C14.3718 13.4967 14.5984 13.0713 14.9433 12.7539L23.8763 4.05392C24.9136 3.04682 26.3025 2.48364 27.7483 2.48392H39.0573L46.5323 5.60692C46.6705 5.66526 46.8192 5.69486 46.9693 5.69392H48.2743V14.2539H46.9613ZM57.0463 17.4639H50.4643V2.48392H57.0453L57.0463 17.4639Z" fill="#0A2C3D"/>
<path id="Path 62234" d="M20.8478 18.534H23.0418C23.1843 18.5319 23.3258 18.5579 23.4583 18.6105C23.5907 18.6632 23.7115 18.7414 23.8137 18.8408C23.9159 18.9402 23.9974 19.0588 24.0537 19.1897C24.11 19.3207 24.1399 19.4614 24.1418 19.604H26.3358C26.325 18.7419 25.9722 17.9194 25.355 17.3175C24.7378 16.7155 23.9068 16.3833 23.0448 16.394V15.324H20.8478V16.394C20.4195 16.3833 19.9934 16.4584 19.5946 16.6149C19.1958 16.7714 18.8323 17.0062 18.5256 17.3053C18.2189 17.6044 17.9752 17.9619 17.8088 18.3567C17.6424 18.7515 17.5566 19.1756 17.5566 19.604C17.5566 20.0324 17.6424 20.4565 17.8088 20.8513C17.9752 21.246 18.2189 21.6035 18.5256 21.9027C18.8323 22.2018 19.1958 22.4365 19.5946 22.593C19.9934 22.7495 20.4195 22.8247 20.8478 22.814H23.0418C23.3256 22.814 23.5977 22.9267 23.7984 23.1274C23.999 23.328 24.1118 23.6002 24.1118 23.884C24.1118 24.1678 23.999 24.4399 23.7984 24.6406C23.5977 24.8412 23.3256 24.954 23.0418 24.954H20.8478C20.7052 24.9561 20.5637 24.9301 20.4313 24.8774C20.2988 24.8248 20.178 24.7465 20.0758 24.6471C19.9737 24.5477 19.8921 24.4292 19.8358 24.2982C19.7795 24.1673 19.7496 24.0265 19.7478 23.884H17.5578C17.5686 24.746 17.9214 25.5685 18.5385 26.1705C19.1557 26.7725 19.9867 27.1047 20.8488 27.094V28.164H23.0428V27.094C23.4711 27.1047 23.8972 27.0295 24.296 26.873C24.6948 26.7165 25.0582 26.4818 25.3649 26.1826C25.6716 25.8835 25.9153 25.526 26.0818 25.1313C26.2482 24.7365 26.3339 24.3124 26.3339 23.884C26.3339 23.4556 26.2482 23.0315 26.0818 22.6367C25.9153 22.2419 25.6716 21.8844 25.3649 21.5853C25.0582 21.2862 24.6948 21.0514 24.296 20.8949C23.8972 20.7384 23.4711 20.6633 23.0428 20.674H20.8478C20.7073 20.674 20.5681 20.6463 20.4383 20.5925C20.3085 20.5388 20.1905 20.4599 20.0912 20.3606C19.9918 20.2612 19.913 20.1433 19.8592 20.0134C19.8054 19.8836 19.7778 19.7445 19.7778 19.604C19.7778 19.4635 19.8054 19.3243 19.8592 19.1945C19.913 19.0647 19.9918 18.9467 20.0912 18.8474C20.1905 18.748 20.3085 18.6692 20.4383 18.6154C20.5681 18.5617 20.7073 18.534 20.8478 18.534Z" fill="#0A2C3D"/>
</g>
</g>
</svg>
