<svg width="66" height="61" viewBox="0 0 66 61" fill="none" xmlns="http://www.w3.org/2000/svg">
<g id="house (1)">
<g id="Group 12974">
<g id="Group 12973">
<path id="Path 62246" d="M65.3406 28.626L53.1926 18.036C53.2066 17.964 53.2206 17.891 53.2356 17.804V3.95299C53.2339 3.56021 53.0811 3.18313 52.8089 2.89995C52.5367 2.61677 52.166 2.4492 51.7736 2.43199H44.9896C44.6018 2.45141 44.2367 2.62105 43.9719 2.90497C43.707 3.18889 43.5631 3.56478 43.5706 3.95299V9.68999L33.8496 1.22899C33.5943 1.00536 33.2664 0.88208 32.9271 0.88208C32.5877 0.88208 32.2598 1.00536 32.0046 1.22899L0.513561 28.612C0.222468 28.8612 0.0403011 29.2144 0.00592563 29.5961C-0.0284498 29.9777 0.0876882 30.3577 0.329561 30.655C0.446902 30.801 0.592351 30.922 0.757293 31.0108C0.922235 31.0995 1.10332 31.1543 1.28981 31.1719C1.47631 31.1894 1.66443 31.1693 1.84302 31.1128C2.02162 31.0563 2.18707 30.9646 2.32956 30.843L2.35756 30.814L32.9276 4.24299L43.8686 13.764L50.4106 19.443L63.5106 30.831C63.6512 30.9542 63.8152 31.048 63.9927 31.1069C64.1702 31.1657 64.3577 31.1884 64.5441 31.1736C64.7305 31.1588 64.9121 31.1068 65.0781 31.0206C65.2441 30.9345 65.3911 30.8159 65.5106 30.672C65.7516 30.3749 65.8685 29.9961 65.8369 29.6148C65.8052 29.2335 65.6273 28.8792 65.3406 28.626ZM50.3826 15.587L46.4096 12.164V5.34399H50.3836L50.3826 15.587Z" fill="#FF5A3C"/>
</g>
</g>
<g id="Group 12976">
<g id="Group 12975">
<path id="Path 62247" d="M59.083 31.5529L55.095 28.0799L33.85 9.54588C33.5947 9.32225 33.2669 9.19897 32.9275 9.19897C32.5881 9.19897 32.2603 9.32225 32.005 9.54588L10.761 28.0799L6.77303 31.5569C6.48583 31.8099 6.3088 32.165 6.27965 32.5467C6.25051 32.9283 6.37157 33.3062 6.61703 33.5999C6.73191 33.7431 6.87458 33.8616 7.03644 33.9483C7.19831 34.035 7.37603 34.0881 7.55893 34.1044C7.74183 34.1206 7.92612 34.0997 8.10074 34.0429C8.27535 33.9861 8.43668 33.8946 8.57503 33.7739L8.58903 33.7599L10.367 32.1899V59.3549C10.3722 59.7438 10.527 60.1158 10.7992 60.3937C11.0715 60.6715 11.4403 60.8338 11.829 60.8469H54.017C54.4068 60.837 54.7775 60.6757 55.0504 60.3972C55.3233 60.1187 55.4771 59.7448 55.479 59.3549V32.1899L57.253 33.7549C57.5044 33.9756 57.8265 34.0991 58.161 34.1029C58.3668 34.1014 58.5699 34.0554 58.7562 33.9678C58.9425 33.8803 59.1075 33.7534 59.24 33.5959C59.4891 33.3037 59.6124 32.9248 59.583 32.542C59.5535 32.1592 59.3738 31.8036 59.083 31.5529ZM38.605 57.9349H27.251V42.2879H38.605V57.9349ZM41.443 57.9349V40.8799C41.4599 40.5015 41.3259 40.1319 41.0706 39.8522C40.8152 39.5725 40.4594 39.4055 40.081 39.3879H25.775C25.3967 39.4055 25.0408 39.5725 24.7855 39.8522C24.5301 40.1319 24.3962 40.5015 24.413 40.8799V57.9319H13.202V29.7129L32.928 12.5589L52.654 29.7129V57.9349H41.443Z" fill="#FF5A3C"/>
</g>
</g>
</g>
</svg>
