<svg width="19" height="20" viewBox="0 0 19 20" fill="none" xmlns="http://www.w3.org/2000/svg">
<g id="Group 7224">
<path id="Path 61117" d="M7.81601 7.854C7.56518 7.87138 7.32032 7.93856 7.09573 8.05161C6.87114 8.16465 6.67132 8.3213 6.50794 8.51242C6.34456 8.70354 6.2209 8.92529 6.14416 9.16473C6.06743 9.40417 6.03916 9.6565 6.06101 9.90698C6.06101 11.144 6.93701 11.956 8.26101 13.184C8.49201 13.398 8.73101 13.619 8.98501 13.86C9.04645 13.9209 9.12948 13.9551 9.21601 13.9551C9.30255 13.9551 9.38558 13.9209 9.44701 13.86C9.70101 13.619 9.94101 13.398 10.172 13.184C11.499 11.956 12.372 11.144 12.372 9.90698C12.3939 9.6565 12.3656 9.40417 12.2889 9.16473C12.2121 8.92529 12.0885 8.70354 11.9251 8.51242C11.7617 8.3213 11.5619 8.16465 11.3373 8.05161C11.1127 7.93856 10.8678 7.87138 10.617 7.854C10.3298 7.86146 10.0496 7.94381 9.80402 8.0929C9.55846 8.24199 9.35611 8.45262 9.21701 8.70398C9.07815 8.45243 8.87585 8.24162 8.63024 8.0925C8.38463 7.94338 8.10426 7.86116 7.81701 7.854H7.81601ZM9.55801 9.67099C9.55801 9.65999 9.83301 8.617 10.623 8.617C10.7776 8.63069 10.9279 8.67515 11.065 8.7478C11.2021 8.82046 11.3233 8.91982 11.4214 9.04004C11.5196 9.16025 11.5926 9.29889 11.6364 9.44778C11.6801 9.59668 11.6936 9.7528 11.676 9.90698C11.676 10.792 10.94 11.474 9.72001 12.607C9.55801 12.757 9.39201 12.907 9.22001 13.072C9.04801 12.91 8.88201 12.757 8.72001 12.607C7.50001 11.478 6.76401 10.796 6.76401 9.90698C6.74646 9.7528 6.75995 9.59668 6.80367 9.44778C6.84739 9.29889 6.92047 9.16025 7.0186 9.04004C7.11673 8.91982 7.23792 8.82046 7.37504 8.7478C7.51216 8.67515 7.66244 8.63069 7.81701 8.617C8.59701 8.617 8.87001 9.625 8.88201 9.672C8.89745 9.75042 8.93965 9.82106 9.00139 9.87183C9.06313 9.92259 9.14058 9.95035 9.22051 9.95035C9.30044 9.95035 9.3779 9.92259 9.43963 9.87183C9.50137 9.82106 9.54357 9.75042 9.55901 9.672L9.55801 9.67099Z" fill="#FF5A3C"/>
<path id="Ellipse 469" d="M4.65702 4.27006C4.85087 4.27006 5.00802 4.09948 5.00802 3.88906C5.00802 3.67864 4.85087 3.50806 4.65702 3.50806C4.46316 3.50806 4.30602 3.67864 4.30602 3.88906C4.30602 4.09948 4.46316 4.27006 4.65702 4.27006Z" fill="#FF5A3C"/>
<path id="Path 61118" d="M15.95 9.06799C16.1878 9.26867 16.4889 9.37883 16.8 9.379C17.1873 9.36082 17.5518 9.19035 17.814 8.90472C18.0762 8.6191 18.2149 8.24145 18.2 7.854C18.203 7.62379 18.1551 7.39575 18.0597 7.18622C17.9642 6.97669 17.8237 6.79085 17.648 6.642L15.884 5.16901V0.381989C15.8881 0.284799 15.8534 0.189976 15.7876 0.118347C15.7218 0.0467186 15.6302 0.0041559 15.533 0H13.434C13.3368 0.0041559 13.2453 0.0467186 13.1795 0.118347C13.1136 0.189976 13.079 0.284799 13.083 0.381989V2.82498L10.072 0.311981C9.83459 0.110579 9.53336 3.05176e-05 9.22202 3.05176e-05C8.91067 3.05176e-05 8.60944 0.110579 8.37202 0.311981L5.70002 2.543C5.62489 2.60813 5.57671 2.69891 5.56488 2.79764C5.55304 2.89636 5.5784 2.99595 5.63602 3.077C5.66201 3.11606 5.69597 3.14917 5.73566 3.17419C5.77535 3.19922 5.81989 3.21559 5.86634 3.2222C5.91279 3.22881 5.96012 3.22551 6.00521 3.21255C6.05031 3.1996 6.09216 3.17727 6.12802 3.147L8.79902 0.916992C8.91776 0.817192 9.0679 0.762482 9.22302 0.762482C9.37813 0.762482 9.52827 0.817192 9.64702 0.916992L17.229 7.24698C17.3171 7.32146 17.3876 7.41453 17.4355 7.51947C17.4834 7.62441 17.5075 7.73866 17.506 7.854C17.5136 8.04781 17.4443 8.23675 17.3132 8.37967C17.1821 8.52259 16.9998 8.60792 16.806 8.617C16.6513 8.61674 16.5017 8.56223 16.383 8.46298L9.43902 2.66299C9.38144 2.61407 9.30882 2.58638 9.23329 2.58456C9.15775 2.58274 9.08388 2.60689 9.02402 2.65298L2.06902 8.46399C2.00018 8.5216 1.92039 8.56469 1.83446 8.59064C1.74853 8.61659 1.65824 8.62487 1.56902 8.61499C1.41445 8.61002 1.26702 8.54874 1.15449 8.44266C1.04196 8.33657 0.972085 8.19301 0.958017 8.039C0.924454 7.89608 0.930866 7.74667 0.976549 7.60715C1.02223 7.46763 1.10542 7.34338 1.21702 7.24799L3.61702 5.23999C3.6923 5.17499 3.74067 5.0843 3.75269 4.98557C3.76471 4.88683 3.73951 4.78715 3.68202 4.70599C3.65603 4.66678 3.62203 4.63352 3.58225 4.6084C3.54247 4.58328 3.49782 4.56686 3.45124 4.56024C3.40466 4.55363 3.35721 4.55695 3.31201 4.57001C3.26681 4.58306 3.22489 4.60555 3.18902 4.63599L0.789017 6.64301C0.568506 6.83184 0.403792 7.07735 0.312673 7.353C0.221554 7.62864 0.207496 7.92394 0.272017 8.207C0.31294 8.5124 0.457026 8.79461 0.68038 9.00687C0.903734 9.21913 1.19293 9.34867 1.50002 9.37399C1.67672 9.39305 1.85546 9.37631 2.02555 9.32477C2.19565 9.27322 2.35361 9.18794 2.49002 9.07401L2.55302 9.02298V14.254C2.14366 14.373 1.77745 14.6078 1.49853 14.9302C1.21961 15.2526 1.03988 15.6488 0.981017 16.071C0.747553 16.2548 0.558974 16.4894 0.429555 16.7569C0.300136 17.0244 0.23327 17.3178 0.234017 17.615C0.214229 18.1008 0.387844 18.5747 0.716813 18.9327C1.04578 19.2907 1.50327 19.5037 1.98902 19.525H16.449C16.934 19.5037 17.3909 19.2912 17.7198 18.9341C18.0486 18.5769 18.2227 18.1041 18.204 17.619C18.2062 17.3209 18.1403 17.0263 18.0114 16.7575C17.8824 16.4887 17.6939 16.2529 17.46 16.068C17.4013 15.6457 17.2216 15.2495 16.9426 14.9271C16.6637 14.6047 16.2974 14.3699 15.888 14.251V9.01999L15.95 9.06799ZM13.782 0.768005H15.182V4.58798L13.782 3.41599V0.768005ZM5.85002 18.768H1.98902C1.84382 18.7622 1.7012 18.7277 1.56941 18.6665C1.43761 18.6053 1.31925 18.5186 1.22116 18.4114C1.12306 18.3042 1.04718 18.1786 0.997896 18.0419C0.948612 17.9052 0.926901 17.7601 0.934017 17.615C0.93232 17.4175 0.980905 17.2228 1.0752 17.0493C1.16949 16.8757 1.30639 16.729 1.47302 16.623C1.52413 16.5905 1.56683 16.5464 1.59759 16.4943C1.62836 16.4421 1.64633 16.3834 1.65002 16.323C1.66674 15.9608 1.81868 15.618 2.07584 15.3623C2.333 15.1066 2.67668 14.9566 3.03902 14.942C3.26852 14.9459 3.49339 15.0072 3.69319 15.1202C3.89299 15.2332 4.06137 15.3943 4.18302 15.589C4.22066 15.6497 4.27653 15.6968 4.34264 15.7238C4.40875 15.7507 4.4817 15.756 4.55102 15.739C4.63023 15.7172 4.71187 15.7054 4.79402 15.704C5.08297 15.7162 5.35549 15.8418 5.55257 16.0534C5.74964 16.2651 5.85543 16.5459 5.84702 16.835C5.82776 16.9237 5.84011 17.0163 5.88192 17.0968C5.92374 17.1774 5.9924 17.2407 6.07602 17.276C6.21797 17.3336 6.33916 17.4328 6.42359 17.5606C6.50803 17.6884 6.55176 17.8388 6.54902 17.992C6.55744 18.1863 6.48866 18.3759 6.35769 18.5197C6.22673 18.6634 6.04421 18.7494 5.85002 18.759V18.768ZM11.894 16.684C11.6739 16.8206 11.4944 17.0136 11.374 17.243H7.06502C6.94398 17.0138 6.76417 16.8208 6.54402 16.684C6.53846 16.6169 6.52945 16.5502 6.51702 16.484H11.917C11.91 16.538 11.9 16.606 11.894 16.675V16.684ZM7.06602 18.768C7.19001 18.5328 7.25455 18.2709 7.25402 18.005H11.185C11.1845 18.2709 11.249 18.5328 11.373 18.768H7.06602ZM16.785 16.336C16.7887 16.3964 16.8067 16.4551 16.8374 16.5073C16.8682 16.5594 16.9109 16.6035 16.962 16.636C17.1288 16.742 17.2658 16.8886 17.3603 17.0622C17.4547 17.2357 17.5035 17.4304 17.502 17.628C17.5139 17.9193 17.4097 18.2034 17.2123 18.4179C17.0148 18.6324 16.7403 18.7598 16.449 18.772H12.589C12.3954 18.7627 12.2132 18.6773 12.0822 18.5344C11.9511 18.3915 11.8817 18.2027 11.889 18.009C11.8863 17.8558 11.93 17.7054 12.0144 17.5776C12.0989 17.4498 12.2201 17.3506 12.362 17.293C12.4456 17.2577 12.5143 17.1944 12.5561 17.1138C12.5979 17.0333 12.6103 16.9407 12.591 16.852C12.5826 16.5629 12.6884 16.2821 12.8855 16.0704C13.0825 15.8588 13.3551 15.7332 13.644 15.721C13.7262 15.7225 13.8078 15.7343 13.887 15.756C13.9563 15.773 14.0293 15.7677 14.0954 15.7408C14.1615 15.7138 14.2174 15.6666 14.255 15.606C14.3767 15.4113 14.545 15.2502 14.7448 15.1372C14.9446 15.0242 15.1695 14.9629 15.399 14.959C15.7614 14.9732 16.1052 15.123 16.3623 15.3788C16.6194 15.6346 16.771 15.9777 16.787 16.34L16.785 16.336ZM15.185 14.204C14.6479 14.2689 14.1579 14.5427 13.821 14.966C13.7613 14.9589 13.7012 14.9552 13.641 14.955C13.3635 14.9596 13.0912 15.0313 12.8474 15.164C12.6036 15.2967 12.3956 15.4864 12.241 15.717H6.20002C6.04564 15.4863 5.83763 15.2964 5.5938 15.1637C5.34997 15.031 5.07759 14.9594 4.80002 14.955C4.73986 14.9552 4.67976 14.9589 4.62002 14.966C4.28298 14.5428 3.79307 14.2691 3.25602 14.204V8.42499L9.22202 3.439L15.189 8.42398L15.185 14.204Z" fill="#FF5A3C"/>
</g>
</svg>
